<svg xmlns="http://www.w3.org/2000/svg" viewBox="0 0 1080 1080"><title>Data1</title><path d="M192.07,896,59.41,404a59.09,59.09,0,0,1,41.67-72.43l723.17-195a59.09,59.09,0,0,1,72.43,41.67l132.66,492.07a59.08,59.08,0,0,1-41.66,72.43l-723.18,195A59.09,59.09,0,0,1,192.07,896Z" fill-opacity="0.7" opacity="0.2"/><path d="M33.88,397.73H76.25a1,1,0,0,1,1,1v18.14a0,0,0,0,1,0,0H32.9a0,0,0,0,1,0,0V398.72a1,1,0,0,1,1-1Z" transform="translate(-323.85 566.48) rotate(-105.09)" fill="#f4f4f4" stroke="#1a2e35" stroke-linecap="round" stroke-linejoin="round"/><path d="M110.09,308.9h42.36a1,1,0,0,1,1,1V328a0,0,0,0,1,0,0H109.1a0,0,0,0,1,0,0V309.89A1,1,0,0,1,110.09,308.9Z" transform="translate(-78.37 45.15) rotate(-15.09)" fill="#f4f4f4" stroke="#1a2e35" stroke-linecap="round" stroke-linejoin="round"/><path d="M161,295.17h42.36a1,1,0,0,1,1,1V314.3a0,0,0,0,1,0,0H160a0,0,0,0,1,0,0V296.16A1,1,0,0,1,161,295.17Z" transform="translate(-73.04 57.93) rotate(-15.09)" fill="#f4f4f4" stroke="#1a2e35" stroke-linecap="round" stroke-linejoin="round"/><path d="M179.68,889.07,47,397a59.09,59.09,0,0,1,41.67-72.43l723.17-195a59.09,59.09,0,0,1,72.43,41.67l132.66,492.07a59.08,59.08,0,0,1-41.66,72.43l-723.18,195A59.08,59.08,0,0,1,179.68,889.07Z" fill="#f4f4f4" stroke="#1a2e35" stroke-linecap="round" stroke-linejoin="round"/><path d="M975.43,728.9l-726.91,196a50.56,50.56,0,0,1-62-35.65L52.87,393.41a50.56,50.56,0,0,1,35.65-62l726.92-196a50.56,50.56,0,0,1,62,35.65l133.67,495.82A50.55,50.55,0,0,1,975.43,728.9Z" fill="#757575" stroke="#1a2e35" stroke-linecap="round" stroke-linejoin="round"/><path d="M131.92,638a2.9,2.9,0,1,1-3.55-2A2.9,2.9,0,0,1,131.92,638Z" fill="#999" stroke="#1a2e35" stroke-linecap="round" stroke-linejoin="round"/><path d="M141.34,662.8a5.54,5.54,0,1,1-6.79-3.91A5.54,5.54,0,0,1,141.34,662.8Z" fill="#1a2e35"/><path d="M124.56,600.54a5.55,5.55,0,1,1-6.8-3.9A5.56,5.56,0,0,1,124.56,600.54Z" fill="#1a2e35"/><path d="M144.66,680.9a4,4,0,1,1-4.95-2.85A4,4,0,0,1,144.66,680.9Z" fill="#1a2e35"/><path d="M856.79,170.63,993.51,677.68a25,25,0,0,1-17.59,30.6l-609,164.19L353.74,876l-49.65,13.37-24,6.49-34.72,9.37-7.59,2a25,25,0,0,1-30.6-17.59L70.46,382.64a24.92,24.92,0,0,1,17.6-30.58l227.32-61.3,34.4-9.26,32.87-8.86,42.22-11.4,15.27-4.12L826.21,153A25,25,0,0,1,856.79,170.63Z" fill="#1a2e35"/><g opacity="0.1"><path d="M499.43,808.8,241.2,878.42a6.58,6.58,0,0,1-8.06-4.63L188,706.2a6.58,6.58,0,0,1,4.64-8.05l258.23-69.62a6.58,6.58,0,0,1,8.06,4.63l45.18,167.59A6.58,6.58,0,0,1,499.43,808.8ZM193.19,700.36a4.28,4.28,0,0,0-3,5.25l45.18,167.58a4.28,4.28,0,0,0,5.24,3l258.24-69.62a4.3,4.3,0,0,0,3-5.24L456.67,633.76a4.28,4.28,0,0,0-5.24-3Z" fill="#fff"/></g><path d="M308.05,763.24l67.73,6.84A69.84,69.84,0,0,0,342,704.26Z" fill="#f4f4f4" opacity="0.4"/><path d="M307.26,760,340,703.12a69.74,69.74,0,0,0-33.8-8.76l.43,26.83Z" fill="#f4f4f4" opacity="0.6"/><path d="M289.11,696.5,304.88,755l-1-60.58A69.46,69.46,0,0,0,289.11,696.5Z" fill="#f4f4f4"/><path d="M304.9,763.86l-18-66.76a69.81,69.81,0,0,0-30.59,116Z" fill="#fff" opacity="0.1"/><path d="M324.36,831.63a69.84,69.84,0,0,0,51.18-59.27l-68.93-7-48.68,49.3A69.77,69.77,0,0,0,324.36,831.63Z" fill="#f4f4f4" opacity="0.2"/><rect x="381.92" y="683.09" width="11.51" height="11.51" rx="0.63" transform="translate(-165.95 124.67) rotate(-15.09)" fill="#f4f4f4"/><path d="M433.38,674.92l-33.48,9a1.32,1.32,0,0,1-.69-2.55l33.48-9a1.33,1.33,0,0,1,.69,2.56Z" fill="#f4f4f4"/><path d="M424.66,683.23,401.4,689.5a1.33,1.33,0,0,1-.69-2.56L424,680.67a1.33,1.33,0,0,1,.69,2.56Z" fill="#f4f4f4"/><rect x="388.63" y="707.98" width="11.51" height="11.51" rx="0.63" transform="translate(-172.2 127.27) rotate(-15.09)" fill="#f4f4f4" opacity="0.6"/><path d="M440.09,699.8l-33.48,9a1.32,1.32,0,0,1-.69-2.55l33.48-9a1.32,1.32,0,1,1,.69,2.55Z" fill="#f4f4f4"/><path d="M431.37,708.11l-23.26,6.28a1.33,1.33,0,0,1-.69-2.56l23.26-6.27a1.34,1.34,0,0,1,1.63.93A1.32,1.32,0,0,1,431.37,708.11Z" fill="#f4f4f4"/><rect x="395.34" y="732.87" width="11.51" height="11.51" rx="0.63" transform="translate(-178.45 129.88) rotate(-15.09)" fill="#f4f4f4" opacity="0.4"/><path d="M446.8,724.69l-33.48,9a1.32,1.32,0,0,1-.69-2.55l33.48-9a1.32,1.32,0,1,1,.69,2.55Z" fill="#f4f4f4"/><path d="M438.08,733l-23.26,6.28a1.33,1.33,0,0,1-.69-2.56l23.26-6.27a1.34,1.34,0,0,1,1.63.93A1.32,1.32,0,0,1,438.08,733Z" fill="#f4f4f4"/><rect x="402.05" y="757.76" width="11.51" height="11.51" rx="0.63" transform="translate(-184.69 132.48) rotate(-15.09)" fill="#f4f4f4" opacity="0.2"/><path d="M453.51,749.58l-33.48,9a1.33,1.33,0,0,1-.69-2.56l33.48-9a1.32,1.32,0,1,1,.69,2.55Z" fill="#f4f4f4"/><path d="M444.79,757.89l-23.26,6.27a1.32,1.32,0,0,1-.69-2.55l23.26-6.27a1.34,1.34,0,0,1,1.63.93A1.32,1.32,0,0,1,444.79,757.89Z" fill="#f4f4f4"/><rect x="408.76" y="782.65" width="11.51" height="11.51" rx="0.63" transform="translate(-190.94 135.09) rotate(-15.09)" fill="#f4f4f4" opacity="0.1"/><path d="M460.22,774.47l-33.48,9a1.33,1.33,0,0,1-.69-2.56l33.48-9a1.32,1.32,0,1,1,.69,2.55Z" fill="#f4f4f4"/><path d="M451.5,782.78l-23.26,6.27a1.32,1.32,0,1,1-.69-2.55l23.26-6.27a1.32,1.32,0,1,1,.69,2.55Z" fill="#f4f4f4"/><g opacity="0.1"><path d="M909.82,504.78,490,618a6.58,6.58,0,0,0-4.65,8l3.12,11.56.59,2.21,4.2,15.59.6,2.21,4.2,15.56.59,2.21,4.2,15.57.6,2.21,4.2,15.58.59,2.22,4.2,15.56.6,2.21,4.19,15.56.6,2.22,4.2,15.58.6,2.22,4.19,15.56.6,2.21,3.11,11.56a6.61,6.61,0,0,0,8.07,4.64L958.42,685.06A6.57,6.57,0,0,0,963,677l-3.12-11.56-.59-2.21-4.2-15.56-.59-2.22-4.21-15.58-.59-2.21-4.2-15.56-.6-2.22-4.19-15.56-.6-2.21L936,576.52l-.6-2.21-4.19-15.56-.6-2.22L926.37,541l-.6-2.21-4.2-15.58L921,521l-3.11-11.55A6.56,6.56,0,0,0,909.82,504.78Zm51,172.82a4.28,4.28,0,0,1-3,5.24L538,796a4.28,4.28,0,0,1-5.25-3l-3.12-11.56L957.71,666Zm-3.72-13.77L529,779.24l-4.2-15.56L952.92,648.26Zm-4.79-17.78L524.23,761.46,520,745.88,948.12,630.47Zm-4.8-17.8L519.44,743.67l-4.2-15.56L943.33,612.69Zm-4.79-17.77L514.64,725.89l-4.19-15.56L938.54,594.92Zm-4.79-17.78L509.85,708.12l-4.2-15.59L933.74,577.12Zm-4.8-17.79L505.05,690.32l-4.19-15.56L929,559.34Zm-4.79-17.78L500.26,672.54,496.07,657,924.15,541.57Zm-4.79-17.77L495.47,654.77l-4.2-15.58L919.35,523.77ZM490.67,637l-3.11-11.55a4.28,4.28,0,0,1,3-5.24L910.42,507a4.26,4.26,0,0,1,5.22,3l3.12,11.56Z" fill="#fff"/></g><g opacity="0.1"><path d="M828.31,206.06,112.88,398.94a7.5,7.5,0,0,0-5.28,9.19L178.21,670a7.52,7.52,0,0,0,9.19,5.29L902.82,482.44a7.52,7.52,0,0,0,5.29-9.19L837.5,211.34A7.5,7.5,0,0,0,828.31,206.06ZM297.24,482.32,347,468.9l7.61,28.25-49.76,13.42Zm5.4,28.84-49.76,13.42-7.62-28.25L295,482.91Zm46.58-42.86L399,454.89l7.62,28.25-49.76,13.41ZM606.3,396.62,556.53,410l-7.61-28.25,49.76-13.42Zm-5.4-28.85,49.76-13.41,7.61,28.25L608.51,396ZM453.18,440.28l49.76-13.42,7.62,28.25-49.77,13.42Zm5.4,28.84-49.77,13.42-7.61-28.25L451,440.87Zm46.57-42.86,49.77-13.41,7.61,28.25-49.76,13.41Zm52-14,49.77-13.42,7.61,28.25L564.75,440.5Zm-2.81-1.62-49.76,13.42-7.62-28.25,49.76-13.42Zm-52,14-49.76,13.41L445,409.81l49.77-13.41Zm-52,14L400.6,452.08,393,423.83l49.76-13.42Zm-52,14-49.77,13.42L341,437.84l49.76-13.42Zm8.81,32.68,7.61,28.25L365.05,527l-7.62-28.25Zm2.21-.6,49.76-13.41,7.62,28.25L417,513Zm52-14,49.76-13.42,7.62,28.25L469,499Zm52-14,49.76-13.42,7.62,28.25L521,485Zm52-14,49.77-13.41,7.61,28.25L573,471Zm52-14,49.76-13.42,7.62,28.25L624.94,457Zm-.59-2.21-7.62-28.25,49.76-13.42,7.62,28.25Zm44.36-42.27,49.76-13.41,7.62,28.25L668.7,412.47Zm52-14,49.77-13.42L770.44,385l-49.76,13.42Zm-.59-2.21-7.62-28.25,49.76-13.42,7.62,28.25Zm-2.22.59L660.49,382l-7.62-28.25,49.77-13.42Zm-58-17-7.62-28.25,49.76-13.42L702,338.13Zm-2.22.59L600.3,365.56l-7.62-28.25,49.77-13.41Zm-52,14-49.77,13.41-7.62-28.24,49.77-13.42Zm-52,14-49.77,13.42-7.61-28.25,49.76-13.42Zm-52,14L444.37,407.6l-7.62-28.25,49.76-13.41Zm-52,14-49.76,13.41-7.62-28.24L434.54,380Zm-52,14-49.76,13.42-7.62-28.25L382.56,394Zm-52,14-49.77,13.42-7.61-28.25L330.58,408Zm.59,2.22,7.62,28.25L296.65,480.1,289,451.85ZM294.43,480.7l-49.76,13.42-7.62-28.25,49.77-13.42Zm-52,14-49.76,13.42-7.62-28.25,49.77-13.42Zm.6,2.22,7.62,28.25L200.9,538.59l-7.61-28.25Zm8.21,30.46,7.62,28.25-49.76,13.42-7.62-28.25Zm2.22-.6,49.76-13.41,7.62,28.25L261.09,555Zm52-14,49.76-13.42,7.62,28.25L313.07,541Zm58,17.05,7.62,28.25-49.77,13.41-7.61-28.25Zm2.22-.6,49.76-13.42L423,544.06l-49.77,13.42Zm52-14,49.77-13.42L475,530.05l-49.76,13.42Zm52-14,49.77-13.41L527,516l-49.76,13.41Zm52-14,49.76-13.42L579,502l-49.77,13.42Zm52-14,49.76-13.42L630.94,488l-49.77,13.42Zm52-14,49.77-13.41L682.91,474l-49.76,13.41Zm52-14,49.77-13.42L734.89,460,685.13,473.4Zm-.6-2.21-7.61-28.25,49.76-13.42,7.62,28.25Zm44.37-42.27L771,387.26l7.62,28.25-49.77,13.41Zm52-14L823,373.24l7.61,28.25-49.76,13.42Zm-.59-2.21L765,356.2l49.76-13.42L822.42,371ZM764.44,354l-7.61-28.25,49.76-13.41,7.62,28.25Zm-8.21-30.46-7.62-28.25,49.77-13.41L806,310.1Zm-2.21.6-49.77,13.41-7.61-28.24,49.76-13.42Zm-58-17.05-7.61-28.25,49.76-13.41,7.61,28.25Zm-2.21.6-49.77,13.42-7.61-28.25,49.76-13.42Zm-52,14L592.09,335.1l-7.62-28.25,49.76-13.42Zm-52,14-49.76,13.41-7.62-28.25,49.77-13.41Zm-52,14-49.76,13.42-7.62-28.25,49.77-13.42Zm-52,14-49.77,13.42-7.61-28.25,49.76-13.42Zm-52,14-49.76,13.41-7.62-28.25,49.76-13.41Zm-52,14L332.2,405.17l-7.62-28.25,49.77-13.42Zm-52,14-49.76,13.42-7.62-28.25,49.77-13.42Zm-52,14-49.77,13.41-7.61-28.25,49.76-13.41Zm.59,2.21,7.62,28.25-49.76,13.41-7.62-28.24Zm-44.36,42.26-49.76,13.42-7.62-28.25L226.63,436Zm-52,14L132.5,491.68l-7.62-28.25L174.65,450Zm.6,2.22,7.62,28.25-49.77,13.41-7.61-28.25Zm8.21,30.46,7.62,28.25-49.76,13.42-7.62-28.25Zm8.22,30.46,7.61,28.25-49.76,13.42-7.62-28.25Zm8.21,30.47,7.62,28.25-49.77,13.41-7.61-28.25Zm2.21-.6,49.77-13.42,7.61,28.25-49.76,13.42Zm52-14,49.76-13.42,7.62,28.25-49.76,13.42Zm58,17,7.61,28.25L277.52,616l-7.62-28.25Zm2.21-.59,49.76-13.42,7.62,28.25L329.5,602Zm52-14,49.76-13.41,7.62,28.25-49.77,13.41Zm52-14,49.76-13.42,7.62,28.25-49.77,13.42Zm52-14,49.77-13.42,7.61,28.25-49.76,13.42Zm52-14,49.77-13.41,7.61,28.25L537.41,545.9Zm52-14,49.76-13.42,7.62,28.25-49.76,13.42Zm52-14,49.76-13.42,7.62,28.25-49.77,13.42Zm52-14,49.77-13.41,7.61,28.25-49.76,13.41Zm52-14,49.77-13.42,7.61,28.25-49.76,13.42Zm-.59-2.21-7.62-28.25,49.76-13.42L786.87,446Zm44.36-42.27,49.76-13.41L838.85,432l-49.77,13.41Zm52-14,49.77-13.42,7.61,28.25-49.76,13.42Zm-.59-2.21-7.62-28.25L875,359.23l7.62,28.25Zm-8.22-30.47L817,342.18l49.76-13.41L874.4,357ZM816.42,340l-7.61-28.25,49.76-13.41,7.61,28.24Zm-8.21-30.46-7.62-28.25,49.77-13.42L858,296.09ZM800,279.05l-7.62-28.25,49.76-13.42,7.62,28.25Zm-2.22.59L748,293.06l-7.62-28.25,49.77-13.42Zm-58-17-7.62-28.25L782,220.93l7.62,28.25Zm-2.22.59-49.76,13.42-7.62-28.25L730,234.94Zm-52,14-49.77,13.41-7.62-28.25L678,249Zm-52,14-49.77,13.42-7.61-28.25L626,263Zm-52,14L531.9,318.65l-7.62-28.25L574,277Zm-52,14-49.76,13.41-7.62-28.25L522.07,291Zm-52,14-49.76,13.42-7.62-28.25L470.09,305Zm-52,14L376,360.69l-7.61-28.25L418.11,319Zm-52,14L324,374.7l-7.61-28.25L366.13,333Zm-52,14L272,388.72l-7.62-28.25,49.76-13.42Zm-52,14L220,402.73l-7.62-28.25,49.77-13.42Zm-52,14-49.77,13.41-7.61-28.25,49.76-13.41Zm.59,2.21L226,433.79l-49.76,13.42L168.65,419ZM174.05,447.8l-49.76,13.42L116.67,433l49.77-13.42Zm-8.1,168,49.76-13.42,7.62,28.25L173.56,644Zm52-14,49.76-13.41,7.62,28.25L225.54,630Zm58,17L283.52,647l-49.77,13.41-7.61-28.24Zm2.22-.6,49.76-13.41L335.5,633l-49.77,13.42Zm52-14,49.77-13.42L387.47,619l-49.76,13.42Zm52-14,49.77-13.42L439.45,605,389.69,618.4Zm52-14,49.76-13.41L491.43,591l-49.76,13.42Zm52-14,49.76-13.42L543.41,577l-49.77,13.42Zm52-14,49.77-13.42L595.38,563l-49.76,13.41Zm52-14,49.77-13.41,7.61,28.24L597.6,562.35Zm52-14,49.76-13.42,7.62,28.25-49.76,13.42Zm52-14,49.76-13.42,7.62,28.25-49.77,13.41Zm52-14,49.76-13.41,7.61,28.24-49.76,13.42Zm52-14,49.77-13.42,7.61,28.25L805.51,506.3Zm-.6-2.21-7.61-28.25,49.76-13.42,7.62,28.25Zm44.37-42.27,49.76-13.41L899,448.41l-49.77,13.41Zm-6.38-221.63,6.27,23.23-49.77,13.41-7.61-28.25,44.74-12.06A5.2,5.2,0,0,1,835.28,211.94ZM113.48,401.15l44.74-12.06,7.62,28.25-49.77,13.42-6.26-23.23A5.22,5.22,0,0,1,113.48,401.15Zm66.94,268.28-6.26-23.22,49.77-13.42L231.54,661,186.8,673.1A5.21,5.21,0,0,1,180.42,669.43ZM902.23,480.22l-44.74,12.06L849.87,464l49.76-13.42,6.26,23.23A5.19,5.19,0,0,1,902.23,480.22Z" fill="#fff"/></g><path d="M883.8,391.91l22.08,81.9a5,5,0,0,1-3.53,6.11l-715.83,193a5,5,0,0,1-6.1-3.51l-3-11s20.33-39.29,41.38-45c24.88-6.7,34.84,4.69,57-1.28s23.78-64.25,43.84-69.66c10.84-2.92,16.89,3.76,25.05,8.73,6.06,3.73,13.33,6.47,24.61,3.65.27,0,.56-.13.82-.2,27.23-7.34,2.06-158,39.51-168.06,16.56-4.46,36,22.66,55.2,53.6,24.29,39.09,48.2,84.29,65.56,79.61,31.05-8.37,14.92-71.74,43.81-79.53,18.15-4.89,38.23,23.88,63.53,42.52,15,11,31.8,18.52,51.15,13.3,17.58-4.74,26.89-13.42,32.8-23.21,11.61-19.13,10.28-42.47,32.68-48.51,13.26-3.58,22,4,30.63,11,7.51,6.12,14.92,11.77,25.15,9,12-3.24,14.51-23.6,18.37-42.4,3.17-15.46,7.24-29.85,18.31-32.84,11.31-3.05,23.16,6.91,30.32,14.6A84.53,84.53,0,0,1,883.8,391.91Z" fill="#f4f4f4" opacity="0.5"/><path d="M853.46,279.37l52.42,194.44a5,5,0,0,1-3.53,6.11l-715.83,193a5,5,0,0,1-6.1-3.51l-3-11c29.73-8,35.41-35.4,55.35-40.78s35.37,3.41,54.06-1.63,27.59-57.85,48-63.36a40.29,40.29,0,0,1,9.81-1.41c8.72-.16,16,2.56,24.61,3.65a51,51,0,0,0,20.29-1.44c23.93-6.45,33-107.32,60.76-114.8,4.84-1.31,9.66-.54,14.48,1.58,22.73,10,45.13,50.07,68.26,43.83,28-7.55,23.24-56.46,50.43-63.79S637.58,453.54,669.1,445,697,341.85,729.73,333s59.71,28.72,88.12,21.06C849,345.71,853.46,279.37,853.46,279.37Z" fill="#f4f4f4" opacity="0.5"/><path d="M877.83,369.77l28,104a5,5,0,0,1-3.53,6.11l-715.83,193a5,5,0,0,1-6.1-3.51L179,664c.56-1.36,9.77-23.22,26.9-27.84,17.69-4.77,24.27,10.06,49,3.4s23.34-27.9,58.36-37.34,45,13.54,81.18,3.78,31.09-40.32,56.79-47.25,30.29,7.82,44.88,3.88,13.12-28.92,31.1-33.76,46.4,24.77,66.65,19.31c14.24-3.84,26.17-40.61,44-65.37,7.53-10.46,16.12-18.79,26.37-21.55,21.14-5.7,39.51,4.67,57.58,11.64,11.37,4.39,22.64,7.43,34.37,4.27,16.76-4.52,22.41-24,28.94-41.78,5.3-14.49,11.17-27.9,24-31.35,8.17-2.2,14.39-2.55,19.54-2,12.93,1.26,19.18,7.89,32.48,4.3C877,402,877.83,369.77,877.83,369.77Z" fill="#f4f4f4"/><path d="M149.13,373.5,110.7,383.86a7,7,0,0,1-8.6-4.95h0a7,7,0,0,1,4.94-8.59L145.48,360a7,7,0,0,1,8.6,4.95h0A7,7,0,0,1,149.13,373.5Z" fill="#f4f4f4"/><path d="M207.76,357.69l-38.43,10.36a7,7,0,0,1-8.6-4.94h0a7,7,0,0,1,5-8.6l38.43-10.36a7,7,0,0,1,8.6,4.94h0A7,7,0,0,1,207.76,357.69Z" fill="none" stroke="#f9a846" stroke-miterlimit="10"/><path d="M266.39,341.88,228,352.25a7,7,0,0,1-8.6-4.95h0a7,7,0,0,1,4.95-8.6l38.43-10.36a7,7,0,0,1,8.6,5h0A7,7,0,0,1,266.39,341.88Z" fill="none" stroke="#f9a846" stroke-miterlimit="10"/><path d="M825,184.79l-.81-3-2.3.41A6.37,6.37,0,0,0,821,181l1-2.11-2.69-1.55L818,179.25a6.85,6.85,0,0,0-1.5-.19l-.8-2.19-3,.81.41,2.3a6,6,0,0,0-1.19.91l-2.12-1-1.55,2.69,1.92,1.34a6.15,6.15,0,0,0-.2,1.49l-2.19.8.81,3,2.3-.41a6.37,6.37,0,0,0,.92,1.2l-1,2.11,2.69,1.55,1.34-1.91a6.68,6.68,0,0,0,1.49.19l.8,2.2,3-.81-.41-2.3a6.82,6.82,0,0,0,1.2-.92l2.11,1,1.55-2.69-1.91-1.33a6.85,6.85,0,0,0,.19-1.5ZM817.32,189a3.61,3.61,0,1,1,2.55-4.43A3.6,3.6,0,0,1,817.32,189Z" fill="#f9a846"/><rect x="556.34" y="672.99" width="8.47" height="60.87" transform="translate(-163.79 170.18) rotate(-15.09)" fill="#f4f4f4" opacity="0.2"/><rect x="554.54" y="682.4" width="8.47" height="28.65" transform="translate(-162.1 169.47) rotate(-15.09)" fill="#f4f4f4"/><rect x="541.94" y="692.78" width="8.47" height="60.87" transform="translate(-169.43 167.11) rotate(-15.09)" fill="#f4f4f4" opacity="0.2"/><rect x="541.93" y="708.83" width="8.47" height="28.66" transform="translate(-169.42 167.1) rotate(-15.09)" fill="#f4f4f4"/><rect x="520.51" y="686.47" width="8.47" height="60.87" transform="translate(-168.53 161.31) rotate(-15.09)" fill="#f4f4f4" opacity="0.2"/><rect x="522.28" y="709.16" width="8.46" height="28.66" transform="translate(-170.18 162) rotate(-15.09)" fill="#f4f4f4"/><rect x="577.87" y="679.64" width="8.47" height="60.87" transform="translate(-164.77 176.01) rotate(-15.09)" fill="#f4f4f4" opacity="0.2"/><rect x="576.06" y="689.05" width="8.47" height="28.65" transform="translate(-163.08 175.28) rotate(-15.09)" fill="#f4f4f4"/><rect x="591.58" y="657.29" width="8.47" height="60.87" transform="translate(-158.48 178.81) rotate(-15.09)" fill="#f4f4f4" opacity="0.2"/><rect x="589.18" y="664.49" width="8.47" height="28.65" transform="translate(-156.24 177.87) rotate(-15.09)" fill="#f4f4f4"/><rect x="614.07" y="667.51" width="8.47" height="60.87" transform="translate(-160.37 185.01) rotate(-15.09)" fill="#f4f4f4" opacity="0.2"/><rect x="610.47" y="670.28" width="8.47" height="28.66" transform="translate(-157.02 183.61) rotate(-15.09)" fill="#f4f4f4"/><rect x="624.18" y="631.82" width="8.47" height="60.87" transform="matrix(0.97, -0.26, 0.26, 0.97, -150.73, 186.42)" fill="#f4f4f4" opacity="0.2"/><rect x="620.58" y="634.59" width="8.47" height="28.65" transform="translate(-147.38 185.02) rotate(-15.09)" fill="#f4f4f4"/><rect x="652.56" y="663.87" width="8.47" height="60.87" transform="translate(-158.09 194.9) rotate(-15.09)" fill="#f4f4f4" opacity="0.2"/><rect x="650.75" y="673.28" width="8.47" height="28.65" transform="translate(-156.41 194.21) rotate(-15.09)" fill="#f4f4f4"/><rect x="671.88" y="662.34" width="8.47" height="60.87" transform="translate(-157.03 199.88) rotate(-15.09)" fill="#f4f4f4" opacity="0.2"/><rect x="673.65" y="685.03" width="8.47" height="28.66" transform="translate(-158.68 200.57) rotate(-15.09)" fill="#f4f4f4"/><rect x="680.33" y="620.49" width="8.47" height="60.87" transform="translate(-145.83 200.61) rotate(-15.09)" fill="#f4f4f4" opacity="0.2"/><rect x="682.7" y="645.4" width="8.47" height="28.65" transform="translate(-148.05 201.56) rotate(-15.09)" fill="#f4f4f4"/><rect x="705.7" y="641.37" width="8.47" height="60.87" transform="translate(-150.4 207.96) rotate(-15.09)" fill="#f4f4f4" opacity="0.2"/><rect x="704.49" y="652.99" width="8.47" height="28.65" transform="translate(-149.28 207.49) rotate(-15.09)" fill="#f4f4f4"/><rect x="719.96" y="621.07" width="8.47" height="60.87" transform="translate(-144.63 210.98) rotate(-15.09)" fill="#f4f4f4" opacity="0.2"/><rect x="718.15" y="630.48" width="8.47" height="28.66" transform="matrix(0.97, -0.26, 0.26, 0.97, -142.95, 210.28)" fill="#f4f4f4"/><rect x="731.24" y="589.72" width="8.47" height="60.87" transform="translate(-136.08 212.83) rotate(-15.09)" fill="#f4f4f4" opacity="0.2"/><rect x="727.05" y="590.28" width="8.46" height="28.66" transform="translate(-132.17 211.2) rotate(-15.09)" fill="#f4f4f4"/><rect x="759.68" y="621.99" width="8.47" height="60.87" transform="translate(-143.48 221.32) rotate(-15.09)" fill="#f4f4f4" opacity="0.2"/><rect x="757.27" y="629.18" width="8.46" height="28.66" transform="translate(-141.26 220.41) rotate(-15.09)" fill="#f4f4f4"/><rect x="785.04" y="642.86" width="8.47" height="60.87" transform="translate(-148.06 228.67) rotate(-15.09)" fill="#f4f4f4" opacity="0.2"/><rect x="782.63" y="650.05" width="8.46" height="28.66" transform="translate(-145.82 227.73) rotate(-15.09)" fill="#f4f4f4"/><rect x="795.05" y="606.79" width="8.47" height="60.87" transform="translate(-138.32 230.03) rotate(-15.09)" fill="#f4f4f4" opacity="0.2"/><rect x="796.82" y="629.48" width="8.47" height="28.65" transform="translate(-139.96 230.69) rotate(-15.09)" fill="#f4f4f4"/><rect x="804.49" y="568.61" width="8.47" height="60.87" transform="translate(-128.06 231.17) rotate(-15.09)" fill="#f4f4f4" opacity="0.2"/><rect x="807.46" y="595.72" width="8.47" height="28.66" transform="translate(-130.82 232.33) rotate(-15.09)" fill="#f4f4f4"/><rect x="831.84" y="596.87" width="8.47" height="60.87" transform="translate(-134.47 239.27) rotate(-15.09)" fill="#f4f4f4" opacity="0.2"/><rect x="830.04" y="606.28" width="8.47" height="28.65" transform="matrix(0.97, -0.26, 0.26, 0.97, -132.77, 238.53)" fill="#f4f4f4"/><rect x="852.88" y="601.69" width="8.47" height="60.87" transform="translate(-135 244.91) rotate(-15.09)" fill="#f4f4f4" opacity="0.2"/><rect x="855.25" y="626.59" width="8.47" height="28.66" transform="translate(-137.21 245.82) rotate(-15.09)" fill="#f4f4f4"/><rect x="866.33" y="578.39" width="8.47" height="60.87" transform="translate(-128.47 247.6) rotate(-15.09)" fill="#f4f4f4" opacity="0.2"/><rect x="862.14" y="578.95" width="8.47" height="28.66" transform="translate(-124.57 245.98) rotate(-15.09)" fill="#f4f4f4"/><rect x="889.67" y="591.77" width="8.47" height="60.87" transform="translate(-131.15 254.15) rotate(-15.09)" fill="#f4f4f4" opacity="0.2"/><rect x="886.67" y="596.75" width="8.47" height="28.66" transform="translate(-128.36 252.98) rotate(-15.09)" fill="#f4f4f4"/><rect x="905.93" y="578.88" width="8.47" height="60.87" transform="translate(-127.23 257.93) rotate(-15.09)" fill="#f4f4f4" opacity="0.2"/><rect x="902.34" y="581.65" width="8.47" height="28.66" transform="translate(-123.89 256.54) rotate(-15.09)" fill="#f4f4f4"/><rect x="926.37" y="581.47" width="8.47" height="60.87" transform="translate(-127.2 263.34) rotate(-15.09)" fill="#f4f4f4" opacity="0.2"/><rect x="929.93" y="610.8" width="8.47" height="28.65" transform="translate(-130.51 264.69) rotate(-15.09)" fill="#f9a846"/><rect x="525.92" y="801.26" width="159.63" height="4.94" fill="#999" stroke="#1a2e35" stroke-linecap="round" stroke-linejoin="round" transform="translate(-188.34 185.38) rotate(-15.09)"/></svg>