<svg xmlns="http://www.w3.org/2000/svg" xmlns:xlink="http://www.w3.org/1999/xlink" viewBox="0 0 1080 688"><defs><clipPath id="clip-path"><rect x="539.12" y="70.91" width="118.8" height="97.19" transform="translate(1198.14 233.3) rotate(179.45)" fill="none"/></clipPath><clipPath id="clip-path-2"><circle cx="671.15" cy="232.78" r="31.42" fill="none"/></clipPath><clipPath id="clip-path-3"><circle cx="375.97" cy="171.03" r="27.57" fill="none"/></clipPath></defs><title>ManualIllust2</title><g style="isolation:isolate"><g id="Layer_1" data-name="Layer 1"><path d="M422.79,487.57H306.13c-55.21,0-3,37.43,102.4,37.43,167.64,0,277.56-3.51,233.9-47.18Z" fill="#ffece5"/><path d="M715.19,491.37c158.9,20.7,177.67-110.68,152.92-165.1-21-46.14-78.92-83.19-117.61-73.69" fill="none" stroke="#41485d" stroke-miterlimit="10" stroke-width="0.2" stroke-dasharray="1.86"/><rect x="813.46" y="469.87" width="16.7" height="15.28" rx="4.09" fill="#52586b"/><path d="M819.77,475.38a2,2,0,0,1,4,0" fill="none" stroke="#fff" stroke-miterlimit="10" stroke-width="0.4"/><path d="M819.18,475.45h5.14a.91.91,0,0,1,.9.75l.65,3.42a.93.93,0,0,1-.91,1.09h-6.43a.92.92,0,0,1-.9-1.09l.64-3.42A.92.92,0,0,1,819.18,475.45Z" fill="none" stroke="#fff" stroke-miterlimit="10" stroke-width="0.4"/><path d="M255.62,418l28.69-9,60.13-.58-1.77,62.43a7,7,0,0,1-2.57,5L327,487.39l-67.46-.88a2.12,2.12,0,0,1-2.28-1.75Z" fill="#c69046"/><path d="M344.44,408.44l-1.77,62.43a7,7,0,0,1-2.57,5L327,487.39l-1.11-69.88Z" fill="#ae7d38"/><polygon points="344.44 408.44 284.31 409.02 255.62 417.97 325.83 417.57 344.44 408.44" fill="#e1a55f"/><polygon points="305.55 408.81 284.37 417.8 283.42 486.79 293.39 486.99 295 418.17 314.54 408.73 305.55 408.81" fill="#ae7d38"/><path d="M288.32,486.07c-.17-7.77.23-15.59.39-23.36.23-11.45.48-22.9.69-34.36.06-3.18.19-6.38.12-9.57a.09.09,0,0,0-.17,0c.18,7.77-.23,15.6-.39,23.37-.23,11.45-.48,22.9-.69,34.35,0,3.19-.19,6.39-.11,9.57,0,.11.17.11.16,0Z"/><path d="M293,416c1.83-.91,3.74-1.67,5.61-2.49l8.14-3.55c.79-.35,1.59-.68,2.37-1.07.09,0,0-.19-.09-.14-1.82.91-3.74,1.67-5.61,2.49l-8.14,3.55c-.79.35-1.59.68-2.36,1.07-.1,0,0,.19.08.14Z"/><polygon points="300.19 421.67 300.63 428.96 320.75 428.78 321.08 421.23 300.19 421.67" fill="#e1d3ca"/><path d="M302.68,426.19a1.74,1.74,0,0,1,.32-1.42c.93-.9.94-.26,1,.19l.15.69c.07.33.06.92.52.94s.69-.52.91-.82c.34-.47.94-.9,1.51-.27.07.07.09.2.16.28a.65.65,0,0,0,.33.21.61.61,0,0,0,.44-.07c.39-.19.49-.48,1-.54.76-.1,1.52.51,2.32.54,1.85.08,3.73-.09,5.58-.14.1,0,.1-.17,0-.17l-3.29.1a8.12,8.12,0,0,1-3.54-.27c-.54-.23-1-.48-1.59-.1-.1.07-.18.18-.28.24-.49.31-.74,0-1-.24s-.21-.27-.44-.32a1.23,1.23,0,0,0-1.19.49c-.14.17-.33.61-.5.71-.69.4-.68-.28-.75-.61a4.79,4.79,0,0,0-.28-1.27c-.22-.37-.58-.28-.89,0a2.11,2.11,0,0,0-.66,1.88c0,.1.18.1.17,0Z"/><path d="M296.05,417.87c8.82-.21,17.65.09,26.48-.12.16,0,.16-.26,0-.25-8.83.2-17.66-.09-26.48.12-.16,0-.16.26,0,.25Z"/><path d="M325.48,418.55a1.68,1.68,0,0,1,.09,1.48.13.13,0,0,0,.09.16.13.13,0,0,0,.15-.09,2,2,0,0,0-.11-1.68.13.13,0,0,0-.22.13Z"/><path d="M326.11,422.43c.15,7.08.16,14.17.24,21.26l.39,33.45c0,2.63,0,5.27.09,7.9a.13.13,0,0,0,.26,0c-.16-7.08-.17-14.17-.25-21.26l-.39-33.45c0-2.63,0-5.27-.09-7.9,0-.16-.26-.16-.25,0Z"/><path d="M327,417.17a5.39,5.39,0,0,0,1.73-.7c1.26-.59,2.5-1.21,3.74-1.83,2.85-1.43,5.68-2.89,8.51-4.34.76-.38,1.51-.82,2.29-1.15.15-.07,0-.28-.13-.22-1.85.8-3.62,1.84-5.41,2.76-2.78,1.42-5.54,2.84-8.35,4.19-.52.25-1.05.51-1.59.74a2.44,2.44,0,0,1-.79.3c-.16,0-.16.26,0,.25Z"/><path d="M344.36,411.26c-.22,2-.15,4-.21,6-.14,4.49-.26,9-.39,13.46q-.42,15.13-.86,30.27c-.07,2.45,0,5-.25,7.41,0,.17.24.16.26,0,.21-2,.14-4,.2-6,.14-4.49.26-9,.39-13.46q.42-15.13.86-30.27c.07-2.45,0-5,.25-7.42,0-.16-.24-.16-.25,0Z"/><path d="M261.29,418.57l25.81-.64,4.49-.11a.13.13,0,0,0,0-.25l-25.81.64-4.49.11a.13.13,0,0,0,0,.25Z"/><path d="M288.71,409.06c18.1-.44,36.21,0,54.31-.4a.13.13,0,0,0,0-.25c-18.1.44-36.21,0-54.31.4a.13.13,0,1,0,0,.25Z"/><path d="M262.64,486.63c16.5-.4,33,.2,49.52.26,3.86,0,7.73,0,11.6-.08a.13.13,0,0,0,0-.25c-16.5.4-33-.2-49.52-.26-3.86,0-7.73,0-11.6.08a.13.13,0,0,0,0,.25Z"/><g opacity="0.49"><rect x="398.75" y="84.99" width="73.55" height="52.4" rx="1.42" fill="#fdfdfd"/><path d="M398.82,87.65A2.64,2.64,0,0,1,401.47,85h68.25a2.65,2.65,0,0,1,2.65,2.65S398.82,87.82,398.82,87.65Z" fill="#ede9ed"/><path d="M398.85,124.9V93.23c0-1.65,0-3.3,0-4.94,0-1.36.44-2.67,1.85-3.11a12.32,12.32,0,0,1,3.64-.14c6,0,12,.07,17.94.07l20.23,0a.06.06,0,1,0,0-.12c-12.22,0-24.45-.06-36.68-.09-1.45,0-2.95-.11-4.4,0A2.76,2.76,0,0,0,399,86.54c-.52,1.22-.27,3-.27,4.28V124.9a.06.06,0,0,0,.11,0Z"/><path d="M399.55,97.06V88.18c0-.08-.05-.4,0-.46a11.3,11.3,0,0,1,2.46,0h6.19c2.11,0,4.23,0,6.34,0,2.71,0,5.41,0,8.12,0a.06.06,0,0,0,0-.11c-7.73,0-15.45,0-23.17,0a.06.06,0,0,0-.06.06v9.37a.06.06,0,1,0,.12,0Z"/><path d="M399.93,135.58c-.72-1.19-.28-3.4-.28-4.88V109.59a.06.06,0,1,0-.11,0v21c0,1.55-.49,3.71.29,5,0,.06.14,0,.1-.06Z"/><path d="M399.57,107.27v-7c0-.07-.12-.07-.12,0v7a.06.06,0,1,0,.12,0Z"/><path d="M423.82,87.76H435.3c.07,0,.07-.12,0-.12H423.82c-.07,0-.07.12,0,.12Z"/><path d="M467.49,85.14H470a2.49,2.49,0,0,1,1.53.59,2.43,2.43,0,0,1,.83,1.92c0,.07.12.07.12,0a2.48,2.48,0,0,0-1.76-2.49,5.34,5.34,0,0,0-1.83-.14h-1.35a.06.06,0,0,0,0,.12Z"/><path d="M446.86,85.14h18.9c.07,0,.07-.12,0-.12h-18.9c-.07,0-.07.12,0,.12Z"/><path d="M436.48,87.67h19.11a.06.06,0,1,0,0-.11H436.48a.06.06,0,0,0,0,.11Z"/><path d="M472.3,88.12v35.95a.06.06,0,0,0,.11,0V88.12a.06.06,0,0,0-.11,0Z"/><path d="M472.35,124.83v8.34a.06.06,0,0,0,.11,0v-8.34a.06.06,0,0,0-.11,0Z"/><path d="M470,136.69a1.79,1.79,0,0,0,1.33-.52,1.83,1.83,0,0,0,.49-1.35c0-.07-.12-.07-.12,0a1.67,1.67,0,0,1-.45,1.26,1.65,1.65,0,0,1-1.25.5.06.06,0,1,0,0,.11Z"/><circle cx="402.08" cy="86.36" r="0.48" fill="#a3bd73"/><circle cx="403.89" cy="86.36" r="0.48" fill="#e35155"/><circle cx="405.59" cy="86.36" r="0.48" fill="#ffc155"/><path d="M471,87.58h-9.24a.06.06,0,0,0,0,.11H471a.06.06,0,0,0,0-.11Z"/><path d="M403.54,136.73h34.74a.06.06,0,0,0,0-.11H403.54a.06.06,0,0,0,0,.11Z"/><path d="M448.36,136.73h20.56a.06.06,0,0,0,0-.11H448.36a.06.06,0,0,0,0,.11Z"/><rect x="424.3" y="114.92" width="318.21" height="175.75" rx="4.75" fill="#fdfdfd"/><path d="M424.53,123.82a8.88,8.88,0,0,1,8.88-8.89H733.85a8.89,8.89,0,0,1,8.89,8.89S424.53,124.39,424.53,123.82Z" fill="#ede9ed"/><path d="M487.09,114.75H443.15c-3.1,0-6.21,0-9.31,0a11.21,11.21,0,0,0-2,.2,8.9,8.9,0,0,0-6.46,4.86c-1.28,2.74-1.06,5.83-1.06,8.78V240.78c0,2.5-.24,5.14,0,7.63,0,.11,0,.23,0,.35a.13.13,0,0,0,.25,0V146.15c0-6.94-.05-13.88,0-20.82,0-3.3.93-6.7,3.77-8.67a9.92,9.92,0,0,1,5.54-1.66c14.18-.11,28.36,0,42.53,0h10.68a.13.13,0,1,0,0-.25Z"/><path d="M426.92,155.41V125.57c0-.32-.18-1.28,0-1.56a22.1,22.1,0,0,1,2.62.06h25.72q11,0,22.09.1c9,.07,18.09,0,27.14,0a.13.13,0,0,0,0-.25c-17.41,0-34.82-.13-52.23-.13H426.79a.13.13,0,0,0-.13.13v31.46a.13.13,0,0,0,.26,0Z"/><path d="M428.21,284.63c-1.17-1.55-1.16-3.69-1.22-5.56s.19-3.71.27-5.58c0-.19,0-.37,0-.56V197.41a.13.13,0,0,0-.25,0v75.42A10.51,10.51,0,0,1,427,274a36,36,0,0,0-.17,6.05c.09,1.65.18,3.4,1.21,4.76.1.12.32,0,.22-.13Z"/><path d="M427,189.64v-23.3a.13.13,0,0,0-.25,0v23.3a.13.13,0,1,0,.25,0Z"/><path d="M508.4,124.13h63.2a.13.13,0,0,0,0-.26H508.4a.13.13,0,0,0,0,.26Z"/><path d="M619,115.33H723.49a.13.13,0,0,0,0-.26H619a.13.13,0,0,0,0,.26Z"/><path d="M549.42,115.33h55a.13.13,0,0,0,0-.26h-55a.13.13,0,0,0,0,.26Z"/><path d="M500.54,115.23h40.64a.13.13,0,0,0,0-.25H500.54a.13.13,0,0,0,0,.25Z"/><path d="M615.4,123.85h71.07a.13.13,0,0,0,0-.26H615.4a.13.13,0,0,0,0,.26Z"/><path d="M742.56,125.41V246a.13.13,0,0,0,.26,0V125.41a.13.13,0,0,0-.26,0Z"/><path d="M742.74,248.55v28a.13.13,0,0,0,.25,0v-28a.13.13,0,1,0-.25,0Z"/><path d="M734.61,288.27a5.82,5.82,0,0,0,6-6.22c0-.16-.26-.16-.25,0a5.56,5.56,0,0,1-5.8,6c-.16,0-.16.25,0,.26Z"/><circle cx="435.47" cy="119.51" r="1.62" fill="#a3bd73"/><circle cx="441.55" cy="119.51" r="1.62" fill="#e35155"/><circle cx="447.23" cy="119.51" r="1.62" fill="#ffc155"/><path d="M738.2,123.66h-31a.13.13,0,0,0,0,.25h31a.13.13,0,0,0,0-.25Z"/><path d="M440.37,288.39H590.25a.13.13,0,0,0,0-.26H440.37a.13.13,0,0,0,0,.26Z"/><path d="M624.08,288.39H731.17a.13.13,0,0,0,0-.26H624.08a.13.13,0,0,0,0,.26Z"/><rect x="677.33" y="246.85" width="79.7" height="56.78" rx="1.54" fill="#fdfdfd"/><path d="M677.41,249.73a2.86,2.86,0,0,1,2.87-2.87h74a2.87,2.87,0,0,1,2.87,2.87S677.41,249.91,677.41,249.73Z" fill="#ede9ed"/><path d="M677.44,290.09V255.87c0-1.81,0-3.63,0-5.44,0-1.46.45-2.87,2-3.37a13.33,13.33,0,0,1,4-.15c6.49,0,13,.07,19.45.07l21.91,0a.07.07,0,0,0,0-.13c-13.25,0-26.49-.06-39.73-.09-1.58,0-3.19-.12-4.77,0a3,3,0,0,0-2.68,1.85c-.53,1.34-.26,3.24-.26,4.65v36.81a.06.06,0,1,0,.12,0Z"/><path d="M678.2,259.93v-4.08a40.25,40.25,0,0,1,0-5.6c0-.09-.06-.39,0-.46a8.19,8.19,0,0,1,1.18,0h8.44l6.85,0c2.85,0,5.71,0,8.57,0a.07.07,0,0,0,0-.13c-8.37,0-16.74,0-25.1,0a.06.06,0,0,0-.06.06v10.16a.06.06,0,0,0,.12,0Z"/><path d="M678.61,301.67c-.79-1.32-.3-3.59-.3-5.18v-23a.06.06,0,1,0-.12,0v22.84c0,1.68-.53,4,.32,5.38,0,.07.15,0,.1-.06Z"/><path d="M678.22,271v-7.53a.06.06,0,0,0-.12,0V271a.06.06,0,1,0,.12,0Z"/><path d="M704.5,249.85h12.44a.06.06,0,0,0,0-.12H704.5a.06.06,0,0,0,0,.12Z"/><path d="M751.82,247h2.67a2.71,2.71,0,0,1,1.65.64,2.65,2.65,0,0,1,.91,2.08.06.06,0,1,0,.12,0,2.83,2.83,0,0,0-.67-1.91,2.87,2.87,0,0,0-1.23-.79,6,6,0,0,0-2-.15h-1.47a.07.07,0,0,0,0,.13Z"/><path d="M729.47,247h20.47a.07.07,0,0,0,0-.13H729.47a.07.07,0,0,0,0,.13Z"/><path d="M718.22,249.76h20.71a.06.06,0,1,0,0-.12H718.22a.06.06,0,1,0,0,.12Z"/><path d="M757,250.24v38.95a.06.06,0,0,0,.12,0V250.24a.06.06,0,1,0-.12,0Z"/><path d="M757.09,290v9a.06.06,0,0,0,.12,0v-9a.06.06,0,1,0-.12,0Z"/><path d="M754.48,302.88a1.9,1.9,0,0,0,2-2c0-.08-.13-.08-.13,0a1.78,1.78,0,0,1-.49,1.37,1.8,1.8,0,0,1-1.36.53c-.08,0-.08.12,0,.13Z"/><circle cx="680.94" cy="248.34" r="0.52" fill="#a3bd73"/><circle cx="682.91" cy="248.34" r="0.52" fill="#e35155"/><circle cx="684.74" cy="248.34" r="0.52" fill="#ffc155"/><path d="M755.64,249.66h-10c-.07,0-.07.12,0,.12h10a.06.06,0,0,0,0-.12Z"/><path d="M682.52,302.92h37.65a.07.07,0,0,0,0-.13H682.52a.07.07,0,0,0,0,.13Z"/><path d="M731.09,302.92h22.28a.07.07,0,0,0,0-.13H731.09a.07.07,0,0,0,0,.13Z"/><path d="M783.21,207.67l-65.88.17-17.62,0a8.84,8.84,0,0,1-8.86-8.83h0a8.85,8.85,0,0,1,8.83-8.87l16.6,0,66.89-.17A8.85,8.85,0,0,1,792,198.8h0A8.85,8.85,0,0,1,783.21,207.67Z" fill="#faf5f7"/><path d="M717.33,207.84l-17.62,0a8.84,8.84,0,0,1-8.86-8.83h0a8.85,8.85,0,0,1,8.83-8.87l16.6,0Z" fill="#ff5d5f"/><circle cx="706.58" cy="196.84" r="3.46" fill="none" stroke="#fff" stroke-miterlimit="10" stroke-width="0.94"/><line x1="704.98" y1="199.81" x2="702.47" y2="204.22" fill="none" stroke="#fff" stroke-linecap="round" stroke-linejoin="round" stroke-width="0.94"/><path d="M699.68,190c-3.86.47-7.3,2.53-8.54,6.37a9.8,9.8,0,0,0-.39,4.27,6.4,6.4,0,0,0,1.73,3.57,10.89,10.89,0,0,0,3.6,2.87,9.69,9.69,0,0,0,4.49.66c.18,0,.18-.3,0-.28a8.9,8.9,0,0,1-7.34-2.85,6.84,6.84,0,0,1-2.14-3.61,9.15,9.15,0,0,1,2.39-8,10.38,10.38,0,0,1,6.2-2.74c.18,0,.18-.3,0-.28Z" fill="#3a3b44"/><path d="M732,190.08c5.79-.31,11.65,0,17.43,0q13.13.13,26.23.34l9.58.16a.14.14,0,0,0,0-.28c-15.28-.28-30.55-.51-45.83-.58-2.46,0-5-.08-7.41.05-.18,0-.18.29,0,.28Z" fill="#3a3b44"/><path d="M787.62,191.76a5.7,5.7,0,0,1,3.59,4.66c0,.18.3.18.28,0a6,6,0,0,0-3.79-4.94c-.17-.06-.24.21-.08.28Z" fill="#3a3b44"/><path d="M788.8,205.88a4.43,4.43,0,0,0,1.7-1.86c.08-.16-.17-.3-.25-.14a4.12,4.12,0,0,1-1.6,1.76c-.15.09,0,.33.15.24Z" fill="#3a3b44"/><path d="M765.16,207.33a135.81,135.81,0,0,0,14,0c.18,0,.18-.29,0-.28a135.81,135.81,0,0,1-14,0c-.18,0-.18.27,0,.28Z" fill="#3a3b44"/><path d="M716.77,202.1c-.41-2.89-.09-5.85-.5-8.75,0-.18-.3-.1-.27.08.41,2.89.09,5.85.5,8.75,0,.18.3.1.27-.08Z" fill="#3a3b44"/><path d="M711.18,190.41c4.37-.15,8.73-.27,13.09-.4l2.13-.07c.18,0,.18-.29,0-.28-4.36.15-8.73.26-13.09.4l-2.13.06a.15.15,0,0,0,0,.29Z" fill="#3a3b44"/><path d="M726.54,208c7.2-.18,14.41-.17,21.61-.26,1.12,0,2.23,0,3.34-.05a.14.14,0,1,0,0-.28c-7.2.18-14.41.18-21.61.26-1.12,0-2.23,0-3.34,0a.14.14,0,1,0,0,.28Z" fill="#3a3b44"/><circle cx="794.71" cy="227.03" r="9.6" fill="#f08a4f"/><path d="M798.62,225.55a1.46,1.46,0,0,0-1,.37l-3.37-2.55a1.46,1.46,0,0,0,.14-.63,1.47,1.47,0,1,0-1.47,1.47,1.45,1.45,0,0,0,.89-.3l3.41,2.57a1.42,1.42,0,0,0-.11.55,1.32,1.32,0,0,0,.08.44l-3.46,2.06a1.47,1.47,0,1,0,.57,1.16,1.44,1.44,0,0,0-.14-.62l3.38-2a1.47,1.47,0,1,0,1-2.51Z" fill="#fcfbfc"/><path d="M788.13,233.83c-2.62-2.82-4.07-7.09-2.19-10.66a10.28,10.28,0,0,1,6.83-5.42,11.14,11.14,0,0,1,7.06,1.21c.12.06.22-.12.1-.18-3.62-1.77-7.73-2-11,.55-2,1.53-3.91,4.08-4,6.69A11.12,11.12,0,0,0,788,234a.1.1,0,1,0,.15-.14Z"/><path d="M794.09,236.47c5.5,1.2,10.17-4.5,10.29-9.59a7.61,7.61,0,0,0-1.13-4.24c-.07-.12-.25,0-.18.1,3.52,5.64-2.09,15-8.92,13.53-.13,0-.19.17-.06.2Z"/><path d="M637.76,213.33s96.76-33.43,95.39-101C731.78,44.6,680,8.11,639.75,11c-114.4,8.12-104.47,109-104.47,109" fill="none" stroke="#41485d" stroke-miterlimit="10" stroke-width="0.2" stroke-dasharray="1.86"/></g><path d="M452.87,280.51c7.73-99.73-97.44-126.75-154.63-85-37.11,27.06-48.36,71.92-37.42,107.13,10.77,34.65,45.92,71.47,102.37,63" fill="none" stroke="#52586b" stroke-miterlimit="10" stroke-width="0.2" stroke-dasharray="1.86"/><path d="M228.27,489.63s-1.81-61.43,37.81-101.05,68.33-26.9,68.33-26.9" fill="none" stroke="#52586b" stroke-miterlimit="10" stroke-width="0.2" stroke-dasharray="1.86"/><rect x="258.55" y="222.85" width="16.7" height="15.28" rx="4.09" fill="#52586b"/><path d="M264.86,228.35a2,2,0,0,1,4,0" fill="none" stroke="#fff" stroke-miterlimit="10" stroke-width="0.4"/><path d="M264.27,228.42h5.15a.92.92,0,0,1,.9.75l.64,3.42a.92.92,0,0,1-.9,1.09h-6.43a.91.91,0,0,1-.9-1.09l.64-3.42A.92.92,0,0,1,264.27,228.42Z" fill="none" stroke="#fff" stroke-miterlimit="10" stroke-width="0.4"/><path d="M582,274.33s80.9,6.58,89.16-41.55" fill="none" stroke="#52586b" stroke-miterlimit="10" stroke-width="0.16" stroke-dasharray="1.86"/><path d="M714.81,397.5h6a3.45,3.45,0,0,1,3.45,3.45v45.43a0,0,0,0,1,0,0H711.36a0,0,0,0,1,0,0V401A3.45,3.45,0,0,1,714.81,397.5Z" fill="#ffc558"/><path d="M734.79,416.67h6a3.45,3.45,0,0,1,3.45,3.45v26.26a0,0,0,0,1,0,0H731.33a0,0,0,0,1,0,0V420.12A3.45,3.45,0,0,1,734.79,416.67Z" fill="#a9c6de"/><path d="M755.08,382.77h6a3.45,3.45,0,0,1,3.45,3.45v60.16a0,0,0,0,1,0,0H751.63a0,0,0,0,1,0,0V386.23A3.45,3.45,0,0,1,755.08,382.77Z" fill="#c4c058"/><path d="M777,370.94h6a3.45,3.45,0,0,1,3.45,3.45v72a0,0,0,0,1,0,0H773.5a0,0,0,0,1,0,0v-72A3.45,3.45,0,0,1,777,370.94Z" fill="#f75356"/><path d="M711.69,446V403.82a.19.19,0,0,0-.38,0V446a.19.19,0,0,0,.38,0Z"/><path d="M738.28,416.84a5.55,5.55,0,0,1,5.41,5.81c0,1.58,0,3.16,0,4.74V446a.19.19,0,0,0,.38,0c0-7.87.15-15.75,0-23.61a5.88,5.88,0,0,0-5.79-5.91c-.24,0-.24.37,0,.38Z"/><path d="M751.63,393.13V446a.19.19,0,0,0,.38,0V393.13a.19.19,0,0,0-.38,0Z"/><path d="M773.32,379.59v52a.19.19,0,0,0,.38,0v-52a.19.19,0,0,0-.38,0Z"/><path d="M778.6,371.33c2.16,0,4.16.13,5.79,1.76a6.21,6.21,0,0,1,1.76,4.36c0,1,0,2.06,0,3.09v65.85a.19.19,0,0,0,.38,0V380.65c0-1.09,0-2.19,0-3.28a6.55,6.55,0,0,0-2.34-5c-1.66-1.36-3.55-1.44-5.59-1.44a.19.19,0,0,0,0,.38Z"/><path d="M796.2,445.78h-95a.19.19,0,0,0,0,.38h95a.19.19,0,0,0,0-.38Z"/><path d="M544.9,190.06l4.27-.05,11.38-.1,92.91-.89a5.12,5.12,0,0,0,5.07-5.16L657.3,55.37a5.11,5.11,0,0,0-5.16-5.07l-108.56,1a5.12,5.12,0,0,0-5.07,5.16L539.74,185A5.11,5.11,0,0,0,544.9,190.06Z" fill="#faf5f7"/><rect x="539.12" y="70.91" width="118.8" height="97.19" transform="translate(1198.14 233.3) rotate(179.45)" fill="#ec9e58"/><line x1="623.12" y1="61.32" x2="566.56" y2="61.86" fill="none" stroke="#e5cbd5" stroke-miterlimit="10" stroke-width="1.04"/><circle cx="552.02" cy="61.6" r="6.17" fill="#a9c6de"/><path d="M554.05,185c5.91-.23,9.7-8.53,7.38-10.48-3.45-2.91-6.3,3-6.3,3s-2.44-4.85-5.83-3.84S549.19,185.22,554.05,185Z" fill="#ff383f"/><g opacity="0.4" style="mix-blend-mode:luminosity"><g clip-path="url(#clip-path)"><path d="M563.06,151.11s-34.75,3.44-41.92,29.76,40.57,53.52,96.17,32.54c25.36-9.57,23.45-30.15,23.45-30.15s-27.35-32.54-51-31.82S563.06,151.11,563.06,151.11Z"/><path d="M586.42,77.44s-2.89-11,1.8-12c15.2-3.33,21.48,14.47,24.16,22.76,0,.11,3.78,13.6-6,18.77C603.64,108.41,591.11,87,586.42,77.44Z" fill="#814718"/><path d="M597.12,76.61c3.73,3.72,14,4.13,14.49,16.3.3,8.2-7,13-7,13Z" fill="#553418"/><path d="M548.36,84.72c-2.65-.36-5.49.88-6.37,3.36s-6.2,23.9-5.31,33.47,1.41,15.93,11.33,26.91,13.28,9.91,15,2.65,3.36-14.69.88-23.37S548.36,84.72,548.36,84.72Z" fill="#814718"/><path d="M544.4,89.1s17.07,30,19.54,38.64.89,16.11-.88,23.37-5.14,8.33-15-2.65c0,0,4.22-2.21,5.3-8.64.34-2.06-7.54-18.17-7.54-18.17S534.65,99.11,544.4,89.1Z" fill="#553418"/><path d="M555,116.44c4.24,14.56,5.93,20.63,6.47,30.78.24,4.34,9.1,11.12,19.62,20.17,10.68,9.19,27.13,19.29,27.13,19.29.74.85-5.41-14.77-6.1-19.29a6.59,6.59,0,0,0-1.38-3.15c-2-2.41-5.82-7.24-6.2-8.07-1-2.21-4.66-4.22-4.74-4.73-.68-4.42-.13-5.6-1.6-12.24S555,116.44,555,116.44Z" fill="#ffceb0"/><path d="M581.05,167.39c-10.52-9-19.38-15.83-19.62-20.17-.54-10.15-2.23-16.22-6.47-30.78,0,0,28.1,17.76,29.57,24.39l-12.67-1.76a3.67,3.67,0,0,0-4.53,4.33l1.83,8.37Z" fill="#e9a983"/><path d="M600.22,83.24c7.57,16.55,5.8,58.28-5.36,58.28-9.52,0-27.06-2.1-33.14-16.85s-10.08-25.74-6-36.24c2-5.26,14.21-4.07,23.19-6.48S597.05,76.3,600.22,83.24Z" fill="#ffceb0"/><path d="M560.69,111s4.09.26,12.13-3.45,12.52-10.09,11.25-19.29-.77-9.83-.77-9.83l-6.39,3.7-16.48,21.33Z" fill="#e9a983"/><path d="M585.44,125.83c6.85-1.81,8.54-7.6,14.91-4.67,0,0-.88,1.74-6,3.61A17.36,17.36,0,0,1,585.44,125.83Z" fill="#db675e"/><path d="M584.61,127.3c.95,2.59,5,6.5,9.19,5.7,8.68-1.67,5.27-6.15,5.27-6.15Z" fill="#db675e"/><path d="M556.25,113.25s2.48,2,3.89-.53.68-7.46.68-7.46,5.52-2.28,6.4-8-1.77-7.08,3.55-11.5a28.64,28.64,0,0,1,12.88-6.08c.91-.19,8.47.61,9.41.68,1.59.11,5.9-6.35,8.91,2,0,0,1.93,5.27,0,.08-.85-2.33-9.72-5.35-10.9-7.12C589.56,73,585.72,65,573.67,65.52c-4.57.22-10.7,4-15.91,7.6-19,13.1-14.24,35.75-13.18,39.47s6.75,13.71,13.84,12.3Z" fill="#814718"/><path d="M557.63,113.51c-1.49-2.15-2.77-4.35-6.14-3s1.28,15.09,9.86,13.26C561.35,123.79,560.39,117.49,557.63,113.51Z" fill="#ffceb0"/><path d="M597.2,99.93a4.07,4.07,0,0,1,2-2.75,2.93,2.93,0,0,1,2.25,0,2,2,0,0,1,.78.5c.2.24.53-.1.33-.33a3,3,0,0,0-2-.86,3.39,3.39,0,0,0-2.71,1.13,5.72,5.72,0,0,0-1.14,2.2.24.24,0,0,0,.46.13Z"/><path d="M601.39,120.23a21.57,21.57,0,0,1-6.89,3.21c-3.94,1-7,2.12-11,2.11,0,0,2.07,6,10.59,4.29,6.1-1.21,4.93-3,4.93-3a12,12,0,0,1,.77-3.28C600.48,122.05,601.39,120.23,601.39,120.23Z"/><path d="M600.41,120.86a20.51,20.51,0,0,1-5.91,2.58c-3.94,1-7,2.12-11,2.11a42.53,42.53,0,0,0,5.34.7,19,19,0,0,0,9.47-2.07C599.66,123.35,600.73,120.66,600.41,120.86Z" fill="#fff"/><path d="M561.65,125.18c3.06,4.66,6.42,9.79,11.68,12.2,1.35.62,2.77,1.14,4.17,1.65a25,25,0,0,0,5.65,1.62c.21,0,.21-.3,0-.32a24,24,0,0,1-5.44-1.56c-1.41-.52-2.84-1-4.21-1.66-5.22-2.36-8.54-7.48-11.57-12.09-.11-.17-.39,0-.28.16Z"/><path d="M554.59,114.18l1.37,3.61c.06.16.33.09.26-.07l-1.37-3.61c-.06-.17-.33-.09-.26.07Z"/><path d="M593.42,118.47a11.54,11.54,0,0,1,3.73-1.32l-.13-.29a14.59,14.59,0,0,1-2.89,1.34l.15.27.42-.34c.13-.1,0-.3-.16-.26l-1,.28c-.14,0-.16.28,0,.3a9.84,9.84,0,0,0,2.6.08.16.16,0,0,0,.15-.2.83.83,0,0,1,.53-.86c.2-.06.11-.37-.08-.31a1.15,1.15,0,0,0-.76,1.26l.16-.21a9.58,9.58,0,0,1-2.51-.06v.3l1-.27-.16-.27-.41.33c-.13.1,0,.32.15.27a14.92,14.92,0,0,0,3-1.38.16.16,0,0,0-.13-.29,12,12,0,0,0-3.8,1.35.16.16,0,0,0,.16.28Z"/><path d="M596.14,118.15a2.21,2.21,0,0,0,1.64-2.12c.09-1.34-.79-2.42-1.36-3.55a51.06,51.06,0,0,1-1.87-4.76,10.46,10.46,0,0,1-1.07-3.21A29.22,29.22,0,0,1,594,98.9a.16.16,0,0,0-.31-.08,30.91,30.91,0,0,0-.51,5.17,5.3,5.3,0,0,0,.54,2.45c.63,1.69,1.26,3.38,1.93,5.06a13.84,13.84,0,0,0,.67,1.47c.74,1.32,2.24,4.32-.28,4.87-.2,0-.12.35.09.31Z"/><path d="M575.88,109.3c1.51-1.06,3.46-2.38,5.36-1.52.31.15.58-.31.27-.45-2.11-1-4.2.32-5.89,1.51-.28.2,0,.66.26.46Z"/><path d="M599.41,104.93a1.74,1.74,0,0,1,2.1-.44c.3.15.57-.3.26-.46a2.28,2.28,0,0,0-2.74.52.27.27,0,0,0,.38.38Z"/><path d="M558,126.6q1.84,8.53,3,17.22c0,.2.35.2.32,0q-1.12-8.72-3-17.31c0-.2-.36-.11-.31.09Z"/><path d="M556.72,125.52a21.36,21.36,0,0,1-8.62-5.29c-2.49-2.74-3.76-6.45-4.49-10-1.52-7.4-.46-15,.86-22.39,0-.21-.27-.29-.31-.09-1.38,7.69-2.48,15.73-.67,23.45.81,3.45,2.15,7,4.65,9.56a22.32,22.32,0,0,0,8.49,5.09c.19.07.28-.24.09-.31Z"/><path d="M563.53,90.19a1.61,1.61,0,0,0,1.64-.84.17.17,0,0,0,0-.22.16.16,0,0,0-.22.06,1.3,1.3,0,0,1-1.29.69.18.18,0,0,0-.2.11.17.17,0,0,0,.12.2Z"/><path d="M582.19,79.18c-3.48,3.23,1.51,8.57-.86,15.42-4.26,12.33-18.8,15.85-24.53,13.67,0,0,2.88-21.17,8.35-23.65S582.19,79.18,582.19,79.18Z" fill="#814718"/><path d="M580.76,83.08S578,75.86,582,74.7c6.83-2,11,6.15,11,6.15s-5.83-1.07-7.72-.67C581.61,81,580.76,83.08,580.76,83.08Z" fill="#553418"/><path d="M593.07,80.85s.65-6.89,2.79-7.7c4.07-1.56,15.4,6.69,15.48,17.61,0,2.75-8.53-8.16-13.21-9.88C595.32,79.85,593.56,80.43,593.07,80.85Z" fill="#553418"/><path d="M570.62,105a11.88,11.88,0,0,1,5.2-4.94c2-1,5-1.8,6.76,0,.21.22.54-.11.33-.34-1.76-1.86-4.74-1.23-6.82-.33a12.31,12.31,0,0,0-5.88,5.34c-.15.27.26.51.41.24Z"/><path d="M581.59,125.89c3.83.38,7.58-.81,11.21-1.88q2.84-.84,5.62-1.77a9.67,9.67,0,0,0,3.84-2c.15-.15-.08-.37-.23-.23-1.3,1.25-3.14,1.7-4.81,2.25s-3.25,1-4.88,1.51c-3.49,1-7.07,2.12-10.75,1.76-.21,0-.2.3,0,.32Z"/><path d="M552.33,82.66a21.34,21.34,0,0,0,7.36-2.13c.18-.09,0-.37-.16-.27a20.92,20.92,0,0,1-7.2,2.08c-.21,0-.21.34,0,.32Z"/><path d="M569.82,73.62c1.82-2.12,3.7-4.32,6.21-5.66a8.41,8.41,0,0,1,8.68.26c4.4,2.72,6.65,7.73,8.12,12.49.06.19.37.11.31-.09-1.57-5.07-4-10.46-9-13.07a8.42,8.42,0,0,0-7.62-.2c-2.86,1.28-5,3.71-7,6-.13.16.1.38.23.23Z"/><path d="M582.05,91c-.24-3.77-1.73-7.34-1.91-11.1-.1-2.07.5-4.08,2.55-4.94a5.59,5.59,0,0,1,5.79,1.3c.15.13.38-.09.23-.23a6.25,6.25,0,0,0-5.09-1.68A4.47,4.47,0,0,0,580,77.63c-.48,2,0,4.18.42,6.13A51.42,51.42,0,0,1,581.73,91c0,.2.34.2.32,0Z"/><path d="M557.08,107.64a9.56,9.56,0,0,0,9.14.64c.19-.09,0-.36-.16-.28a9.23,9.23,0,0,1-8.82-.63c-.17-.12-.33.16-.16.27Z"/><path d="M558.44,124.52a13.86,13.86,0,0,1-7.93-9.53c-.28-1-.87-2.48-.2-3.44a3.9,3.9,0,0,1,2.62-1.27c2.57-.42,4.11,1.92,5.65,3.59.14.15.36-.07.22-.22-1.18-1.29-2.45-3.18-4.24-3.66a4.83,4.83,0,0,0-4.41,1.24,2.25,2.25,0,0,0-.41,1.88,19.57,19.57,0,0,0,.84,3.2,14.37,14.37,0,0,0,2.74,4.92,13.74,13.74,0,0,0,5,3.6c.19.08.28-.23.09-.31Z"/><path d="M560.45,108.8a9.07,9.07,0,0,1-.72,3.48c-.08.19.2.35.28.16a9.49,9.49,0,0,0,.76-3.64.16.16,0,0,0-.32,0Z"/><path d="M547.49,85c.8-2.51,2.74-4.64,4.53-6.49a57.28,57.28,0,0,1,5.86-5.26c.17-.12-.06-.35-.22-.22a56.94,56.94,0,0,0-6.11,5.5c-1.74,1.84-3.59,3.93-4.37,6.38-.07.2.24.28.31.09Z"/><path d="M560.19,71.5c1.65-1.07,3.48-1.82,5.17-2.82A21.81,21.81,0,0,1,568,67.21c1-.42,2-.74,3-1.07a13,13,0,0,1,4.38-.49,12.07,12.07,0,0,1,4.72.84c.18.08.35-.19.16-.28a11.63,11.63,0,0,0-4.21-.85,14.25,14.25,0,0,0-4.65.31A21.09,21.09,0,0,0,565.83,68c-1.87,1.18-3.94,2-5.8,3.21-.17.11,0,.39.16.28Z"/><path d="M593.79,78.15c.13-1.37.34-3,1.35-4.05,1.22-1.25,3.18-.75,4.65-.3a14.33,14.33,0,0,1,7.6,5.74,26.53,26.53,0,0,1,3.84,8.62c.87,3.7.1,7.38-.73,11a.16.16,0,0,0,.31.08c.94-4.09,1.67-8.13.45-12.25a24.61,24.61,0,0,0-5.19-9.65A13.58,13.58,0,0,0,597.54,73c-3-.22-3.83,2.66-4.07,5.14,0,.2.3.2.32,0Z"/><path d="M607.58,106.52a18,18,0,0,0,3.53-3.72,10.45,10.45,0,0,0,1.6-4.54c0-.2-.29-.2-.31,0a10.3,10.3,0,0,1-1.64,4.5,18.43,18.43,0,0,1-3.41,3.54c-.15.13.08.36.23.22Z"/></g></g><path d="M636.14,189a32.86,32.86,0,0,1,5.87-.28c2.93-.07,5.85-.13,8.77-.34,1.81-.13,4.23-.09,5.87-1,1.42-.76,1.2-3.13,1.22-4.52.07-6.17,0-12.34,0-18.51q-.09-16.41-.19-32.84t-.19-33.1c0-6.29-.12-12.58-.06-18.88,0-.22,0-.44,0-.66s-.41-.27-.42,0c-.13,5.26,0,10.53,0,15.79q.07,15.73.18,31.48.11,16.72.2,33.45c0,7.22.09,14.45.08,21.67,0,.66,0,1.31,0,2,0,1.13.12,3.09-1,3.77a6.77,6.77,0,0,1-2.51.62c-5.31.78-10.74.53-16.09.79a11.59,11.59,0,0,0-1.86.17c-.26.06-.15.46.11.4Z"/><path d="M656.39,69.33c0-5.16.1-10.34-.1-15.48a3.92,3.92,0,0,0-2.14-3.76,9.1,9.1,0,0,0-4.88-.34c-.27,0-.27.44,0,.41a8.89,8.89,0,0,1,4.69.31c2.21,1,1.92,3.52,1.93,5.55L656,69.33a.21.21,0,0,0,.42,0Z"/><path d="M644.67,49.94l-37.57.36-7.09.06a.21.21,0,0,0,0,.42l37.56-.36,7.1-.07a.21.21,0,0,0,0-.41Z"/><path d="M562,50.68l-18.7.18a.21.21,0,0,0,0,.42L562,51.1a.21.21,0,0,0,0-.42Z"/><path d="M540.4,52.1c-2.72,1.82-2.16,6.08-2.19,9,0,3.59,0,7.18,0,10.77q0,12.72.33,25.42c.08,3.32.15,6.64.34,10,0,.27.43.27.42,0-.38-6.61-.43-13.25-.53-19.88-.11-7.94-.19-15.88-.15-23.83,0-1.5,0-3,0-4.5,0-2.23-.12-5.13,2-6.53.22-.15,0-.51-.21-.36Z"/><path d="M631.77,188.58l-24,.23-35.58.33-9.74.1a.21.21,0,0,0,0,.41l24-.23,35.58-.34,9.74-.09c.26,0,.26-.42,0-.41Z"/><path d="M549.19,189.65c-2,0-4.29.39-6.21-.17-2.84-.83-3-3.56-3.05-6l-.14-14.78-.41-42.77-.1-10.61a.21.21,0,0,0-.42,0l.29,29.72.36,38.24c0,2.46,0,5.19,2.64,6.38,2.05.95,4.87.48,7,.46a.21.21,0,0,0,0-.42Z"/><path d="M638,70.17l-22.53.22-32.24.3-9.41.09a.21.21,0,0,0,0,.42L596.34,71l32.23-.31,9.42-.09a.21.21,0,0,0,0-.42Z"/><circle cx="671.15" cy="232.78" r="31.42" fill="#efebee"/><polygon points="643.42 227.1 630.37 230.65 643.38 239.64 643.42 227.1" fill="#efebee"/><g clip-path="url(#clip-path-2)"><g opacity="0.5"><path d="M643.21,295.31a24.84,24.84,0,0,0-4.35-1,37.73,37.73,0,0,1-5.68-1.75,2.51,2.51,0,0,1,0-1.09c.06-.88,1-19.19,6.82-31.32,3.54-7.33,5.44-12.14,7.76-14.19,4.88-4.35,18.11-7.23,23.63-7.47,9-.39,18.49,3.28,23.19,7.53,8.57,7.74,14.81,39.23,16.34,44.5,0,0-1,5.81-8.13,6.31,0,0-6.68-8.29-7.89-10.56-1.78-3.34-3.34-8.21-5.65-12.79,0,0,0,10.67-.4,20.58-.28,6.82-.95,9.67-1.66,11.93-.14.42-32.06.62-35.22-1.27-1.87-1.11-1-10.94-1.08-15-.2-8.33-.22-18.62-.36-19.89Z" fill="#b8b9c3"/><path d="M661.67,218.63s-1.83,2.17.05,8.09l1.66-8.06Z" fill="#918f9f"/><path d="M665.41,236.93s-4-.49-3.95-8.34,1.67-12.14,4.36-14.46c6.66-5.73,13.32-1.64,15.7,2.43s-.68,12.79-1.17,14.57c-.35,1.24-1.84,3.32-2.07,4.54a6.32,6.32,0,0,0,.41,4.28s-15,8.42-14.37.33C664.34,240.13,665.41,236.93,665.41,236.93Z" fill="#e3dce1"/><path d="M649.77,244.17a70.48,70.48,0,0,0,.89,23.84.09.09,0,0,0,.18-.05,70.15,70.15,0,0,1-.89-23.74c0-.12-.16-.17-.18-.05Z" fill="#4a4f5f"/><path d="M678.77,214.92a4.55,4.55,0,0,1,3-.41.31.31,0,0,0,.37-.22.29.29,0,0,0-.21-.37,5.24,5.24,0,0,0-3.46.47c-.35.18,0,.71.31.53Z"/><path d="M679.51,211.85l-.11,1.45a.31.31,0,0,0,.62,0l.11-1.45a.31.31,0,0,0-.31-.31.33.33,0,0,0-.31.31Z"/><path d="M688.1,266.36c.17.2.18.09,0-.32s-.06-.54-.08-.81-.07-.81-.09-1.21q-.09-1.42-.06-2.85a39.78,39.78,0,0,1,4-16.84c.05-.1-.11-.2-.16-.09a40.48,40.48,0,0,0-3.63,23c0,.09.16.09.18,0a2.26,2.26,0,0,0,0-1,.09.09,0,0,0-.18.05Z" fill="#4a4f5f"/><path d="M663.4,240.07a2.6,2.6,0,0,0-.08,2.81,3.81,3.81,0,0,0,2.46,1.71.09.09,0,0,0,.05-.18,3.76,3.76,0,0,1-2.32-1.56,2.44,2.44,0,0,1,0-2.68c.07-.1-.09-.19-.16-.1Z" fill="#4a4f5f"/><path d="M667.87,244.74a7.5,7.5,0,0,0,1.83-.14c.12,0,.07-.2-.05-.18a7.63,7.63,0,0,1-1.78.13.1.1,0,0,0,0,.19Z" fill="#4a4f5f"/><path d="M672.06,244c3.65-.77,7.43-2.23,9.46-5.55.07-.11-.1-.2-.16-.1-2,3.29-5.75,4.71-9.35,5.47-.11,0-.06.2,0,.18Z" fill="#4a4f5f"/><path d="M664.29,220.75c-3.89-.25-5.48-1.39-6.92-5-.61-1.54-.93-6.47,1.33-7.42,1.32-.56,3,3.91,3,3.91A2.67,2.67,0,0,1,663,209c1.24-.59,3.18,1.07,3.19,2.84,0,0,.45-2.34,1.4-3.06s3.73,0,3.71,3.24c0,0,1.58-2.42,7.72,1.89s2.47,17.55.6,19.92a10.58,10.58,0,0,1-1.28-4.39s2.31-.46,2.31-3.59c0-3.51-2.34-2-2.63-1l-1.07.3-.32-2a5.21,5.21,0,0,1-3.79-2.85A50.05,50.05,0,0,1,664.29,220.75Z" fill="#918f9f"/></g></g><circle cx="667.04" cy="315.96" r="16.4" fill="#c4c058"/><text transform="translate(661.13 322.37) scale(1 0.95)" font-size="19.81" fill="#fff" font-family="Poppins-SemiBold, Poppins SemiBold" font-weight="600">$</text><path d="M655.81,327.56c-4.47-4.79-7-12.09-3.77-18.17a17.58,17.58,0,0,1,11.65-9.27c4.16-.85,8.35.22,12.09,2.05.2.1.38-.2.18-.3-6.22-3.05-13.29-3.41-19,1-3.37,2.62-6.58,6.93-6.78,11.34a18.91,18.91,0,0,0,5.33,13.6c.15.17.4-.08.25-.25Z"/><path d="M666,332.08c9.38,2,17.36-7.68,17.57-16.38a13,13,0,0,0-1.94-7.25c-.12-.19-.42,0-.3.18,6,9.63-3.57,25.65-15.24,23.11-.22-.05-.31.29-.09.34Z"/><path d="M571.23,360.74c8.51,14.19,12.3,37.84,22.7,39.25s24.12.48,24.12.48-4.73-15.14-5.2-25.54,7-47.76,10.88-88C627.14,251,571.23,360.74,571.23,360.74Z" fill="#8d8484"/><path d="M573.59,364.8l13.9,20s6.65,9.26,6.36,8.39-8.33-23.06,0-27.16Z"/><path d="M593.93,400l24.12.48s1.89,32.16,2.37,39.72-5.68,40.2-17,41.62S593.93,400,593.93,400Z" fill="#385d80"/><path d="M461.51,322A86.67,86.67,0,0,0,471,297.37c2.83-13.72,4.73-50.61,11.35-64.32s31.21-17,40.67-21.76l45.4-11.35S596,201.37,611,211.76c12.29,8.52,17.5,20.34,17,34.53s-8,84.18-12.29,97S607.6,365.53,593.88,366s-68-1.95-68-1.95l-46.28,10.8-3.85-10.8Z" fill="#c2b2a7"/><path d="M478.29,370.74l3.16,12.65s18.65.63,22.76-9.8,2.53-10.75,2.53-10.75Z" fill="#8d8484"/><path d="M486.94,299.45c1.28,6.39,6.05,24.13,4.93,38.49,0,0,.23,9-.67,10.09s-4.71,6.73-4.71,6.73,0-9-.23-23.55S486.94,299.45,486.94,299.45Z" fill="#8d8484"/><path d="M582.35,311.53c-2.37,2.19-5.52,6.9-3-4.93s3.35-17.36,7.09-18.34,10.06,18.53,10.06,18.53S587.48,306.79,582.35,311.53Z" fill="#8d8484"/><path d="M517.31,219.38a12.49,12.49,0,0,0-1.95,5.88A6.25,6.25,0,0,0,517.8,230c3.18,2.76,7.9,3.4,12,3.71,4.3.33,8.91-.53,13.12-1.37a40.43,40.43,0,0,0,9.73-3.1,25.15,25.15,0,0,0,8-6.08c.24-.28-.17-.69-.41-.41-3.86,4.37-9,6.92-14.56,8.36a75.21,75.21,0,0,1-10.75,1.83A30.17,30.17,0,0,1,522,231.7a9.81,9.81,0,0,1-5.55-4.22c-1.31-2.44,0-5.63,1.33-7.81a.29.29,0,0,0-.5-.29Z"/><path d="M540.55,96.44c-7.19-3-14.93-1.38-21.57,3.32s-16.31,1.92-20.73,13-11.91,17-7.73,35.26c2.62,11.45,15.64,20.33,11,36-2.62,8.84-12.35,13.15-14.49,22.08-2.61,10.87,7.17,8.47,9,17.22,1,4.8-15.65,7.83-19.12,21.17-1.57,6,0,8.95,2.1,10.36a8.67,8.67,0,0,1,3.73,7.74c-.3,4.31.26,9.85,4,13.63.42.42,1.32-14.31,3.15-21.51C494,239,505,245,508.28,232.93c3.62-13.29,22.6-16.36,23-27.1l-2.66-6.42Z" fill="#3f160b"/><path d="M559.26,155.51c1,14.66.47,39.73,5.2,44.93s-8.4,27.84-29.21,27.84-15.49-9.23-12.33-12.6c4.92-5.23,5.93-5.78,5.93-10.09,0-5.41-4-19.37-4-19.37Z" fill="#ffceb0"/><path d="M545.37,185l6.37,6.08-6.09,27.4s-5.42,8-13.17,9.63c0,0,15.78,1.92,25.34-9.08,14.14-16.27,6.92-31.27,6.92-32.65s-8.3-9.41-8.3-9.41Z" fill="#e69e79"/><path d="M525,198.5c-13.72,0-21.71-27-21.71-38.53,0-16-3.59-33.29,7.71-41.38,2.34-1.68,7,.63,7,.63s35.21-9,41.26,2.72c7.57,14.66,10.39,21.72,7.08,38.74S544.83,198.5,525,198.5Z" fill="#ffceb0"/><path d="M554.91,180.65a41.85,41.85,0,0,1-13.56,12.07c-.33.18,0,.68.3.5a42.52,42.52,0,0,0,13.77-12.28c.22-.3-.28-.59-.51-.29Z"/><path d="M516.29,179.72c-1.16-1.55-.14,5.73,4.84,5.55,11.67-.42,14-6.69,14-6.69S519.71,184.28,516.29,179.72Z" fill="#ff8765"/><path d="M516.29,179.72c-1.83-1,.14-2.56,2.42-1.42l2.28,1.14s1-2.14,4.69-2a92.23,92.23,0,0,1,9.4,1.14S523.41,183.71,516.29,179.72Z" fill="#ff8765"/><path d="M391,384.86c36.12,2.09,61-5.35,78.88-1.56,10.43,2.22,22.88-11.12,30-7.81,19.4,9-3.44,57.14-13.85,66.12S391,384.86,391,384.86Z" fill="#005b7e"/><polygon points="430.29 382.1 463.32 398.32 475.33 409.13 495.75 386.9 430.29 382.1"/><path d="M380.16,377.29c-14.19.95-22.7,7.57-23.65,25.54S391,443.5,395.77,445.4s61,27,61,27l34.52-27.43S453.47,408,425.09,394.79,391.06,376.57,380.16,377.29Z" fill="#ffceb0"/><path d="M431.88,398.3l14.29,19.43L454.73,431l6.62-7.77s5.48-3.2-1.6-6.85S431.88,398.3,431.88,398.3Z" fill="#e69e8d"/><path d="M460.69,472.21c6.48,4.43,22.51,9.89,34.11,14.67s17.06,7.5,22.86,11.6,10.92,5.8,15.69,4.43,7.85-30,7.85-30l-41.28-19.45Z" fill="#ffceb0"/><path d="M485.06,482.78l21.6-23.42s-5.25-5.05-9.49-2-27.86,14.33-29.08,15.75-1.21,2.82,2.63,3.83S485.06,482.78,485.06,482.78Z" fill="#e69e8d"/><path d="M565.08,355.06c17,15.63,33.11,34.53,45.41,73.31S609.07,488,585,492.69,480.9,443.5,480.9,443.5,547.58,339,565.08,355.06Z" fill="#007094"/><path d="M564.28,386.6C552.25,389,547,482.81,524,470S480.9,443.5,480.9,443.5s62.24-92.62,79.74-76.54Z" fill="#005b7e"/><path d="M580.29,432.45c4.36,59.67-67.21,32.76-37.53,47.42,17.1,8.44,33.37,14.55,42.19,12.82,24.12-4.73,37.83-25.54,25.54-64.32S580.29,432.45,580.29,432.45Z" fill="#307094"/><path d="M443.08,441.93c4.73,9,20.32,21,37.35,26.17,0,0,68.1-41.15,78-54.39s25.07-36.89,12.77-53-24.66-16.16-36.89-10.88c-17.5,7.57-49.14,47.27-54.86,53.44C467.66,416.07,443.08,441.93,443.08,441.93Z" fill="#007094"/><path d="M480.43,468.1c-17-5.2-32.16-15.61-36.89-24.6,0,0-9,11.36-25.54,23.65s-20.34,6.62-25.07,11.83-8.51,16.55-5.2,20.81,7.09,4.72,11.35,5.2,16.56.13,19.26-1.16c10.69-5.12,8.47-10.36,12.25-12.25S480.43,468.1,480.43,468.1Z" fill="#ffceb0"/><path d="M387.73,499.79c3.31,4.25,7.09,4.72,11.35,5.2s16.56.13,19.26-1.16c10.69-5.12,8.47-10.36,12.25-12.25s49.84-23.48,49.84-23.48a89.77,89.77,0,0,1-20.15-9c-2-1.21-2.72,1.87-4.67,3.21-5.87,4-14.29,14.7-32.82,25.27,0,0,1.34,8.69-10.24,11.58S387.73,499.79,387.73,499.79Z" fill="#e69e8d"/><path d="M418,467.15c-16.56,12.3-20.34,6.62-25.07,11.83s-8.51,16.55-5.2,20.81,7.09,4.72,11.35,5.2c0,0-3.21,3-18.22,0s-20.81-1.37-28.32-1-36.5,1.37-37.86-15,20.12-23.19,39.91-22.85,36.5,2.73,41.28,1.36,5.46-2.05,11.94-2.39S418,467.15,418,467.15Z" fill="#c2b2a7"/><path d="M314.68,488.92c1.36,16.38,30.36,15.36,37.86,15s13.31-2,28.32,1,18.22,0,18.22,0c-4.26-.48-8-.95-11.35-5.2s.47-15.61,5.2-20.81,8.51.47,25.07-11.83c0,0-3.05-2.74-10.91,2.12s-20.19,4.12-20.19,4.12-44.89-3.37-58.73,3S314.68,488.92,314.68,488.92Z" fill="#999292"/><path d="M333.55,291.4l109.18-9.1a8.32,8.32,0,0,1,8.58,5.61L484.84,386l-121.7,4.09-35.39-89.32A6.84,6.84,0,0,1,333.55,291.4Z" fill="#a7a7a7"/><path d="M335.31,297.43l102.51-8.54a7.83,7.83,0,0,1,8.05,5.27l31.47,92.06-114.25,3.84-33.22-83.85A6.44,6.44,0,0,1,335.31,297.43Z" fill="#d9d9d9"/><path d="M517,334.53c5.46-1.15,11.78,15.23,10.92,18.68l-10.63,10.35s-10.64,25-12.93,25.86-21.27,3.16-25.87,1.72-1.43-4,1.15-4.59c0,0-6.61,2-7.76,0s0-4.6,4.31-6,12.36-5.17,12.36-5.17,8.33-7.47,8.62-8.91-2-1.72-3.73-.57-6.33,6.32-14.37,9.77-8.91,4-10.06,2.87-.86-4.31,8.62-10.34c.83-.53,4.83-3.68,5.46-4.31,2.87-2.88.92-10.19,4.89-17,0,0,6.89-5.75,9.77-6.9s6.89-.28,11.2-2.29A69.07,69.07,0,0,1,517,334.53Z" fill="#ffceb0"/><path d="M478.19,386.22s-6.56,3,.32,4.92,18.17.26,18.17.26,10.88.05,13-8.57,8.05-18.06,8.05-18.06l-6.1,1.85S502,381,495.94,383.08Z" fill="#e69e8d"/><path d="M524.48,486.88c0,10.23,6.48,17.05,11.6,19.1s16.38,0,20.47,2,5.12,7.5,16.38,4.77,11.25-6.48,11.25-6.48l-.68-4.77s-7.12-37.86-13.6-40.25-14,4.43-21.2,7.15c-3.54,1.36-8.18,2.92-13.3,5.12S524.48,478.78,524.48,486.88Z" fill="#c2b2a7"/><path d="M524.48,486.88c0,10.23,6.48,17.05,11.6,19.1s16.38,0,20.47,2,5.12,7.5,16.38,4.77c5.46-1.32,5.75-2,5.55-3.46s-1.37-7.91-3.27-16.9c-1.53-7.22-5.73-18.53-9.81-24-3.82-5.09-9.53-2.73-16.7,0-3.54,1.36-8.18,2.92-13.3,5.12S524.48,478.78,524.48,486.88Z" fill="#999292"/><path d="M552.44,505.07c-3.3-5.23-7.56-16.87-6.79-25,0,0-10.08,1.74-9.69,13.77S552.44,505.07,552.44,505.07Z" fill="#7a7171"/><path d="M617.63,189c-10.33-12.46-15.22-6.53-18.48-14.84s14.67-23.14,1.09-29.67c-11.66-5.6-11.58-15-15.43-23.72-3.94-11.48-7.14-20.58-22.37-26.7-17.21-6.91-36.82,2.08-39.35,6.23s-6.65,13.26-6.65,13.26c1,8.24,5,21.21,20.56,22.91,9.93,1.08,6.23,5.59,8.66,12.27,2,5.45,6,8.5,3.8,13.16a22.68,22.68,0,0,1-3.31,7.52c-4.65,7.17,1.64,10.16,6.29,12.25s8.55,3.95,6.29,6.58c-5.58,6.48-14.72,10.61-15.51,16.89-1.41,11.35,11.44,14.14,10.47,17.71-6.69,7.22-12.63,15.34-12.69,19.82-.18,14.48,5.71,15.14,1.74,19-2.74,2.69,1.69,2.29,6-3.2,11-10.52,18.79.75,20.52-12.51,5-2.08,10.43-2.63,11.84-9.7,1-4.94-9-9.46-1.35-14.67,6.8-4.61,18.61-8.73,14.3-14.48-.91-1.22,2.72-1.8,9.8,3.21s20.21,18.1,20.21,18.1C622.45,221.36,628,201.48,617.63,189Z" fill="#3f160b"/><path d="M514.59,179.79a26.56,26.56,0,0,0,21.85-1.72.29.29,0,0,0-.29-.5,26,26,0,0,1-21.41,1.65c-.35-.13-.5.44-.15.57Z"/><path d="M518.19,173.23c-1.57-.26-4.6-1.15-4-3.29.45-1.48,1.57-2.65,2.15-4.07a40.71,40.71,0,0,0,2.36-12.32c0-.37-.56-.37-.58,0a49.26,49.26,0,0,1-1,7.56,20.55,20.55,0,0,1-2.15,6.12c-.64,1.07-1.84,2.66-1.33,4,.63,1.66,2.83,2.31,4.39,2.57.37.07.52-.5.15-.56Z"/><path d="M505,145.93a5.27,5.27,0,0,1,3.13-2.11,4,4,0,0,1,2.26,0,3.51,3.51,0,0,1,2,1.73.29.29,0,0,0,.5-.3,4.2,4.2,0,0,0-2.17-1.94,4.41,4.41,0,0,0-2.57-.06,6.93,6.93,0,0,0-2.29,1.06,4.32,4.32,0,0,0-1.34,1.35c-.18.33.33.63.5.3Z"/><path d="M529.2,145.22c1.34-2.42,3.95-2.74,6.45-2.19a27.55,27.55,0,0,1,8.05,3.58c.32.2.61-.31.29-.5-3.89-2.36-12.13-6.92-15.3-1.18-.18.33.33.62.51.29Z"/><path d="M535.07,153.75a1.75,1.75,0,0,0,.86,2.55.3.3,0,0,0,.33-.14,2.84,2.84,0,0,0,.24-2.68.9.9,0,0,0-.51-.5.57.57,0,0,0-.66.26,1.5,1.5,0,0,0-.15.67,2.75,2.75,0,0,0,0,.7,3.26,3.26,0,0,0,.66,1.48.3.3,0,0,0,.46-.06,2,2,0,0,0-.11-2.15.29.29,0,0,0-.4-.1.28.28,0,0,0-.1.39,1.41,1.41,0,0,1,.11,1.56l.45-.06a2.71,2.71,0,0,1-.51-1.21,2.74,2.74,0,0,1,0-.64c0-.09,0-.17.05-.26s0,0,0,0,0,0,0,0,.21.35.25.49a2.62,2.62,0,0,1,.07.62,2.29,2.29,0,0,1-.39,1.22l.33-.14a1.08,1.08,0,0,1-.64-.71,1.07,1.07,0,0,1,.13-1,.29.29,0,0,0-.11-.39.29.29,0,0,0-.4.1Z"/><path d="M508.52,153.75a1.75,1.75,0,0,0,.86,2.55.3.3,0,0,0,.33-.14,2.81,2.81,0,0,0,.23-2.68.85.85,0,0,0-.5-.5.57.57,0,0,0-.66.26,1.38,1.38,0,0,0-.15.67,2.75,2.75,0,0,0,0,.7,3.15,3.15,0,0,0,.66,1.48.3.3,0,0,0,.46-.06,2,2,0,0,0-.11-2.15.29.29,0,0,0-.4-.1.28.28,0,0,0-.1.39,1.41,1.41,0,0,1,.1,1.56l.46-.06a2.6,2.6,0,0,1-.51-1.21,2.74,2.74,0,0,1,0-.64c0-.09,0-.17,0-.26s0,0,0,0,0,0,0,0,.21.35.24.49a1.88,1.88,0,0,1,.07.62,2.2,2.2,0,0,1-.38,1.22l.33-.14a1,1,0,0,1-.64-.71,1.1,1.1,0,0,1,.12-1,.28.28,0,0,0-.1-.39.29.29,0,0,0-.4.1Z"/><path d="M486.15,272.25c-1.09,8.48-.2,17,1.07,25.45,1.43,9.46,3.32,18.86,4.2,28.41a109.8,109.8,0,0,1,.32,17c0,.38.56.38.59,0,.6-9.72-.37-19.4-1.85-29-1.41-9.13-3.29-18.22-4-27.44a71.74,71.74,0,0,1,.24-14.43c0-.37-.53-.37-.58,0Z"/><path d="M473.58,326a23.65,23.65,0,0,1,7.77,5.78c.25.28.66-.13.42-.41a24.06,24.06,0,0,0-7.9-5.88c-.33-.15-.63.35-.29.51Z"/><path d="M587.69,233.88c-11.07,19.45-3.56,42.53-6.22,63.51a39.6,39.6,0,0,1-2,9.26c-.83,2.16-1.42,3.82-1.1,6.18,0,.37.61.21.56-.16-.32-2.38.44-4,1.23-6.21a39.29,39.29,0,0,0,1.76-7.83,97.36,97.36,0,0,0,.74-16.1c-.25-10.65-1.37-21.37.19-32a46.58,46.58,0,0,1,5.37-16.39c.19-.32-.32-.62-.5-.29Z"/><path d="M582.32,266.15a23.3,23.3,0,0,1,5.33-13.06c.24-.29-.17-.7-.42-.41a24,24,0,0,0-5.49,13.47c0,.37.55.37.58,0Z"/><path d="M577.31,318.43a18.77,18.77,0,0,1,17.36-1.85,33.75,33.75,0,0,1,8.65,5.69,63.39,63.39,0,0,1,6.92,6.79c.25.28.66-.13.41-.41a63.22,63.22,0,0,0-7.77-7.49,31.61,31.61,0,0,0-8.42-5.29A19.37,19.37,0,0,0,577,317.93c-.31.2,0,.71.3.5Z"/><path d="M591.42,320.67a16.13,16.13,0,0,1,5.44,4.78c.22.31.72,0,.5-.29a16.72,16.72,0,0,0-5.65-5c-.33-.18-.62.32-.29.5Z"/><path d="M523,334.05c2.14-3.41,5.18-5.83,9.27-6.22,3.51-.32,7,.56,10.43,1.31A39.56,39.56,0,0,0,553,330.5c4-.17,8-1.73,11.67-3.39,4.45-2,8.62-4.64,13.09-6.62.34-.16,0-.66-.29-.51-4,1.78-7.75,4-11.67,5.95s-8.57,3.88-13.11,4c-7.14.2-14-3.62-21.18-2.59-4,.57-6.94,3.08-9,6.41-.2.32.31.62.51.3Z"/><path d="M577.1,317.28c4.43-8.28,14.57-9.64,23-10.24.37,0,.37-.61,0-.58-8.64.61-19,2.05-23.5,10.52-.18.34.32.63.5.3Z"/><path d="M521.09,217.1c-1.36,3.66-.48,8,3,10.11a13.29,13.29,0,0,0,5.64,1.45,29.72,29.72,0,0,0,6.11.12c.37,0,.38-.62,0-.58a28,28,0,0,1-5.34,0A15.28,15.28,0,0,1,525,227c-3.74-1.79-4.76-6.07-3.39-9.77.13-.35-.43-.5-.56-.15Z"/><path d="M539.71,228.28a20.6,20.6,0,0,0,7.77-2.42l8.42-4.06c.33-.17,0-.67-.3-.51l-7.9,3.82c-2.54,1.22-5.13,2.44-8,2.58-.38,0-.38.61,0,.59Z"/><path d="M519.24,335.4c6.55,2.42,9.76,9.88,10.46,16.36,0,.37.63.37.59,0-.73-6.76-4.07-14.4-10.9-16.92-.35-.13-.5.43-.15.56Z"/><path d="M522.87,333.83a19.84,19.84,0,0,1,9.45,16.65.29.29,0,0,0,.58,0,20.41,20.41,0,0,0-9.74-17.15.29.29,0,0,0-.29.5Z"/><path d="M489.18,374.84c5.22-2.88,8.87-7.72,12.36-12.42.22-.3-.28-.59-.51-.29-3.42,4.61-7,9.38-12.14,12.21a.29.29,0,0,0,.29.5Z"/><path d="M481.18,386.52c7.68-.66,15.41-1.71,20.86-7.71a108.35,108.35,0,0,0,8.29-10.55c2.17-3.09,4.44-6.78,3.28-10.7a.29.29,0,0,0-.56.16c1.2,4.07-1.53,7.87-3.78,11a97.77,97.77,0,0,1-7.94,10c-5.27,5.66-12.82,6.6-20.15,7.23-.37,0-.37.61,0,.58Z"/><path d="M490.14,392.48c4.09-.67,8.37-1.06,12.38-2.1,3.34-.87,5.31-3.27,6.84-6.23a195.89,195.89,0,0,0,10-23.35c.13-.36-.43-.51-.56-.16a216.64,216.64,0,0,1-9.56,22.54,17.67,17.67,0,0,1-2.66,4.2,8.67,8.67,0,0,1-4.78,2.58c-3.88.84-7.86,1.32-11.77,2-.37.06-.22.62.15.56Z"/><path d="M484.52,361.33l16.25-12.58c.29-.23-.12-.64-.42-.41l-16.24,12.58c-.3.23.11.64.41.41Z"/><path d="M472.57,382.15a4.06,4.06,0,0,0-1.18,2.87,2.61,2.61,0,0,0,1.52,2,7,7,0,0,0,2.93.59,10.4,10.4,0,0,0,3.66-.59c.35-.12.2-.69-.16-.56a9,9,0,0,1-5.72.23,2.27,2.27,0,0,1-1.61-1.52,3.22,3.22,0,0,1,1-2.62c.25-.28-.16-.7-.41-.41Z"/><path d="M475.9,388.73c-.31,2.28,2.08,3.21,4,3.25a51,51,0,0,0,8-.56c.37,0,.37-.63,0-.58a64.24,64.24,0,0,1-6.5.54,9.67,9.67,0,0,1-3-.19,2.3,2.3,0,0,1-1.85-2.31c.05-.36-.51-.52-.56-.15Z"/><path d="M469.59,376.53c-.65,2.07,3,2.13,4.11,2,2.74-.4,5-2.18,7.37-3.54a76.5,76.5,0,0,0,7.65-4.44,78.4,78.4,0,0,0,7.19-6.82c.27-.26-.15-.67-.41-.41-2,1.91-3.87,3.89-5.89,5.74a28.79,28.79,0,0,1-6.13,4c-2,1.07-3.91,2.27-5.88,3.39a12.26,12.26,0,0,1-3.31,1.42c-.72.17-4.66.57-4.14-1.1a.29.29,0,0,0-.56-.16Z"/><path d="M506.24,350.36a10.12,10.12,0,0,1,.76,5.27c0,.37.54.37.58,0a10.61,10.61,0,0,0-.84-5.56c-.15-.34-.65-.05-.5.29Z"/><path d="M511.12,354.34l1.06,1.31a.29.29,0,0,0,.41-.41l-1.05-1.31a.3.3,0,0,0-.42,0,.31.31,0,0,0,0,.41Z"/><path d="M517.22,359.32c.12.07.24.14.35.22l.08,0,.05,0s-.05,0,0,0l.17.13.29.28.14.16.06.07h0l0,.06a.34.34,0,0,0,.18.13.28.28,0,0,0,.22,0,.3.3,0,0,0,.11-.4,4.42,4.42,0,0,0-1.37-1.21.29.29,0,0,0-.3.5Z"/><path d="M496.47,376l1.88,3.05c.2.32.7,0,.5-.29l-1.88-3c-.2-.32-.7,0-.5.29Z"/><path d="M503.75,386.59l.85,1.94a.3.3,0,0,0,.4.11.31.31,0,0,0,.11-.4l-.86-1.94a.29.29,0,1,0-.5.29Z"/><path d="M485.32,366.48a7.24,7.24,0,0,1,1.86,1.8.31.31,0,0,0,.4.1.29.29,0,0,0,.11-.4,8.07,8.07,0,0,0-2.08-2,.29.29,0,0,0-.4.1.31.31,0,0,0,.11.4Z"/><path d="M580.54,366c9.9.78,22.56.8,29.61-7.43,6.35-7.41,7.08-17.27,8.11-26.5a125.09,125.09,0,0,1,2.41-16.25c.09-.36-.48-.52-.57-.15-2.17,8.83-2.31,18.05-3.75,27a34.74,34.74,0,0,1-4.74,12.92c-3.08,4.89-7.78,7.7-13.33,9-5.78,1.36-11.85,1.28-17.74.82-.37,0-.37.55,0,.58Z"/><path d="M622.72,227.11a46.75,46.75,0,0,1,4.95,16.09,72.09,72.09,0,0,1-.4,16.08c-1.3,11.28-3.27,22.48-4.7,33.75-.78,6.12-1.45,12.26-1.79,18.42,0,.38.57.37.59,0,.63-11.62,2.36-23.16,4-34.66.8-5.48,1.65-11,2.32-16.44a76.83,76.83,0,0,0,.6-16.39,47.36,47.36,0,0,0-5.11-17.14c-.17-.34-.67,0-.5.29Z"/><path d="M521.29,267.65,514.39,290c-.11.36.45.52.57.16l6.9-22.31c.11-.36-.45-.51-.57-.16Z"/><path d="M599.66,399.89,614,401c1.34.1,3,.38,3.64-1.08s.07-3.61-.29-5.1c-1-4.08-2.88-7.87-3.71-12a49.56,49.56,0,0,1-.78-12.34,62.1,62.1,0,0,1,2.14-13.4.3.3,0,0,0-.57-.15,60.52,60.52,0,0,0-2,21.63,43.27,43.27,0,0,0,2.45,10.52,58.77,58.77,0,0,1,1.91,5.9,17.28,17.28,0,0,1,.53,3.19,3.23,3.23,0,0,1-.12,1.28c-.44,1-1.27,1.1-2.21,1-5.11-.31-10.21-.78-15.31-1.17-.38,0-.37.56,0,.59Z"/><path d="M513.68,294.18c-1.45,5.5-1.73,15.34.58,15.63s5.5-3.19,5.5-3.19,2.32-36.75,1.45-35.89S513.68,294.18,513.68,294.18Z" fill="#8d8484"/><path d="M469.66,323.13s11.89,6.73,14.58,11.89c0,0-2.24-11.44-6.5-13.24C474.41,320.38,469.66,323.13,469.66,323.13Z" fill="#8d8484"/><path d="M525.54,493.72a17.62,17.62,0,0,0,14.87,13.68c4.44.61,9,0,13.37.84s7.47,3.78,11.49,5.27c4.66,1.71,9.16-1,13.56-2.32a.29.29,0,0,0-.16-.56c-3.88,1.13-8.1,3.72-12.26,2.63-3.84-1-6.81-4-10.61-5.13s-7.76-.89-11.64-1c-4-.13-7.93-.84-11.28-3.23a17,17,0,0,1-6.78-10.31c-.07-.37-.64-.21-.56.15Z"/><path d="M567.89,474.41a54.11,54.11,0,0,1,6.58,15.53c1.58,5.64,2.91,11.36,4.33,17.05.09.36.65.21.56-.16-1.46-5.82-2.81-11.69-4.45-17.47a53.91,53.91,0,0,0-6.52-15.25c-.21-.31-.71,0-.5.3Z"/><path d="M583.3,508.8c1.38-3.16.59-6.76-.07-10-.83-4.08-1.54-8.18-2.56-12.23s-2.23-8-3.62-11.87a84.37,84.37,0,0,0-4.63-11.41,6.62,6.62,0,0,0-3.55-3.43,3.82,3.82,0,0,0-4,.84c-.26.27.15.68.41.41,2-2.05,4.87-.32,6.14,1.61a35.1,35.1,0,0,1,2.82,6.21c1.73,4.29,3.28,8.65,4.58,13.09A134.48,134.48,0,0,1,582,495.63c.73,4,2.51,8.91.76,12.88-.14.34.36.63.51.29Z"/><path d="M525,485.52c.54-6.8,6.71-10.92,12.54-13.12,3.11-1.16,6.33-2.09,9.53-3a70.57,70.57,0,0,1,10.27-2.3c.37-.05.22-.61-.15-.56a75.76,75.76,0,0,0-11.43,2.64,93.61,93.61,0,0,0-10.07,3.36c-5.49,2.34-10.76,6.64-11.27,13,0,.37.55.37.58,0Z"/><path d="M561.11,467a11,11,0,0,1,4.35,3.57c.21.3.72,0,.5-.29a11.62,11.62,0,0,0-4.56-3.78c-.34-.15-.63.35-.29.5Z"/><path d="M553.74,465.51l1.63-1.16a.3.3,0,0,0,.11-.4.29.29,0,0,0-.4-.1L553.45,465a.3.3,0,0,0-.11.4.29.29,0,0,0,.4.1Z"/><path d="M545.59,485.29a40.35,40.35,0,0,0,1.91,9.16c.12.35.68.2.56-.16a39.94,39.94,0,0,1-1.89-9c0-.37-.62-.37-.58,0Z"/><path d="M315.92,485.83c-2.39,5.33,1.37,10.5,5.85,13.18,5.16,3.08,11.24,4.31,17.19,4.55,6.46.27,12.91-.44,19.37-.49a125.51,125.51,0,0,1,22.07,1.79c3.49.59,6.93,1.56,10.44,2,2.93.39,6,.27,8.42-1.59.29-.23,0-.74-.3-.51-2.43,1.86-5.48,1.91-8.4,1.48s-5.71-1.19-8.57-1.71a126.47,126.47,0,0,0-19.31-2c-6-.16-12.05.29-18.08.46-5.81.16-11.67-.12-17.2-2.05a22.13,22.13,0,0,1-8.71-5.05c-2.47-2.56-3.79-6.37-2.27-9.76.16-.34-.35-.64-.5-.3Z"/><path d="M391.26,504c-3.32-1.77-4.8-5.65-4.62-9.27s1.85-7.21,3.34-10.45c.78-1.68,1.48-3.65,2.85-4.94a10.92,10.92,0,0,1,5.44-2.34,32.54,32.54,0,0,0,5.24-1.27,25.72,25.72,0,0,0,4.47-2.27c3.46-2.16,6.6-4.8,10.23-6.68.34-.17,0-.68-.29-.5-3.58,1.85-6.68,4.43-10.08,6.57a23.41,23.41,0,0,1-5.56,2.69c-1.92.59-3.94.76-5.87,1.31a8.83,8.83,0,0,0-4.55,2.68,22.57,22.57,0,0,0-2.61,5c-1.49,3.3-3.13,6.91-3.2,10.59s1.53,7.62,4.91,9.42c.34.18.63-.33.3-.5Z"/><path d="M317.17,484.41a16.1,16.1,0,0,1,6.5-6.25c5.89-3.13,13-4.1,19.5-4.79,6.76-.72,13.58-1,20.38-1a.29.29,0,0,0,0-.58c-10.5.09-21.31.39-31.58,2.84-4.44,1.06-9.18,2.61-12.54,5.86a16.7,16.7,0,0,0-2.76,3.65.29.29,0,0,0,.5.29Z"/><path d="M372.46,472.74c1.69.07,3.3-.45,5-.45,1.19,0,2.38.15,3.56.26,3.69.35,7.37.71,11.08.73a26.5,26.5,0,0,0,10.69-1.77,41.11,41.11,0,0,0,4.12-2.13c.84-.48,1.88-1.25,2.88-1.19.38,0,.38-.56,0-.58a4.37,4.37,0,0,0-2.22.73c-1.23.66-2.42,1.4-3.68,2a25.56,25.56,0,0,1-11.79,2.33c-3.66,0-7.29-.38-10.93-.72-1.2-.11-2.41-.26-3.63-.27-1.69,0-3.33.52-5.05.45-.37,0-.37.56,0,.58Z"/><path d="M355,494.07a20.27,20.27,0,0,0,1.3-4.72.3.3,0,0,0-.21-.36.3.3,0,0,0-.36.2,19.87,19.87,0,0,1-1.3,4.73c-.14.34.43.5.57.15Z"/><path d="M424.07,462.32c6.63-7,13.57-13.69,20.4-20.49,8.72-8.69,17.26-17.55,25.48-26.71Q479,405,487.69,394.43c.24-.29-.17-.7-.41-.41-9.49,11.53-19.36,22.76-29.67,33.58-7.48,7.85-15.21,15.44-22.9,23.08-3.73,3.7-7.44,7.42-11,11.23-.26.27.15.68.41.41Z"/><path d="M430.1,492.35c8.5-4.48,17.21-8.58,25.82-12.82,10.72-5.28,21.46-10.55,32-16.22a124.3,124.3,0,0,0,11.91-7c.31-.22,0-.72-.29-.51a114,114,0,0,1-10.22,6.06c-4.94,2.69-9.94,5.27-15,7.82-10.67,5.41-21.43,10.64-32.16,15.92-4.14,2-8.29,4.06-12.37,6.21-.33.18,0,.68.29.51Z"/><path d="M512.07,447.71A290.8,290.8,0,0,0,557,415.54c.28-.24-.13-.65-.41-.41a289.5,289.5,0,0,1-44.81,32.08.29.29,0,0,0,.3.5Z"/><path d="M564.23,407.87a129.77,129.77,0,0,0,15.88-21c.19-.32-.31-.61-.51-.29a129.69,129.69,0,0,1-15.78,20.87c-.25.27.16.69.41.41Z"/><path d="M549.93,421.75q16.37-8.89,31.82-19.29c.31-.21,0-.71-.29-.5Q566,412.34,549.64,421.25c-.33.17,0,.68.29.5Z"/><path d="M553.05,424.68a36.11,36.11,0,0,0,14.6-5.55c.31-.21,0-.71-.29-.51a35.82,35.82,0,0,1-14.47,5.5c-.37.05-.21.61.16.56Z"/><path d="M440.63,439.56c4.6,7.13,10.31,13.87,17.58,18.38a115.52,115.52,0,0,0,11.66,6.13,30.69,30.69,0,0,0,11.82,3.36c.38,0,.38-.56,0-.58-4.29-.17-8.3-1.73-12.14-3.57a119,119,0,0,1-11.05-5.85c-7.18-4.45-12.82-11.12-17.37-18.16-.2-.32-.7,0-.5.29Z"/><path d="M450.6,442.08a33.45,33.45,0,0,0,11.83,10.4c.33.18.63-.33.3-.5a32.72,32.72,0,0,1-11.63-10.2c-.22-.3-.72,0-.5.3Z"/><path d="M470,458.51q8.39,3.57,17,6.6c.35.13.5-.43.15-.56q-8.52-3-16.85-6.55c-.34-.14-.63.36-.29.51Z"/><path d="M392,503.23a60.52,60.52,0,0,0,22.64.85,23,23,0,0,0,9.28-3.15,16.9,16.9,0,0,0,5.91-7.42c.15-.34-.35-.63-.5-.29a16.33,16.33,0,0,1-6.05,7.43,24,24,0,0,1-9.24,2.93,59.66,59.66,0,0,1-21.88-.91c-.37-.08-.52.48-.16.56Z"/><path d="M464.41,420.22a225.67,225.67,0,0,0-41.85-27.14c-.33-.17-.63.34-.29.5A225.17,225.17,0,0,1,464,420.63c.29.23.7-.18.41-.41Z"/><path d="M466,475.4q20.71,8.81,42,16.26c.36.12.51-.44.16-.57q-21.17-7.41-41.83-16.19c-.34-.15-.63.35-.29.5Z"/><path d="M514.22,495.77c5.25,3.85,10.95,7.83,17.68,8.14.37,0,.37-.57,0-.58-6.62-.31-12.23-4.28-17.38-8.06-.31-.22-.6.28-.3.5Z"/><path d="M501.62,456.67q13.8,9.65,28.47,18a.29.29,0,0,0,.29-.51q-14.64-8.31-28.47-18c-.31-.21-.6.29-.29.51Z"/><path d="M357.47,397.26a21.89,21.89,0,0,0,.31,14.51c1.77,4.65,5.17,8.4,8.75,11.75,3.75,3.51,7.86,6.56,11.93,9.68,3.23,2.47,6.43,5,9.8,7.23a103.46,103.46,0,0,0,14.06,7.86c.34.16.64-.34.3-.5a117.64,117.64,0,0,1-21.5-13.28c-3.82-2.93-7.72-5.77-11.37-8.89s-7.59-6.8-10.07-11.17a21.33,21.33,0,0,1-1.65-17c.11-.35-.45-.51-.56-.15Z"/><path d="M406.63,450.11c6.51,3.2,13,6.73,19.93,8.92.36.11.51-.45.16-.57-6.9-2.17-13.33-5.67-19.8-8.86-.33-.16-.63.34-.29.51Z"/><path d="M362.89,389.71a61.14,61.14,0,0,0,7.16.18c4.15,0,8.29-.1,12.43-.19q13.8-.31,27.59-.85c2.91-.12,5.82-.21,8.72-.41.37,0,.38-.6,0-.58-6.61.45-13.25.58-19.88.8-9.16.3-18.34.57-27.51.64a69,69,0,0,1-8.51-.17c-.37,0-.36.54,0,.58Z"/><path d="M422.79,388c5.9-.62,11.95-.48,17.87-.59,8.27-.15,16.54-.27,24.81-.28,2.5,0,5-.08,7.53.08.37,0,.37-.56,0-.58-5.79-.36-11.67-.08-17.46,0-8.31.09-16.62.21-24.92.45-2.61.08-5.24.09-7.83.36-.37,0-.37.62,0,.58Z"/><path d="M330,300.62c-.75,2.81.5,5.57,1.4,8.2l2.34,6.72c2,5.58,3.92,11.16,6.05,16.67a44.36,44.36,0,0,0,2.32,5.45.29.29,0,0,0,.51-.29,37.76,37.76,0,0,1-2-4.67c-1-2.48-1.9-5-2.81-7.49q-2.77-7.65-5.42-15.36c-1-2.83-2.61-6.07-1.82-9.07.09-.36-.47-.52-.56-.16Z"/><path d="M343.19,340.59a36.31,36.31,0,0,1,2.13,5c1.47,3.53,2.91,7.06,4.35,10.6q4.84,11.88,9.62,23.79c.82,2,1.66,4,2.43,6.07.13.35.7.2.56-.15-2-5.28-4.2-10.49-6.32-15.73q-4.83-12-9.74-23.93a42.76,42.76,0,0,0-2.53-5.9c-.19-.32-.7,0-.5.29Z"/><path d="M335.65,297.41a13.44,13.44,0,0,1,3.07-.33c2.57-.22,5.15-.42,7.72-.63,8.25-.64,16.49-1.24,24.73-1.85l29.67-2.17q12.86-.94,25.7-1.92c2.88-.22,5.76-.44,8.63-.68a27.06,27.06,0,0,0,4.23-.41,2.74,2.74,0,0,0,.28-.05c.35-.12.2-.69-.15-.56a13.53,13.53,0,0,1-3.08.32c-2.57.23-5.15.43-7.72.63q-12.36,1-24.73,1.86l-29.67,2.17c-8.57.63-17.13,1.25-25.7,1.91-2.88.22-5.75.45-8.63.69a25.9,25.9,0,0,0-4.23.4,2.8,2.8,0,0,0-.28.06c-.35.12-.2.69.16.56Z"/><path d="M444.76,291.91a34.7,34.7,0,0,1,2.23,5.56c1.38,3.72,2.71,7.45,4,11.19q4.41,12.48,8.59,25a59.18,59.18,0,0,1,2.14,6.86c.07.37.63.21.56-.15a49.91,49.91,0,0,0-1.77-5.73q-1.86-5.7-3.82-11.36c-2.86-8.37-5.75-16.74-8.81-25a40.21,40.21,0,0,0-2.64-6.65c-.19-.32-.7,0-.5.29Z"/><path d="M463.83,346.06c2.76,8.61,5.71,17.17,8.48,25.79.11.35.68.2.56-.16-2.76-8.62-5.71-17.17-8.48-25.79-.11-.36-.68-.2-.56.16Z"/><path d="M453.23,295.42c3.56,9.05,6.56,18.34,9.7,27.53,3.88,11.31,7.7,22.64,11.55,34,1,2.9,1.9,5.85,3,8.71.13.34.69.19.56-.16-2.81-7.26-5.07-14.77-7.57-22.14-4-11.84-8-23.68-12.14-35.48-1.47-4.2-2.91-8.43-4.55-12.57-.13-.35-.7-.2-.56.15Z"/><path d="M557.72,349.54a160.68,160.68,0,0,1,31.64,34,163.78,163.78,0,0,1,20.73,41.57,157.9,157.9,0,0,1,6.13,25.35c.06.37.62.21.57-.15A161,161,0,0,0,603,406a164.26,164.26,0,0,0-25.68-38.66,159.09,159.09,0,0,0-19.22-18.21c-.29-.23-.7.18-.41.41Z"/><rect x="391.17" y="248.35" width="76.12" height="25.98" rx="3.84" fill="#f75356"/><polygon points="424.69 272.87 434.33 272.87 429.38 282.51 424.69 272.87" fill="#f75356"/><circle cx="408.7" cy="260.9" r="7.86" fill="#fcfbfc"/><path d="M412.52,267.23a15.4,15.4,0,0,0,7,.45l-6-3.69Z" fill="#fcfbfc"/><path d="M425.31,274H397.62a.15.15,0,0,0,0,.3h27.69a.15.15,0,0,0,0-.3Z"/><path d="M393.56,272.07c-2.77-1.94-2.56-5.61-2.43-8.6l.19-4.65.1-2.33a4.55,4.55,0,0,1,.52-2.73c.12-.14-.09-.35-.21-.2-.87,1.07-.6,2.89-.66,4.18-.08,2-.17,4.06-.25,6.08-.13,3-.17,6.57,2.59,8.51.16.1.3-.15.15-.26Z"/><path d="M393.08,251.16c2.12-3.4,6.14-2.77,9.56-2.78h14.12l34.44,0h9.54a.15.15,0,0,0,0-.29l-24.48,0-33.26,0c-3.63,0-7.93-.68-10.17,2.92a.15.15,0,0,0,.25.15Z"/><path d="M462.89,249.09a6.62,6.62,0,0,1,3,2.52,9.75,9.75,0,0,1,.76,2.44c.14.71.19,1.61.26,2.38a68.49,68.49,0,0,1,.47,11.27c0,.19.28.19.29,0a71.17,71.17,0,0,0-.53-11.94,16,16,0,0,0-.35-2.39,6.52,6.52,0,0,0-1-2.47,8.17,8.17,0,0,0-2.77-2.06c-.17-.09-.32.17-.15.25Z"/><path d="M437.25,274.3h19.82a.15.15,0,0,0,0-.3H437.25a.15.15,0,0,0,0,.3Z"/><path d="M461.3,274.38a7.69,7.69,0,0,0,5.89-5.05c.06-.18-.23-.25-.29-.08a7.37,7.37,0,0,1-5.68,4.84c-.18,0-.11.32.08.29Z"/><path d="M425.75,275.39l3.31,7a.15.15,0,0,0,.25,0L432,277.5a.15.15,0,0,0-.26-.14l-2.68,4.88h.25l-3.31-7c-.08-.17-.33,0-.25.15Z"/><path d="M433.45,274.43a.15.15,0,0,0,0-.3.15.15,0,0,0,0,.3Z"/><rect x="638.5" y="402.61" width="72.4" height="103.12" rx="2.18" transform="translate(-77.05 143.76) rotate(-11.51)" fill="#5d6e7f"/><rect x="640.82" y="399.12" width="72.4" height="103.12" rx="2.01" transform="translate(-76.31 144.15) rotate(-11.51)" fill="#a9c6de"/><rect x="646.13" y="404.54" width="62.65" height="90.11" rx="1.63" transform="translate(-76.09 144.21) rotate(-11.51)" fill="#fff"/><path d="M653.75,409.4c3.19,1.58,30.53-4.34,31-7.17.28-1.81-5.86-5.26-5.86-5.26L673,395.2s4.84-6.4,2.86-8.61c-4.22-4.74-18.15-1.32-19.89,4.05-.9,2.76,2.24,5.65,5.18,7.23l-5,4.29S652.08,408.57,653.75,409.4Z" fill="#98b0ae"/><path d="M654.11,457.28l2.62,4.1a.81.81,0,0,0,1.27.16q4.32-5.39,8.25-11.08c.59-.86-.81-1.67-1.4-.82q-3.81,5.52-8,10.76l1.27.16-2.62-4.09c-.56-.88-2-.07-1.39.81Z" fill="#c4c058"/><path d="M648.68,433l2.62,4.1a.82.82,0,0,0,1.27.17q4.32-5.4,8.25-11.09c.59-.86-.81-1.67-1.4-.81q-3.81,5.5-8,10.75l1.27.16-2.62-4.09c-.56-.88-2-.07-1.39.81Z" fill="#c4c058"/><path d="M659.53,481.86l2.63,4.09a.82.82,0,0,0,1.27.17q4.32-5.4,8.25-11.09c.59-.85-.81-1.67-1.4-.81q-3.81,5.52-8,10.75l1.27.17-2.62-4.1c-.56-.88-2-.07-1.4.82Z" fill="#c4c058"/><path d="M667,426c5.39-1.09,10.79-2.15,16.16-3.3a93.44,93.44,0,0,0,12-3c.25-.09.14-.5-.11-.41a95.16,95.16,0,0,1-12,3c-5.38,1.14-10.77,2.2-16.16,3.29-.27.06-.15.46.11.41Z" fill="#969696"/><path d="M667.71,429.81c5.39-1.09,10.79-2.15,16.17-3.29a95.44,95.44,0,0,0,12-3c.25-.09.15-.5-.11-.41a92.11,92.11,0,0,1-12,3c-5.38,1.14-10.78,2.21-16.17,3.3-.26,0-.15.46.11.4Z" fill="#969696"/><path d="M672.29,448.5c5.39-1.09,10.79-2.15,16.16-3.3a93.44,93.44,0,0,0,12-3c.25-.09.14-.5-.11-.41a95.16,95.16,0,0,1-12,3c-5.38,1.14-10.77,2.2-16.16,3.29-.27.06-.16.46.11.41Z" fill="#969696"/><path d="M673.05,452.31c5.39-1.09,10.79-2.15,16.17-3.29a95.44,95.44,0,0,0,12-3c.25-.09.14-.5-.11-.41a91.86,91.86,0,0,1-12,3c-5.37,1.15-10.77,2.21-16.16,3.3-.26,0-.15.46.11.4Z" fill="#969696"/><path d="M677.25,473.29c5.39-1.09,10.78-2.15,16.16-3.3a91.86,91.86,0,0,0,12-3c.25-.09.14-.49-.12-.4a94.59,94.59,0,0,1-12,3c-5.38,1.14-10.77,2.2-16.16,3.29-.27.05-.16.46.11.41Z" fill="#969696"/><path d="M678,477.1c5.39-1.09,10.79-2.15,16.16-3.3a93.44,93.44,0,0,0,12-3c.25-.09.14-.5-.11-.41a93.48,93.48,0,0,1-12,3c-5.38,1.14-10.77,2.21-16.16,3.29-.27.06-.15.46.11.41Z" fill="#969696"/><path d="M652.12,505.87c-.83-1.52-1.06-3.64-1.45-5.31-.84-3.5-1.62-7-2.39-10.55q-2.58-11.86-5-23.77c-.43-2.17-1-4.35-1.25-6.54,0-.26-.46-.27-.43,0,.73,5.39,2.1,10.75,3.2,16.06,1.67,8,3.34,16.05,5.22,24,.34,1.44.68,2.88,1.06,4.3a9.18,9.18,0,0,0,.65,2c.13.24.49,0,.36-.21Z"/><path d="M640.73,453.1c-2.6-12-4.93-24-7.39-36-.42-2-.82-4.06-1.26-6.09-.06-.26-.47-.15-.41.12,2.6,12,4.92,24,7.39,36,.42,2,.82,4.07,1.26,6.09.06.27.46.16.41-.11Z"/><path d="M721.92,490.75c-1.53-6.11-2.65-12.35-3.92-18.52q-3.36-16.16-6.59-32.35c-1-5.08-2-10.16-3-15.26-.05-.26-.45-.15-.4.12,1.83,9.81,3.82,19.6,5.81,29.39s4,19.57,6.06,29.35c.52,2.46,1,4.94,1.6,7.38a.21.21,0,0,0,.41-.11Z"/><path d="M707.79,419.78q-1.86-11.65-4.69-23.13c-.07-.26-.47-.15-.41.12q2.84,11.46,4.7,23.13c0,.26.45.15.4-.12Z"/><path d="M654.86,409c-1-.5-1.21-1.1-.7-1.8.12-.23.25-.46.38-.68.28-.49.56-1,.85-1.47.53-.91,1.07-1.83,1.63-2.72,1.12-1.8,2.27-3.77,4.22-4.76a.21.21,0,0,0,0-.36c-1.29-.85-2.87-1.43-4-2.55a4.72,4.72,0,0,1-1.12-2.91c-.24-3,2.92-4.52,5.2-5.53.25-.11,0-.47-.21-.36-2.44,1.07-5.65,2.76-5.41,5.89a5.47,5.47,0,0,0,.88,2.79c1.07,1.44,3,2.07,4.41,3v-.36c-2.75,1.38-4.31,4.73-5.79,7.26-.6,1-2,2.68-1.81,4a1.16,1.16,0,0,0,1.54,1c.25-.09.14-.5-.11-.41Z"/><path d="M666.9,385a34.37,34.37,0,0,1,5,.1,6.29,6.29,0,0,1,3.48,1.15c1.39,1.28.47,3.18-.21,4.55a30,30,0,0,1-1.95,2.81c-.36.55-.72,1.48.14,1.75a15.44,15.44,0,0,0,1.54.16,10,10,0,0,1,1.91.58,21.84,21.84,0,0,1,7,4.89.21.21,0,0,0,.29-.3,25.68,25.68,0,0,0-5.07-4,14.13,14.13,0,0,0-2.79-1.29,8.22,8.22,0,0,0-1.54-.37l-.52-.06c-.46,0-1,0-.82-.7s1.14-1.57,1.61-2.22a10.35,10.35,0,0,0,1.39-2.83,3.05,3.05,0,0,0-1.79-4c-2.31-.94-5.17-.8-7.6-.69-.27,0-.28.43,0,.42Z"/><path d="M664.74,408.94a74.6,74.6,0,0,0,18.47-5.21c.24-.1,0-.46-.22-.36a73.68,73.68,0,0,1-18.36,5.16c-.27,0-.15.45.11.41Z"/><path d="M664.41,389.18a1.53,1.53,0,0,0,1.86,1.23,1.24,1.24,0,0,0,.9-.82,1.58,1.58,0,0,0-.13-1.2,1.39,1.39,0,0,0-1.11-.77.21.21,0,0,0-.21.21.22.22,0,0,0,.21.21.82.82,0,0,1,.4.15,1.07,1.07,0,0,1,.29.31,1.25,1.25,0,0,1,.18.85.82.82,0,0,1-.53.62,1.13,1.13,0,0,1-.85-.06,1.1,1.1,0,0,1-.42-.32.88.88,0,0,1-.17-.41.23.23,0,0,0-.21-.21c-.11,0-.23.1-.21.21Z"/><path d="M656.68,507.59a26.62,26.62,0,0,0,4.84-.75c3.37-.6,6.74-1.23,10.11-1.86q11.46-2.18,22.91-4.45c2-.39,4-.71,6-1.23a.21.21,0,0,0-.11-.4c-4.93,1.31-10.08,2.05-15.09,3-7.55,1.47-15.11,2.94-22.68,4.29a31.81,31.81,0,0,1-6,1c-.27,0-.27.41,0,.42Z"/><path d="M705.61,498c2.17-1.13,4.82-1.34,7.2-1.67a29.52,29.52,0,0,0,7.16-1.42c.25-.1.14-.5-.11-.4A30.66,30.66,0,0,1,712.5,496c-2.36.33-5,.57-7.1,1.69-.24.12,0,.49.21.36Z"/><path d="M657.8,498.7c-2.46,1.35-3.65-5.29-4-6.73-.78-3.21-1.46-6.44-2.13-9.67q-2.2-10.71-4.07-21.5c-.43-2.46-.89-4.94-1.17-7.42,0-.27-.45-.27-.42,0,.66,5.88,1.9,11.74,3,17.55,1.4,7.42,2.79,14.87,4.64,22.19.46,1.79,1.49,7.52,4.36,5.94.24-.13,0-.49-.21-.36Z"/><path d="M644.61,444.38a114.12,114.12,0,0,0-3.43-19.66c-.81-3.25-1.78-6.47-2.52-9.74a2.5,2.5,0,0,1,.49-2.63,5.71,5.71,0,0,1,1.43-.94,6.45,6.45,0,0,1,3.45-.87c.27,0,.27-.39,0-.42a7.11,7.11,0,0,0-5.52,2.29,3.28,3.28,0,0,0-.21,2.87c.47,2,1,3.88,1.52,5.82,2,7.65,3.82,15.37,4.37,23.28,0,.27.44.27.42,0Z"/><path d="M648,409.54a11.43,11.43,0,0,1,5-1.45c.27,0,.27-.44,0-.42a11.81,11.81,0,0,0-5.21,1.51c-.24.13,0,.49.21.36Z"/><path d="M633.35,408.25a16.61,16.61,0,0,1,4.59-1.77c2.26-.66,4.56-1.2,6.85-1.71,3.87-.85,7.78-1.66,11.7-2.23.26,0,.15-.45-.11-.41-4,.59-8,1.41-12,2.3-2.32.51-4.64,1.07-6.92,1.74a16.58,16.58,0,0,0-4.36,1.72c-.22.15,0,.51.22.36Z"/><path d="M679.26,397.36c3.6-.75,7.26-1.29,10.89-1.85,2.3-.36,4.61-.7,6.92-1a23.85,23.85,0,0,1,4.22-.32c.27,0,.27-.4,0-.42a26.36,26.36,0,0,0-4.43.34c-2.2.27-4.38.59-6.56.92-3.72.57-7.47,1.13-11.16,1.89-.26.06-.15.46.12.41Z"/><path d="M629.34,414c1.54,5.93,2.59,12,3.82,18q3.55,17.19,7,34.42c1.26,6.43,2.51,12.87,3.71,19.32,0,.26.45.15.4-.12-2.18-11.71-4.49-23.4-6.85-35.08q-3-14.83-6.1-29.66c-.49-2.33-.93-4.69-1.53-7a.21.21,0,0,0-.4.11Z"/><path d="M644.05,488.05l3.55,17.6.45,2.2a4.58,4.58,0,0,0,.32,1.45,1.71,1.71,0,0,0,.91.57c1.35.5,3,.44,4.27,1.11.24.13.45-.24.21-.36a16.19,16.19,0,0,0-3.53-.9,6.25,6.25,0,0,1-.93-.29c-.55-.25-.59-.44-.71-1l-.85-4.18-3.29-16.28c-.05-.27-.46-.16-.4.11Z"/><path d="M656.08,510.68a8.4,8.4,0,0,0,1.72-.25c1.34-.23,2.67-.49,4-.75,4.16-.8,8.31-1.64,12.46-2.49q14.06-2.87,28.1-5.83c2.37-.5,4.75-.94,7.1-1.51a.21.21,0,0,0-.11-.41c-6,1.46-12.15,2.58-18.21,3.84-9.3,1.94-18.59,3.87-27.91,5.7-1.64.32-3.28.64-4.92.93a11.26,11.26,0,0,1-2.23.35c-.27,0-.27.41,0,.42Z"/><path d="M685.79,401.89a9.65,9.65,0,0,1,2.11-.62c1.06-.25,2.12-.46,3.19-.65,1.79-.33,3.61-.68,5.42-.84.27,0,.27-.44,0-.42-1.85.17-3.7.52-5.53.85-1.11.21-2.21.42-3.3.68a9.62,9.62,0,0,0-2.1.64c-.24.12,0,.48.21.36Z"/><path d="M699.36,403.21a58.09,58.09,0,0,1,1.58,6.91q1.21,5.78,2.36,11.55c.76,3.79,1.45,7.6,2.26,11.38l8,37.17,2.72,12.66c.06.26.46.15.41-.11l-6.74-31.36c-2-9-3.89-18.08-5.7-27.16-.86-4.35-1.74-8.71-2.65-13.05a67.73,67.73,0,0,0-1.82-8.1c-.09-.26-.5-.15-.41.11Z"/><path d="M681.29,495.19a15.27,15.27,0,0,0,3.53-.61c2.56-.5,5.11-1,7.66-1.58q8.7-1.83,17.38-3.72c1.47-.32,2.93-.66,4.41-.95.26-.05.15-.45-.11-.4-9.48,1.84-18.87,4.12-28.34,6a19.1,19.1,0,0,1-4.53.82c-.27,0-.27.4,0,.42Z"/><rect x="340.42" y="215.96" width="61.62" height="21.29" rx="3.13" fill="#f75356"/><path d="M354.85,232c-8.68-4.32-7.45-8.93-5.41-10.06,2.92-1.64,5.39,2,5.39,2s3.15-4.25,5.57-1.48C364.33,226.92,354.85,232,354.85,232Z" fill="#fcfbfc"/><polygon points="367.06 235.99 374.95 235.99 370.9 243.89 367.06 235.99" fill="#f75356"/><path d="M366.88,236.73H352.54c-2.27,0-4.65.19-6.92,0a6.37,6.37,0,0,1-1.3-.26,5.43,5.43,0,0,1-2.58-1.61c-1.2-1.4-1.15-3.16-1.15-4.9V221.8a.17.17,0,0,0-.33,0c0,3.2-.08,6.4,0,9.6a5.38,5.38,0,0,0,3.32,5.15c2.31,1,5.07.5,7.48.5h15.82a.16.16,0,0,0,0-.32Z"/><path d="M347.18,216.49H395a9,9,0,0,1,3.09.41,5.34,5.34,0,0,1,3.52,3.22,9.71,9.71,0,0,1,.26,3.09v8.19a.16.16,0,0,0,.32,0v-7.61c0-2.48,0-4.87-2.33-6.39-2.8-1.85-6.43-1.23-9.57-1.23H347.18a.16.16,0,0,0,0,.32Z"/><path d="M393.49,237.4h5a.16.16,0,0,0,0-.32h-5a.16.16,0,0,0,0,.32Z"/><path d="M368.18,238.7a33.21,33.21,0,0,0,2.51,5.37.16.16,0,0,0,.28,0l3-5.64a4.17,4.17,0,0,1,.54-1c.17-.14.31-.05.61,0,.69,0,1.39,0,2.08,0h8.64a.16.16,0,0,0,0-.32H374.48a.17.17,0,0,0-.14.08l-3.65,6.75H371a33.21,33.21,0,0,1-2.48-5.3c-.07-.19-.38-.11-.31.09Z"/><circle cx="429.08" cy="130.97" r="14.62" fill="#ffc558"/><polygon points="429.71 122.39 432.17 127.37 437.67 128.17 433.69 132.05 434.63 137.53 429.71 134.94 424.8 137.53 425.73 132.05 421.75 128.17 427.25 127.37 429.71 122.39" fill="#fcfbfc"/><path d="M419.07,141.32c-4-4.29-6.2-10.8-3.34-16.23a15.65,15.65,0,0,1,10.4-8.25,17,17,0,0,1,10.75,1.84c.18.09.34-.18.15-.27-5.5-2.71-11.77-3-16.81.82-3,2.34-6,6.22-6.13,10.2a17,17,0,0,0,4.75,12.11c.14.15.36-.07.23-.22Z"/><path d="M428.15,145.34c8.36,1.82,15.47-6.85,15.66-14.6a11.56,11.56,0,0,0-1.73-6.46c-.1-.17-.38,0-.27.16,5.37,8.58-3.18,22.86-13.58,20.6-.2,0-.28.26-.08.3Z"/><path d="M349.11,306.59l-9.38-7.17H286.38a5.74,5.74,0,0,1-5.75-5.74V265.52a5.74,5.74,0,0,1,5.75-5.74h57a5.74,5.74,0,0,1,5.74,5.74Z" fill="#faf5f7"/><path d="M280.31,284.69c0,2.83,0,5.65,0,8.48a5.69,5.69,0,0,0,1.37,4.19,7.47,7.47,0,0,0,4.22,1.95,12.47,12.47,0,0,0,3.05.15c.21,0,.22-.36,0-.34-2.22.19-4.93-.19-6.67-1.67a5.18,5.18,0,0,1-1.62-4.28c0-1.44,0-2.87,0-4.31v-4.17a.18.18,0,0,0-.35,0Z"/><path d="M293.86,299.53h23.47a.17.17,0,0,0,0-.34H293.86a.17.17,0,0,0,0,.34Z"/><path d="M281,278.39v-8.46a.17.17,0,0,0-.34,0v8.46a.17.17,0,0,0,.34,0Z"/><path d="M281.17,265.61a5.71,5.71,0,0,1,1.41-3.95,11.18,11.18,0,0,1,4.45-1.74,14.07,14.07,0,0,1,3.11-.11h37.45a.17.17,0,0,0,0-.34H309.64c-6.53,0-13.06.06-19.59,0a12.4,12.4,0,0,0-4.37.47c-1.2.4-2.91.83-3.68,1.88a6.65,6.65,0,0,0-1.17,3.79c0,.22.35.22.34,0Z"/><path d="M330.09,299.3h8.48a4.77,4.77,0,0,1,1.41,0,5.21,5.21,0,0,1,.93.77l1.7,1.39,6.38,5.26c.17.14.41-.11.24-.24L342.59,301l-1.71-1.4a3.6,3.6,0,0,0-.71-.58,4.5,4.5,0,0,0-1.6-.05h-8.48a.17.17,0,0,0,0,.34Z"/><path d="M336.07,260h5.37c1.13,0,2.34-.11,3.46,0a2.88,2.88,0,0,1,1.55.66c3,2.41,2.72,7.65,2.72,11.06v32.9a.17.17,0,0,0,.34,0V271.46c0-3.44.19-8.33-2.63-10.9a3.46,3.46,0,0,0-1.85-.92,20.81,20.81,0,0,0-2.37,0h-6.59a.18.18,0,0,0,0,.35Z"/><line x1="293.47" y1="268.19" x2="338.68" y2="268.19" fill="none" stroke="#e3ddd8" stroke-linecap="round" stroke-linejoin="round" stroke-width="1"/><line x1="293.47" y1="274.82" x2="338.68" y2="274.82" fill="none" stroke="#e3ddd8" stroke-linecap="round" stroke-linejoin="round" stroke-width="1"/><line x1="293.47" y1="280.49" x2="338.68" y2="280.49" fill="none" stroke="#e3ddd8" stroke-linecap="round" stroke-linejoin="round" stroke-width="1"/><line x1="293.47" y1="285.83" x2="338.68" y2="285.83" fill="none" stroke="#e3ddd8" stroke-linecap="round" stroke-linejoin="round" stroke-width="1"/><line x1="293.47" y1="291.84" x2="338.68" y2="291.84" fill="none" stroke="#e3ddd8" stroke-linecap="round" stroke-linejoin="round" stroke-width="1"/><path d="M643.87,199.3l7.6-5.79h43.19a4.66,4.66,0,0,0,4.65-4.66V166.06a4.65,4.65,0,0,0-4.65-4.65H648.53a4.66,4.66,0,0,0-4.66,4.65Z" fill="#faf5f7"/><path d="M692.58,193.53a7.87,7.87,0,0,0,5.51-1.36,4.37,4.37,0,0,0,1.48-3.62c0-1.1,0-2.2,0-3.3v-3.67a.14.14,0,0,0-.28,0v6.64a4.62,4.62,0,0,1-1,3.35,5.7,5.7,0,0,1-3.4,1.58,10.29,10.29,0,0,1-2.35.11c-.18,0-.18.26,0,.27Z"/><path d="M688.6,193.32h-19a.13.13,0,1,0,0,.27h19a.14.14,0,0,0,0-.27Z"/><path d="M699.3,176.48v-6.85a.14.14,0,0,0-.28,0v6.85a.14.14,0,0,0,.28,0Z"/><path d="M699.15,166.14c0-5.95-7.71-5-11.82-5h-26a.14.14,0,0,0,0,.28h29.93c.63,0,1.27-.06,1.91,0a9.32,9.32,0,0,1,3.14.84,3.23,3.23,0,0,1,2.21,2,5.47,5.47,0,0,1,.38,1.92.14.14,0,0,0,.28,0Z"/><path d="M659.27,193.13h-6.86a3.76,3.76,0,0,0-1.3,0,3.24,3.24,0,0,0-.57.47l-1.38,1.14-5.38,4.43c-.14.11.06.3.19.19l5.17-4.25,1.38-1.13a1.56,1.56,0,0,1,1.89-.62h6.86a.14.14,0,1,0,0-.27Z"/><path d="M654.44,161.3a71.65,71.65,0,0,0-7.18,0,2.59,2.59,0,0,0-1.16.42c-2.3,1.5-2.5,5.18-2.54,7.6-.13,7.33,0,14.67,0,22v6.38a.14.14,0,0,0,.28,0V172.29c0-3.09-.45-7.27,1.77-9.77a2.67,2.67,0,0,1,1.64-.94,18.1,18.1,0,0,1,2.21,0h5a.14.14,0,0,0,0-.27Z"/><line x1="688.91" y1="168.23" x2="652.32" y2="168.23" fill="none" stroke="#e3ddd8" stroke-linecap="round" stroke-linejoin="round" stroke-width="0.81"/><line x1="688.91" y1="173.59" x2="652.32" y2="173.59" fill="none" stroke="#e3ddd8" stroke-linecap="round" stroke-linejoin="round" stroke-width="0.81"/><line x1="688.91" y1="178.18" x2="652.32" y2="178.18" fill="none" stroke="#e3ddd8" stroke-linecap="round" stroke-linejoin="round" stroke-width="0.81"/><line x1="688.91" y1="182.51" x2="652.32" y2="182.51" fill="none" stroke="#e3ddd8" stroke-linecap="round" stroke-linejoin="round" stroke-width="0.81"/><line x1="688.91" y1="187.37" x2="652.32" y2="187.37" fill="none" stroke="#e3ddd8" stroke-linecap="round" stroke-linejoin="round" stroke-width="0.81"/><path d="M300.44,345.6l.29,16.81a2.57,2.57,0,0,0,2.67,2.52l32.68-1.33a2.55,2.55,0,0,0,2.46-2.56V344.52a2.56,2.56,0,0,0-2.65-2.56l-33,1A2.57,2.57,0,0,0,300.44,345.6Z" fill="#ffc558"/><path d="M320.16,355.14l6.31-.49,7,2.15s-4.56-7.34-8.67-4.79A36.28,36.28,0,0,0,320.16,355.14Z"/><path d="M304.58,346.84a82,82,0,0,0,7.66,5.6q2.08,1.35,4.24,2.55c1,.57,1.92,1.2,3.09.75a24.6,24.6,0,0,0,3.84-2.31q2-1.23,3.95-2.55a65.91,65.91,0,0,0,7.57-6c.24-.22-.12-.57-.35-.35a88.41,88.41,0,0,1-14,10c-.89.54-1.69,1-2.76.58a17.23,17.23,0,0,1-1.88-1c-1.24-.71-2.45-1.46-3.64-2.23a83,83,0,0,1-7.38-5.4c-.25-.21-.6.15-.35.35Z"/><path d="M306.21,358.89a61,61,0,0,1,7.41-5.36c.27-.17,0-.61-.26-.44a62.56,62.56,0,0,0-7.5,5.44c-.25.21.11.56.35.36Z"/><path d="M327.37,351.7c3.44,2,6,5.09,9.28,7.35.26.19.52-.25.25-.43-3.25-2.26-5.84-5.34-9.28-7.35a.25.25,0,0,0-.25.43Z"/><path d="M730.79,243.05l.29,16.81a2.56,2.56,0,0,0,2.67,2.52l32.68-1.33a2.57,2.57,0,0,0,2.46-2.57V242a2.57,2.57,0,0,0-2.64-2.57l-33,1A2.56,2.56,0,0,0,730.79,243.05Z" fill="#ffc558"/><path d="M750.5,252.58l6.32-.48,7,2.15s-4.56-7.35-8.67-4.8A37.51,37.51,0,0,0,750.5,252.58Z"/><path d="M734.92,244.29a84,84,0,0,0,7.67,5.6c1.38.89,2.8,1.74,4.23,2.55,1,.56,1.92,1.19,3.09.74a23.89,23.89,0,0,0,3.85-2.3c1.33-.83,2.65-1.67,4-2.55a65.91,65.91,0,0,0,7.57-6c.24-.22-.12-.57-.36-.36a87.94,87.94,0,0,1-14,10c-.89.54-1.69,1-2.76.58a16.42,16.42,0,0,1-1.88-1.05c-1.24-.71-2.45-1.45-3.65-2.22a81,81,0,0,1-7.37-5.41c-.25-.2-.61.15-.36.36Z"/><path d="M736.56,256.33A61.63,61.63,0,0,1,744,251a.25.25,0,0,0-.25-.43A62.36,62.36,0,0,0,736.2,256c-.24.21.11.56.36.35Z"/><path d="M757.72,249.15c3.44,2,6,5.09,9.28,7.35.26.18.51-.25.25-.43-3.25-2.27-5.84-5.34-9.28-7.35a.25.25,0,0,0-.25.43Z"/><polygon points="705.05 346.2 718.11 352.02 714.1 354.63 716.47 358.56 713.62 360.33 711.14 356.55 706.93 359.3 705.05 346.2" fill="#e0dfe1"/><path d="M712.12,358.36l1.37,2.05a.15.15,0,0,0,.2,0l2.72-1.88a.15.15,0,0,0,.06-.2,24.23,24.23,0,0,0-2.61-3.81l0,.22,2.8-1.68c.16-.1,0-.35-.14-.25l-2.81,1.68a.15.15,0,0,0,0,.23,23.3,23.3,0,0,1,2.56,3.76l.06-.2-2.73,1.88.2.05-1.37-2.05c-.1-.15-.35,0-.25.15Z" fill="#3a3b44"/><path d="M710.82,356.44c-1.28.81-2.49,1.72-3.73,2.59-.16.11,0,.36.14.25,1.24-.87,2.46-1.78,3.74-2.59a.15.15,0,0,0-.15-.25Z" fill="#3a3b44"/><path d="M717.73,351.82c-4.16-2.18-8.45-4.13-12.72-6.09a.15.15,0,0,0-.21.17c.78,4.12,1.15,8.31,1.79,12.46,0,.18.31.1.28-.08-.64-4.15-1-8.34-1.79-12.46l-.22.16c4.27,2,8.57,3.91,12.72,6.09.17.09.32-.16.15-.25Z" fill="#3a3b44"/><path d="M348.4,171a27.57,27.57,0,1,1,52.76,11.16l5.56,6.86-8.79-1.41A27.54,27.54,0,0,1,348.4,171Z" fill="#efebee"/><g clip-path="url(#clip-path-3)"><g opacity="0.5"><path d="M400.07,314.77c9.13,1,33.9,9.65,8.87,8.8s-55.9-.84-59.71-5.58,2.61-4.87,14.23-5.18S400.07,314.77,400.07,314.77Z" fill="#ebeef1"/><path d="M400.45,306.52s6.52,10.79,9.65,12.62c0,0-7.33,2.76-12.25-1.16a21.57,21.57,0,0,1-3.79-3.63l-.92,4.7-3.27-.78,2.71-11.77Z" fill="#4a4f5f"/><path d="M359.7,300.68c1.14,2.5,2.22,14.09,2.22,14.09s-8.48-3.73-9.26-9.66L350.32,309l-1.68-1.29,3.76-9.21Z" fill="#4a4f5f"/><path d="M371.49,153.6a8.3,8.3,0,0,0-4.08-.63,4.65,4.65,0,0,0-3.43,2.12,3.25,3.25,0,0,0,.42,3.86c.49.48,1.25,1,.94,1.66a1.21,1.21,0,0,1-.62.49,23.53,23.53,0,0,0-5.09,2.86,5.81,5.81,0,0,0-2.29,5.11,2.62,2.62,0,0,0,1.36,2c1.12.51,2.63-.08,3.53.76a.79.79,0,0,1,.24.4c0,.39-.35.66-.71.83a17.25,17.25,0,0,0-2.84,1.45,3.52,3.52,0,0,0-1.6,2.64,3.31,3.31,0,0,0,2.39,3,7.66,7.66,0,0,0,4,0,16.26,16.26,0,0,0,4.51-1.59,14,14,0,0,0,6.56-8.8,19.34,19.34,0,0,0-.68-11.11" fill="#918f9f"/><path d="M368.21,217.42c-.71.93-6.8,3.85-8.15,3.4s-4.27-2.32-2-3.88S368.21,217.42,368.21,217.42Z" fill="#797b8e"/><path d="M384.05,212.74c3.13,0,3.48-.32,3.93,3.34a48.66,48.66,0,0,1,.51,12.91c-1.13,11.16-27.16,75.68-27.16,75.68l-11.14-4.75,13.92-39.84s4.18-33,4.53-33.64C369.41,225,374.57,212.79,384.05,212.74Z" fill="#797b8e"/><path d="M374.71,268.45l-2.1,5.82s-7.55-19.11-6.16-27.27Z" fill="#4a4f5f"/><path d="M387.25,222.2s-5,2.5-5.06,5.38,0,12.86,0,12.86-7.57-18.89-6.84-20.64S387.25,222.2,387.25,222.2Z" fill="#4a4f5f"/><path d="M402.38,306.36c0-1.09-23.79-82.83-23.79-82.83s-1.11-10.24-4-11.07-11.46-.61-12.85,2.84c-5.54,13.77,3.2,29.76,13,53.15,8.66,20.73,16.25,41.16,16.25,41.16Z" fill="#918f9f"/><path d="M375.88,167.22c-4.85,2.53-3.13,11.73.73,14.44s10.63,4.16,11.26-1S383,163.52,375.88,167.22Z" fill="#797b8e"/><path d="M381.38,179.2c4.16,1.34,7.3,13.71,13.23,24.74a106.82,106.82,0,0,0,14,19.39l-5.06.83S393.12,212.63,389,206.62a93.78,93.78,0,0,1-6.86-12.54S377.64,178,381.38,179.2Z" fill="#e3dce1"/><path d="M387.6,188c.12-3.34-.87-8.41-6.51-9.11Z" fill="#918f9f"/><path d="M381.09,178.86c3.62,3.28,8,10.6,9.73,13.57a2.18,2.18,0,0,1-.18,2.43L387.35,199l-2,8.5,3.38,8.8-24.25-1s6.14-6,1.77-18.55c-2.74-7.85-7.46-10.6-6-15.78.68-2.49,5.88-5.08,8.91-5.42C375.36,174.92,381.09,178.86,381.09,178.86Z" fill="#b8b9c3"/><path d="M360.2,179.47c-3.39,3.17-9.52,19-10.56,27.48s0,19.65,0,19.65l-.46,2.41.05,3.14a8.37,8.37,0,0,0-1.37,4c0,.29,2.24-1.53,2.22-1.24-.11,1.48-2.07,2.39-2,2.53a3.29,3.29,0,0,0,1.25,1.62c.74.53,2.72-.49,3.57-2,1.19-2.1,1.54-6.94,1.54-6.94l-.65-4.72a123.35,123.35,0,0,1,2.34-16.46c1.28-5.41,6.91-15.53,6.91-15.53s5-5.54,1.64-11.32C361.86,177.22,360.2,179.47,360.2,179.47Z" fill="#e3dce1"/><path d="M364.78,178.52c2,1.4,3,5.75,1.51,10.7s-3,4.92-3,4.92-6.5-6.71-7.13-7.73S360.56,175.52,364.78,178.52Z" fill="#b8b9c3"/><path d="M369.42,177.26l1-3a6.82,6.82,0,0,1-3.89-4.09c-.85-2.24-.95-11.31,4.2-15.15s11.05-.64,11.85,3.72-3.29,10.75-3.29,10.75l-2.19,6.88-6.46,2.13A1,1,0,0,1,369.42,177.26Z" fill="#e3dce1"/><path d="M369.05,175s1.73,4.43,12,9.32a.63.63,0,0,0,.86-.82,27.35,27.35,0,0,0-4.91-7.64Z" fill="#e3dce1"/><path d="M366,191.32c1.21-2.72,2.81-5.86,1.89-8.9,0-.11-.21-.06-.17.05.91,3-.69,6.09-1.87,8.76,0,.11.11.2.15.09Z" fill="#4a4f5f"/><path d="M367.32,180.76a8.3,8.3,0,0,0-3.88-3c-.11,0-.15.13-.05.17a8.09,8.09,0,0,1,3.77,2.88c.07.09.22,0,.16-.09Z" fill="#4a4f5f"/><path d="M388.2,194.11a17.52,17.52,0,0,0-8.63-.36.09.09,0,0,0,.05.17,17.4,17.4,0,0,1,8.54.36c.11,0,.15-.13,0-.17Z" fill="#4a4f5f"/><path d="M380.12,197.09a21.67,21.67,0,0,0-4.62-.52.09.09,0,0,0,0,.18,20.81,20.81,0,0,1,4.58.51c.11,0,.15-.14,0-.17Z" fill="#4a4f5f"/><path d="M408.78,222.52c1.63.55,7,3.41,7,3.41,1.22,2.48-2.08,1.68-4.89,1-2.51-.65-6.8-2.9-7.16-3.54S406.93,221.9,408.78,222.52Z" fill="#e3dce1"/><path d="M354,229.73c.74.87,1.32,5.93.2,5.89s-1.67-5.85-1.67-5.85Z" fill="#e3dce1"/><path d="M393.41,305c-5.15-13.69-10.56-27.28-16-40.85-3.33-8.25-6.9-16.44-9.89-24.82a36.82,36.82,0,0,1-1.46-6.12,67.78,67.78,0,0,1-.94-13.94c0-.11-.17-.11-.17,0a67.17,67.17,0,0,0,.57,11.6,45.12,45.12,0,0,0,1.55,7.72c.9,2.78,2.07,5.49,3.15,8.21,4.55,11.39,9.2,22.73,13.71,34.13q4.75,12,9.33,24.11c0,.11.21.06.17,0Z" fill="#4a4f5f"/><path d="M369.29,219.77a13.28,13.28,0,0,1-.54,5.64c-.49,1.45-1.43,2.93-3,3.25-.11,0-.07.2,0,.17a4.47,4.47,0,0,0,3-3,13,13,0,0,0,.67-6c0-.11-.18-.11-.17,0Z" fill="#4a4f5f"/><path d="M403.72,223.35c-1,1.41,3.07,5.15,5.33,5.58s-1-3.32-2.28-5C405.93,222.86,403.72,223.35,403.72,223.35Z" fill="#e3dce1"/><path d="M355.09,206.5l-1.43-.88c-.09-.06-.18.09-.08.15l1.42.88a.09.09,0,1,0,.09-.15Z" fill="#4a4f5f"/><path d="M354.18,231.4l-.8,2.73c0,.11.14.15.17,0l.8-2.73c0-.11-.13-.15-.17,0Z" fill="#4a4f5f"/><path d="M350.71,233.88a7.53,7.53,0,0,1-2.31,1.88l.11,0a.67.67,0,0,1-.15-.49c0-.11-.17-.11-.18,0a.88.88,0,0,0,.2.61s.08,0,.11,0a7.88,7.88,0,0,0,2.38-1.95c.06-.09-.09-.18-.16-.09Z" fill="#4a4f5f"/><path d="M348.78,238.57a3.84,3.84,0,0,0,3-2,6.89,6.89,0,0,0,.55-1.7c.1-.62.12-1.25.19-1.88,0-.11-.17-.11-.18,0-.06.6-.09,1.21-.18,1.8a5.93,5.93,0,0,1-.49,1.6,2.91,2.91,0,0,1-1.2,1.39,5.34,5.34,0,0,1-1.75.6.09.09,0,0,0,0,.17Z" fill="#4a4f5f"/><path d="M415.8,226.64a10.49,10.49,0,0,0-2.78-.94,12.4,12.4,0,0,1-2.91-1.17c-.1-.05-.19.1-.09.15a13.19,13.19,0,0,0,2.75,1.14c.49.12,1,.2,1.47.35a7.9,7.9,0,0,1,1.47.62c.1.06.19-.1.09-.15Z" fill="#4a4f5f"/><path d="M412,224.22a17.21,17.21,0,0,0-2.26-1.06c-.11,0-.15.13-.05.17a16,16,0,0,1,2.22,1c.1,0,.19-.1.09-.15Z" fill="#4a4f5f"/><path d="M392.79,206.33a1.45,1.45,0,0,0-1.37.45c-.07.09.05.21.13.13a1.26,1.26,0,0,1,1.2-.41c.11,0,.16-.15,0-.17Z" fill="#4a4f5f"/><path d="M367.25,200.42c-.65,6-.4,3.31-6.17,10.94-2.47,3.28-5,7.48-2.44,6.45,3.55-1.44,24.5,3.89,26.18,4.06,6.72.67,4.32-4.06,3.95-5.53s-4.85-7.49-4.85-7.49Z" fill="#b8b9c3"/><path d="M373.81,151.45c4.63-.16,6.95,1.22,8.53,2.42,4.47,3.39,3,6.2,3.83,8,1.26,2.57,4.72-.63,7,5.33.3.8,3,.89,2.79,1.72a15.86,15.86,0,0,1-5.9,8.39,9.49,9.49,0,0,1-3.57,2,4.18,4.18,0,0,1-3.83-.84c-1.71-1.63-1.14-4.41-.63-6.72a1.87,1.87,0,0,0,0-1c-.25-.74-1.24-.92-2-.77a5.31,5.31,0,0,1-2.31.32,2.31,2.31,0,0,1-1.52-2.43,5.65,5.65,0,0,1,1.24-2.82,3,3,0,0,0,.79-1.77c0-1.1-1.32-1.77-2.41-1.65s-1.92,1.13-3,1.28c-5.11.7-5.88-3.85-5.56-5.16C368.16,153.85,372.51,151.49,373.81,151.45Z" fill="#918f9f"/><path d="M386.33,185.45a34.15,34.15,0,0,0-4.84-6.72c-.08-.08-.2,0-.12.13a33.29,33.29,0,0,1,4.8,6.68.09.09,0,0,0,.16-.09Z" fill="#4a4f5f"/></g></g><path d="M739.32,296.08c-5.38-7-14.42-9.74-21.32-4.1s-7.06,14.86-1.42,21.76,14.93,8.86,21.83,3.23S744.75,303.14,739.32,296.08Zm-1,18.26c-5.2,5-13.84,2.06-18.41-3.53s-4.71-12.78.88-17.35S733.45,291,738,296.62,743.4,309.43,738.3,314.34Z" fill="#aaa"/><path d="M738.37,314.3c5.06-4.92,4.24-12.16-.3-17.78s-11.6-7.77-17.14-3.2c0,0,10.1-4.67,16.45,4.94C744.08,308.41,738.37,314.3,738.37,314.3Z" fill="#858585"/><path d="M718.93,312.81c8.74,11.42,19.48,4.16,19.48,4.16-6.9,5.63-16.19,3.67-21.83-3.23S711.1,297.62,718,292l.86-.36s-10.19,7-1.25,19.64Z" fill="#858585"/><path d="M752.9,334.62h0a2.73,2.73,0,0,1-3.83-.38l-13.17-16.5c-1-1.16,1-.85,2.15-1.8l.52-.67c1.16-.95.59-2.14,1.54-1l13.18,16.5A2.72,2.72,0,0,1,752.9,334.62Z" fill="#aaa"/><path d="M736.27,318.2l12.8,16a2.73,2.73,0,0,0,3.83.38s-1.12.82-2.4-.93-12.19-15.27-12.19-15.27-.34-1.08-1.06-.7h0Z" fill="#858585"/><path d="M720.75,293.38c-5.63,4.6-5.49,11.83-.89,17.46s12.45,8.45,18.07,3.85,4.77-12.5.17-18.13S726.37,288.78,720.75,293.38Z" fill="#e2ffff" opacity="0.42"/><path d="M740.13,312.13c2.16-2.56,2.27-6.59,1.43-9.68a16.24,16.24,0,0,0-7.25-9.37.07.07,0,1,0-.07.13,16.15,16.15,0,0,1,7.1,9c.92,3.09.87,7.23-1.32,9.81-.06.08,0,.18.11.11Z"/><path d="M727.43,296.13a7.71,7.71,0,0,1,5.78,3.61,13.6,13.6,0,0,1,1.87,7.77.64.64,0,0,0,1.27,0,14.58,14.58,0,0,0-2.24-8.72,9,9,0,0,0-6.68-3.93c-.82-.05-.81,1.23,0,1.27Z" fill="#fff"/><path d="M736.9,318.14a5.51,5.51,0,0,0,1.77-1.38.07.07,0,0,0-.11-.1,5.73,5.73,0,0,1-1.73,1.36c-.09,0,0,.17.07.12Z"/><path d="M749.53,332.52c.49.59,1,1.18,1.44,1.78a1.47,1.47,0,0,0,.47.46.92.92,0,0,0,.87,0c.09,0,0-.17-.07-.13a.8.8,0,0,1-.84-.06,2.69,2.69,0,0,1-.46-.55c-.43-.54-.87-1.07-1.31-1.6-.06-.08-.16,0-.1.1Z"/><path d="M741.6,322.52c2,2.47,3.95,5,5.93,7.55.35.44.7.89,1.06,1.32.06.08.16,0,.1-.1-2-2.45-4-5-5.93-7.54-.35-.45-.69-.9-1-1.33-.06-.08-.17,0-.11.1Z"/><path d="M737.88,317.83c.92,1.29,1.93,2.51,2.94,3.73.06.08.16,0,.1-.1-1-1.22-2-2.43-2.91-3.7-.06-.08-.18,0-.13.07Z"/><path d="M714,303.13a10.27,10.27,0,0,1,.29-3.86c0-.09-.11-.13-.14,0a10.27,10.27,0,0,0-.29,3.9c0,.1.16.1.14,0Z"/><path d="M714.7,297.62a11.11,11.11,0,0,1,5.66-6.82c.08,0,0-.17-.08-.13a11.24,11.24,0,0,0-5.72,6.91.07.07,0,1,0,.14,0Z"/><path d="M716.16,308.76a16.56,16.56,0,0,0,7.55,8.31c3.06,1.73,6.89,2.9,10.36,1.83a.08.08,0,0,0,0-.15c-3.43,1.07-7.22-.1-10.24-1.81a16.39,16.39,0,0,1-7.49-8.22c0-.09-.17-.05-.14,0Z"/><path d="M731.62,290.1a5,5,0,0,1,1.22.55,18.38,18.38,0,0,1,2.26,1.44,22.23,22.23,0,0,1,5.61,6.11c0,.08.18,0,.13-.07a22.4,22.4,0,0,0-5.58-6.1,18,18,0,0,0-2.34-1.51,5.94,5.94,0,0,0-1.26-.57c-.09,0-.13.13,0,.15Z"/><path d="M740.69,314.91a.08.08,0,0,0,0-.15.08.08,0,0,0,0,.15Z"/><path d="M740.87,314.73a13.83,13.83,0,0,0,2.54-5.12,14.3,14.3,0,0,0-.89-8.29c0-.08-.18-.05-.14,0a14.07,14.07,0,0,1,.85,8.37,13.55,13.55,0,0,1-2.49,4.92c-.06.08.07.15.13.08Z"/><path d="M717.65,314.68a34.9,34.9,0,0,1-2.76-3.62,16,16,0,0,1-2.19-8.87.08.08,0,1,0-.15,0,16.17,16.17,0,0,0,2.08,8.71,18,18,0,0,0,1.74,2.53c.37.45.79.87,1.15,1.33.06.07.19,0,.13-.08Z"/><path d="M712.92,300.76a16.47,16.47,0,0,1,.85-2.72,17.15,17.15,0,0,1,1.12-2.47c.05-.09-.08-.16-.12-.08a16.81,16.81,0,0,0-1.12,2.44,16.38,16.38,0,0,0-.87,2.79c0,.09.13.13.14,0Z"/><path d="M719.65,316.88a14.41,14.41,0,0,0,13.1,3.07c.09,0,0-.17,0-.14a14.25,14.25,0,0,1-13-3c-.07-.06-.18,0-.11.11Z"/><path d="M718.53,315.78l.34.29a.07.07,0,0,0,.1,0s0-.08,0-.1l-.34-.3a.08.08,0,0,0-.1,0,.08.08,0,0,0,0,.11Z"/><rect x="203.18" y="401.15" width="83.48" height="19.45" rx="5.2" fill="#faf5f7"/><path d="M212.72,420.27a10.16,10.16,0,0,1-8.57-4.67,8.64,8.64,0,0,1-1-5.81,7.38,7.38,0,0,1,1.52-3.19c.37-.51.78-1,1.17-1.48s.82-1.18,1.55-1.3c.18,0,.1-.31-.08-.28-1.13.19-1.88,1.62-2.53,2.45a9.3,9.3,0,0,0-1.77,3.08,8.84,8.84,0,0,0,.59,6.15,10.33,10.33,0,0,0,9.1,5.34.15.15,0,0,0,0-.29Z"/><path d="M210.71,402a19.05,19.05,0,0,1,6.3-.38c.18,0,.18-.27,0-.29a19.56,19.56,0,0,0-6.38.39c-.18,0-.1.32.08.28Z"/><path d="M221.06,401.79c2.15.12,4.31,0,6.46,0h14q15.66,0,31.31,0c2.63,0,5.3-.1,7.94,0,.19,0,.18-.28,0-.29-2.14-.11-4.31,0-6.45,0h-14q-15.66,0-31.31,0c-2.64,0-5.31.11-7.95,0-.18,0-.18.27,0,.28Z"/><path d="M273.36,420.62c2.76-.24,5.7-.11,8.29-1.24a6.6,6.6,0,0,0,4.17-4.81c0-.19-.25-.26-.27-.08a6.48,6.48,0,0,1-4.34,4.77c-2.48,1-5.24.85-7.85,1.07-.18,0-.18.31,0,.29Z"/><path d="M287,411.05a10.09,10.09,0,0,0-2.4-6.88c-.12-.15-.32.06-.2.2a9.8,9.8,0,0,1,2.31,6.68c0,.18.28.18.29,0Z"/><path d="M269.11,420H217a.15.15,0,0,0,0,.29h52.1a.15.15,0,0,0,0-.29Z"/></g></g></svg>