<svg xmlns="http://www.w3.org/2000/svg" xmlns:xlink="http://www.w3.org/1999/xlink" viewBox="0 0 1080 1080"><defs><clipPath id="a"><path d="M851.37,57.85,278.48,924l-67.85,55.78,24.78-84.27L808.3,29.36a13,13,0,0,1,18-3.67l21.36,14.13A13,13,0,0,1,851.37,57.85Z" fill="#f4f4f4" stroke="#1a2e35" stroke-linecap="round" stroke-linejoin="round"/></clipPath></defs><title>Pen</title><polygon points="251.15 926.73 213.04 1012 293.2 943.03 859.64 79.62 826.33 54.84 251.15 926.73" fill-opacity="0.7" opacity="0.2"/><path d="M851.37,57.85,278.48,924l-67.85,55.78,24.78-84.27L808.3,29.36a13,13,0,0,1,18-3.67l21.36,14.13A13,13,0,0,1,851.37,57.85Z" fill="#f4f4f4"/><g clip-path="url(#a)"><path d="M210.63,979.82l24.78-84.27L808.3,29.36a13,13,0,0,1,18-3.67l3,2L252.22,900.21Z" fill-opacity="0.7" opacity="0.2"/></g><path d="M851.37,57.85,278.48,924l-67.85,55.78,24.78-84.27L808.3,29.36a13,13,0,0,1,18-3.67l21.36,14.13A13,13,0,0,1,851.37,57.85Z" fill="none" stroke="#1a2e35" stroke-linecap="round" stroke-linejoin="round"/><path d="M819.51,42.49,257.12,892.81a8.83,8.83,0,0,0,2.49,12.25l5.14,3.4" fill="#f4f4f4" stroke="#1a2e35" stroke-linecap="round" stroke-linejoin="round"/></svg>