<svg xmlns="http://www.w3.org/2000/svg" viewBox="0 0 600 1000"><title>IllustHappyLightbulb</title><path d="M424.4,316.8h-.6c0-.2-1.7-14.5-6.8-21.6-2.5,1-4.5.1-5.3-1.3a2.3,2.3,0,0,1,.3-2.9h.3C421.6,293.2,424.3,315.8,424.4,316.8Zm-12.1-25.1a1.5,1.5,0,0,0,0,2c.6,1.1,2.2,1.8,4.3,1.1A7.6,7.6,0,0,0,412.3,291.7Z" fill="#192e42"/><path d="M427.4,316.4c-.2-1-4.4-23.4,3.8-28.3h.3a2.2,2.2,0,0,1,1.2,2.7c-.4,1.6-2,3-4.7,2.8-2.7,8.3,0,22.5,0,22.6Zm.9-23.4c2.2.1,3.5-1.1,3.8-2.3a1.6,1.6,0,0,0-.7-1.9A8.5,8.5,0,0,0,428.3,293Z" fill="#192e42"/><path d="M402.7,288h-.6a21.7,21.7,0,0,1-.1-2.6h.6A21.8,21.8,0,0,0,402.7,288Z" fill="#f9a846"/><path d="M402.9,282.9h-.6a19.4,19.4,0,0,1,3.2-7.7l.5.3A19,19,0,0,0,402.9,282.9Z" fill="#f9a846"/><path d="M431.1,307.6l-12.9,2a2.2,2.2,0,0,1-2.2-1.3,31,31,0,0,0-6.8-9.1,17.7,17.7,0,0,1,9.1-30.5h0a17.7,17.7,0,0,1,18.2,26.5,27.9,27.9,0,0,0-3.6,10.5A2,2,0,0,1,431.1,307.6ZM418.6,270a16.2,16.2,0,0,0-13.7,17.7,16.5,16.5,0,0,0,5.2,10.6,28.9,28.9,0,0,1,7,9.5,1.2,1.2,0,0,0,.9.5l12.9-2a.7.7,0,0,0,.7-.7,29.3,29.3,0,0,1,3.8-11.1A16.4,16.4,0,0,0,418.6,270Z" fill="#f9a846"/><path d="M430.5,319.3l-8.2,1.3a2.3,2.3,0,0,1-2.6-2v-.2a.9.9,0,0,1,0-.7,2.8,2.8,0,0,1-.8-1.5h0a1.1,1.1,0,0,1,0-.8,2.1,2.1,0,0,1-.7-1.4,2.4,2.4,0,0,1,2-2.8l9.5-1.4a2.5,2.5,0,0,1,2.8,2,3.7,3.7,0,0,1-.3,1.5l.3.9h0a2.3,2.3,0,0,1-.3,1.6,1.4,1.4,0,0,1,.2.7v.2A2.3,2.3,0,0,1,430.5,319.3Zm-10.1-6.9a1.1,1.1,0,0,0-.9,1.3.8.8,0,0,0,.5.7l.6.4-.3.5a.8.8,0,0,0-.1.7h0a.8.8,0,0,0,.5.8l.6.3-.3.6c0,.1-.1.3,0,.5v.2a1.1,1.1,0,0,0,1.1.9l8.2-1.3a1,1,0,0,0,.8-1.1v-.2a.8.8,0,0,0-.2-.5l-.4-.5.4-.4a1.6,1.6,0,0,0,.3-.9h0l-.3-.6-.5-.5.5-.4a1.6,1.6,0,0,0,.3-.9,1.3,1.3,0,0,0-1.3-1Z" fill="#f9a846"/></svg>