<svg xmlns="http://www.w3.org/2000/svg" viewBox="0 0 600 1000"><title>IllustHappyBG</title><rect x="292.9" y="602.9" width="203.9" height="94.02" fill="#f5f5f5"/><path d="M491.9,692.4H297.6V607.8H491.9Zm-193-1.2H490.7V609.1H298.9Z" fill="#e1e1e1"/><rect x="496.8" y="602.9" width="49.8" height="94.02" fill="#e1e1e1"/><path d="M298.2,634H491.3a.3.3,0,0,0,0-.5H298.2a.3.3,0,0,0,0,.5Z" fill="#e1e1e1"/><path d="M395.4,633.7a216.9,216.9,0,0,0,.1-25.5.3.3,0,0,0-.5,0,197.3,197.3,0,0,0,0,25.5.2.2,0,1,0,.4,0Z" fill="#e1e1e1"/><path d="M447.4,621a2.7,2.7,0,1,1-2.7-2.7A2.7,2.7,0,0,1,447.4,621Z" fill="#e1e1e1"/><path d="M346.1,621a2.7,2.7,0,1,1-2.7-2.7A2.7,2.7,0,0,1,346.1,621Z" fill="#e1e1e1"/><path d="M397.4,650.1a2.7,2.7,0,0,1-2.6,2.7,2.7,2.7,0,0,1,0-5.3A2.6,2.6,0,0,1,397.4,650.1Z" fill="#e1e1e1"/><polygon points="317.3 696.9 306.8 755.9 312.7 755.9 332.1 696.9 317.3 696.9" fill="#e1e1e1"/><polygon points="482.4 696.9 491.2 756 485.3 756 467.6 696.9 482.4 696.9" fill="#e1e1e1"/><polygon points="521.8 696.9 531.7 756 525.8 756 507 696.9 521.8 696.9" fill="#e1e1e1"/><path d="M397.2,676.7a2.6,2.6,0,0,1-2.6,2.7,2.7,2.7,0,0,1,0-5.3A2.6,2.6,0,0,1,397.2,676.7Z" fill="#e1e1e1"/><path d="M298.2,663.1H491.3a.3.3,0,0,0,0-.5H298.2a.3.3,0,0,0,0,.5Z" fill="#e1e1e1"/><rect x="398.2" y="534" width="12.5" height="61.64" transform="translate(967.1 157.4) rotate(89.7)" fill="#e1e1e1"/><rect x="398.5" y="558.7" width="19.5" height="68.7" transform="translate(999.1 181.6) rotate(89.7)" fill="#f5f5f5"/><path d="M429.4,602.5c-.1,0-.3-4.4-.3-9.8s.2-9.7.3-9.7.4,4.3.4,9.7S429.6,602.5,429.4,602.5Z" fill="#e1e1e1"/><path d="M432.3,602.5c-.2,0-.3-4.4-.3-9.8s.1-9.7.3-9.7.4,4.3.4,9.7S432.5,602.5,432.3,602.5Z" fill="#e1e1e1"/><path d="M384.3,602.5c-.2,0-.3-4.4-.3-9.8s.1-9.7.3-9.7.4,4.3.4,9.7S384.5,602.5,384.3,602.5Z" fill="#e1e1e1"/><path d="M387.2,602.5c-.2,0-.3-4.4-.3-9.8s.1-9.7.3-9.7.3,4.3.3,9.7S387.4,602.5,387.2,602.5Z" fill="#e1e1e1"/><path d="M393.5,593c0-.2,6.9-.3,15.5-.3s15.5.1,15.5.3-7,.4-15.5.4S393.5,593.2,393.5,593Z" fill="#e1e1e1"/><rect x="419.8" y="534.6" width="12.5" height="84.77" transform="translate(1000.7 147.8) rotate(89.7)" fill="#ececec"/><path d="M456.3,581.4a4.1,4.1,0,1,1,4-4A3.9,3.9,0,0,1,456.3,581.4Z" fill="#e1e1e1"/><rect x="415.7" y="549" width="2.5" height="56.75" transform="translate(994.3 160.4) rotate(90)" fill="#e1e1e1"/><rect x="147.8" y="697.3" width="69.1" height="9.5" fill="#192e42"/><path d="M217.1,706.9H147.7v-9.7h69.4Zm-69.2-.2h68.9v-9.3H147.9Z" fill="#192e42"/><polygon points="154.2 703.6 164.2 752.7 201 752.7 210.6 706.8 154.2 703.6" fill="#192e42"/><polygon points="154.2 748.1 159.5 755.4 204.3 755.4 210.6 748.1 154.2 748.1" fill="#192e42"/><path d="M179.4,705c-.2,0-.2-22.7,0-50.7s.4-50.8.5-50.8.1,22.7,0,50.8S179.5,705,179.4,705Z" fill="#1a2e35"/><path d="M195.2,648.1a3.2,3.2,0,0,0-.2.6,6.4,6.4,0,0,0-.6,1.4l-.5,1.1c-.1.4-.3.8-.4,1.3a11.6,11.6,0,0,0-.6,1.5,15.4,15.4,0,0,1-.5,1.7,83.1,83.1,0,0,0-1.9,8.4c-.5,3.3-.9,6.8-1.1,10.6A139.3,139.3,0,0,0,190,694c.2,2.5.4,4.5.6,5.9a7,7,0,0,0,.2,1.6v.5a1.2,1.2,0,0,1-.1-.5c-.1-.4-.2-1-.3-1.6s-.5-3.4-.8-5.8a139.4,139.4,0,0,1-.7-19.4c.2-3.8.6-7.4,1.1-10.7a60.4,60.4,0,0,1,2.1-8.4c.2-.6.3-1.2.5-1.7s.4-1,.6-1.5a11.2,11.2,0,0,0,.5-1.3,9.3,9.3,0,0,0,.5-1l.7-1.5Z" fill="#1a2e35"/><path d="M193.4,629.7a2.4,2.4,0,0,1-.2.8c-.2.5-.4,1.2-.7,2.1l-.6,1.5a18,18,0,0,1-.5,1.9c-.4,1.3-.9,2.8-1.3,4.5s-.5,1.7-.7,2.6l-.6,2.9c-.5,1.9-.9,4.1-1.3,6.3-.8,4.6-1.5,9.5-1.9,14.8s-.6,10.3-.7,14.9,0,8.7.2,12.2c.1,1.7.2,3.3.3,4.7s.2,2.5.2,3.5.2,1.7.2,2.2.1.8,0,.8a4.5,4.5,0,0,0-.1-.8c-.1-.5-.1-1.3-.3-2.2s-.2-2.1-.3-3.5-.2-3-.3-4.7c-.3-3.5-.4-7.6-.4-12.2s.3-9.6.7-14.9,1.1-10.3,1.9-14.8c.5-2.3.9-4.4,1.4-6.4l.6-2.9c.3-.9.5-1.8.8-2.6s.9-3.2,1.3-4.5l.6-1.8.6-1.6.8-2Z" fill="#1a2e35"/><path d="M175.4,709.1v-.3c0-.2-.1-.5-.1-.8s-.1-1.7-.2-3-.4-6.4-.7-11.1c-.6-9.3-1.5-22.2-3-36.4-.8-7.2-1.8-13.9-2.7-20-.6-3.1-1-6-1.6-8.7s-1-5.2-1.4-7.5-1-4.3-1.4-6.2-.8-3.3-1.1-4.6-.6-2.2-.7-2.9a4.5,4.5,0,0,1-.2-.8.8.8,0,0,1-.1-.3.4.4,0,0,1,.1.3l.3.7a19,19,0,0,0,.8,2.9c.3,1.3.7,2.9,1.2,4.7s.9,3.8,1.4,6.1,1,4.8,1.5,7.5,1.1,5.7,1.6,8.7c1,6.1,2,12.9,2.8,20,1.5,14.2,2.3,27.2,2.9,36.5.2,4.7.4,8.5.5,11.1s.1,2.3.1,3v1.1Z" fill="#1a2e35"/><path d="M179.2,614.4c-.3-3.2-3.5-5.7-6.8-5.7a10.7,10.7,0,0,0-8.2,4.5c-2,2.5-3.1,5.7-4,8.8-2.1,7.6-3.3,15.5-2.4,23.4a35.6,35.6,0,0,0,9.7,21.1c.9.9,2.1,1.8,3.4,1.5a3.8,3.8,0,0,0,1.8-1.1,52.6,52.6,0,0,0,17-39.8c-.1-3-.5-6.1-2.2-8.6s-5.5-5.1-8.3-4.1" fill="#375a64"/><path d="M179.5,603.5l-41.1-24.3c-.4-.2-.9-.5-1-1s.3-1.2.7-1.7a28.5,28.5,0,0,1,22-8.6,25,25,0,0,1,19.8,12.4c4,7.1,4.1,16.4-.4,23.2" fill="#375a64"/><path d="M144.3,571.5c0-.1.2-.1.6-.1h1.5a34.5,34.5,0,0,1,5.7.5,33.1,33.1,0,0,1,16.9,8.1,34.5,34.5,0,0,1,6.5,8.1,36.8,36.8,0,0,1,3.2,7.8,34.3,34.3,0,0,1,1,5.7,5.7,5.7,0,0,1,.1,1.2,3,3,0,0,1-.3.9,11.6,11.6,0,0,0,0-2.1,26.9,26.9,0,0,0-1.1-5.6,34.1,34.1,0,0,0-9.8-15.6,33.4,33.4,0,0,0-16.6-8.2,35.7,35.7,0,0,0-5.6-.6Z" fill="#1a2e35"/><path d="M173.9,586.7c.1.1-.7.4-2,1l-5.2,1.8-5.3,1.5a8.7,8.7,0,0,1-2.3.4,14,14,0,0,1,2.2-.8l5.2-1.6,5.2-1.7A11.6,11.6,0,0,1,173.9,586.7Z" fill="#1a2e35"/><path d="M167.5,569.3a18.9,18.9,0,0,1,.4,4.6,18.7,18.7,0,0,1-.2,4.6,27.3,27.3,0,0,1-.2-4.6C167.4,571.4,167.3,569.3,167.5,569.3Z" fill="#1a2e35"/><path d="M138,578.7l3-1,7.4-2,7.5-1.6a16.7,16.7,0,0,1,3.1-.4l-3.1.8-7.4,1.7-7.4,1.8A14.3,14.3,0,0,1,138,578.7Z" fill="#1a2e35"/><path d="M162.2,607.4c-3.6-2.7-7.3-3.2-11.7-3a34.2,34.2,0,0,0-12.9,3.3c-6.9,3-13.4,7.5-17.5,13.8s-5.6,14.7-2.5,21.6a3,3,0,0,0,1.4,1.7,3.7,3.7,0,0,0,2.3-.1c7.9-2.6,15.8-5.2,23.1-9.2s13.8-9.7,17.7-17a15.5,15.5,0,0,0,1.9-5.6,7.2,7.2,0,0,0-1.8-5.5" fill="#375a64"/><path d="M162.2,606.6l-.5.2-1.7.6-1.2.4-1.4.5-3.4,1.4-1.9.9-2,1c-1.5.7-2.9,1.6-4.5,2.5a90.5,90.5,0,0,0-9.3,7,68.4,68.4,0,0,0-8,8.3c-1.1,1.5-2.2,2.8-3.1,4.1s-.9,1.3-1.3,1.9a17.4,17.4,0,0,0-1.1,1.8,21.1,21.1,0,0,0-1.8,3.2l-.8,1.3a3.7,3.7,0,0,1-.5,1.1c-.3.7-.6,1.2-.8,1.6l-.3.5.2-.5.7-1.7a3.7,3.7,0,0,0,.5-1.1c.2-.4.5-.9.7-1.4l1.8-3.2a17.4,17.4,0,0,1,1.1-1.8,21.4,21.4,0,0,1,1.3-1.9,35.6,35.6,0,0,1,3-4.1,79.4,79.4,0,0,1,8.1-8.5,77.4,77.4,0,0,1,9.4-6.9c1.6-.9,3-1.8,4.5-2.5l2-1.1,2-.8c1.2-.6,2.4-1,3.4-1.4l1.4-.5,1.2-.3,1.7-.5C162,606.6,162.2,606.5,162.2,606.6Z" fill="#1a2e35"/><path d="M134.6,621.5c0,.2-3.8,1.4-8.6,2.8s-8.7,2.4-8.7,2.3a80.1,80.1,0,0,1,8.6-2.8C130.7,622.4,134.6,621.4,134.6,621.5Z" fill="#1a2e35"/><path d="M134.3,640.5a8.5,8.5,0,0,1-.2-2.7c-.1-1.6-.1-3.9,0-6.5s.2-4.8.3-6.4a13,13,0,0,1,.4-2.7v2.7c-.1,1.8-.1,4-.2,6.5s-.1,4.6-.2,6.4S134.3,640.5,134.3,640.5Z" fill="#1a2e35"/><path d="M150.5,632.2c-.1,0-.6-4.6-1-10.4s-.6-10.4-.4-10.4.5,4.6.9,10.4S150.6,632.2,150.5,632.2Z" fill="#1a2e35"/><path d="M130.3,610.9h9.4l6.6.3a10.3,10.3,0,0,1,2.7.3,18.9,18.9,0,0,1-2.7,0h-6.6l-6.7-.3A10.3,10.3,0,0,1,130.3,610.9Z" fill="#1a2e35"/><path d="M169.3,667.6a2.8,2.8,0,0,0-.1-.6v-1.6c-.1-1.3-.1-3.3-.1-5.8s.3-5.4.5-8.6.8-6.8,1.5-10.5,1.5-7.2,2.3-10.3,1.8-6,2.6-8.3a51.7,51.7,0,0,1,2.1-5.4,11.6,11.6,0,0,1,.6-1.5l.2-.5c.1,0,0,.2-.1.5l-.5,1.5c-.5,1.3-1.2,3.2-2,5.5s-1.6,5.2-2.4,8.3-1.6,6.6-2.3,10.3-1.2,7.2-1.5,10.4-.5,6.2-.6,8.6-.1,4.5-.1,5.8a10.4,10.4,0,0,0-.1,1.6Z" fill="#1a2e35"/><path d="M171.5,640.7l-1.7,1.7a45.1,45.1,0,0,1-4.3,4,53.9,53.9,0,0,1-4.5,3.8l-2,1.4a16.5,16.5,0,0,1,1.8-1.7l4.4-3.8,4.4-3.9C170.7,641.2,171.4,640.6,171.5,640.7Z" fill="#1a2e35"/><path d="M184.5,651.1c-.1.1-.7-.9-1.8-2.4l-4-5.9-4.2-5.9a13.7,13.7,0,0,1-1.6-2.5l1.9,2.3c1.1,1.5,2.7,3.5,4.3,5.8s3,4.5,3.9,6S184.5,651.1,184.5,651.1Z" fill="#1a2e35"/><path d="M177.7,618.2c0,.1-4.3,3-9.7,6.5s-9.8,6.2-9.9,6.1,4.2-3.1,9.6-6.5S177.6,618.1,177.7,618.2Z" fill="#1a2e35"/><path d="M189.8,631.3c0,.1-3-2.6-6.5-6s-6.3-6.3-6.2-6.4,3,2.6,6.6,6A82.6,82.6,0,0,1,189.8,631.3Z" fill="#1a2e35"/><path d="M192.9,631.1l3.7-.3a19.3,19.3,0,0,0,7.5-2.3,29.1,29.1,0,0,1,3.5-1.8c4.6-1.8,9.7-1.5,14.6-1.8a60.3,60.3,0,0,0,23.3-5.9,2.4,2.4,0,0,0,1.1-.9c.7-1.4-.7-2.7-1.9-3.4-6.3-3.9-12.6-7.8-19.7-9.7s-15.2-1.6-21.2,2.6-9.7,14.9-10.9,23.5" fill="#375a64"/><path d="M246.6,617.6l-.6-.3-1.8-.9-6.4-3.3a66.9,66.9,0,0,0-10.1-3.9,32.7,32.7,0,0,0-13-1,22.3,22.3,0,0,0-11.9,5.1,26.2,26.2,0,0,0-6.2,8.6c-1.3,2.8-2.1,5.2-2.7,6.8a13,13,0,0,0-.6,1.9l-.3.6a2.3,2.3,0,0,1,.2-.7l.5-1.9c.6-1.6,1.3-4,2.6-6.8a26.7,26.7,0,0,1,6.2-8.9,22.3,22.3,0,0,1,12.1-5.2,33.5,33.5,0,0,1,13.2,1.1,54.4,54.4,0,0,1,10.1,4c2.8,1.3,4.9,2.6,6.4,3.4l1.8,1Z" fill="#1a2e35"/><path d="M237.7,622.4c-.1.1-4.9-3-10.8-7s-10.6-7.3-10.6-7.4,5,3,10.9,7S237.8,622.3,237.7,622.4Z" fill="#1a2e35"/><path d="M232.5,607.7a11,11,0,0,1-3.5.7,14.1,14.1,0,0,1-3.6-.1l3.6-.4C230.9,607.8,232.5,607.6,232.5,607.7Z" fill="#1a2e35"/><path d="M211.3,604.9a8.9,8.9,0,0,1-1.6,2.5,8.4,8.4,0,0,1-2,2.3,13.7,13.7,0,0,1,1.6-2.5A15.2,15.2,0,0,1,211.3,604.9Z" fill="#1a2e35"/><path d="M215.7,625.3l-2.4-1.3c-1.4-.9-3.3-2.1-5.3-3.6s-3.8-2.8-5.1-3.9a11.8,11.8,0,0,1-2-1.7,19.8,19.8,0,0,1,2.2,1.5l5.2,3.7,5.2,3.7A11.3,11.3,0,0,1,215.7,625.3Z" fill="#1a2e35"/><path d="M198.4,646.8c-3.6-.9-7.8,2.5-8.5,6.1s.6,7.3,2.2,10.6c3.5,7.3,8.3,14.1,14.6,19.1a36.2,36.2,0,0,0,22.4,8.3c-1.5-7,.4-14.2-.5-21.3a27.5,27.5,0,0,0-8-16.4,27.9,27.9,0,0,0-16.5-7.9c-2.2-.2-4.8-.6-5.7,1.5" fill="#375a64"/><path d="M229.1,690.9l-.5-.3a3.8,3.8,0,0,1-1.3-.9,12,12,0,0,1-3.5-4.6q-.9-1.6-1.8-3.6l-1.9-4.2a38.8,38.8,0,0,0-2.4-4.5,32.8,32.8,0,0,0-3.2-4.4c-2.4-2.9-5-5.3-7.3-7.7a42.6,42.6,0,0,1-5.5-6.6,21.7,21.7,0,0,1-2.7-5.2,12.6,12.6,0,0,1-.5-1.5,2.8,2.8,0,0,1-.1-.6s.2.7.7,2a25.9,25.9,0,0,0,2.9,5.1,57.8,57.8,0,0,0,5.5,6.5c2.3,2.3,4.9,4.8,7.4,7.7a32.8,32.8,0,0,1,3.2,4.4,33.8,33.8,0,0,1,2.4,4.6q.9,2.3,1.8,4.2t1.8,3.6a13.2,13.2,0,0,0,3.3,4.7C228.4,690.5,229.1,690.8,229.1,690.9Z" fill="#1a2e35"/><path d="M210.8,685.1a7.2,7.2,0,0,1,.3-2.4,45.5,45.5,0,0,1,1.4-5.6,39.4,39.4,0,0,1,1.8-5.5,13.5,13.5,0,0,1,.9-2.2,11.3,11.3,0,0,1-.6,2.3c-.5,1.4-1.1,3.3-1.7,5.5s-1.1,4.1-1.4,5.6A12.8,12.8,0,0,1,210.8,685.1Z" fill="#1a2e35"/><path d="M228.4,668a8.8,8.8,0,0,1-2.5-.5c-1.5-.4-3.6-1-6-1.5s-4.4-1-6-1.2l-2.5-.6a10.1,10.1,0,0,1,2.6.2l6.1,1.1a59,59,0,0,1,5.9,1.6Z" fill="#1a2e35"/><path d="M197.7,673a9.7,9.7,0,0,1,.3-2.8c.3-1.7.8-4,1.5-6.5s1.4-4.8,1.9-6.5a24.4,24.4,0,0,1,1-2.5,14.6,14.6,0,0,1-.6,2.6c-.5,1.7-1.2,4-1.8,6.5s-1.2,4.8-1.6,6.5S197.7,673,197.7,673Z" fill="#1a2e35"/><path d="M220.3,653.2l-9.9-.8c-5.4-.6-9.8-1.2-9.8-1.3s4.4.2,9.9.8S220.3,653,220.3,653.2Z" fill="#1a2e35"/><path d="M217.1,706.7c0,.2-15.6.3-34.7.3s-34.7-.1-34.7-.3,15.5-.2,34.7-.2S217.1,706.6,217.1,706.7Z" fill="#375a64"/><path d="M206.3,726.7c0,.2-10.5.3-23.4.3s-23.4-.1-23.4-.3,10.5-.2,23.4-.2S206.3,726.6,206.3,726.7Z" fill="#375a64"/><path d="M205.9,729.6c0,.1-10.3.2-23,.2s-23-.1-23-.2,10.3-.3,23-.3S205.9,729.4,205.9,729.6Z" fill="#375a64"/><path d="M206.7,724.4c0,.1-10.9.2-24.2.2s-24.2-.1-24.2-.2,10.8-.3,24.2-.3S206.7,724.2,206.7,724.4Z" fill="#375a64"/><path d="M533.1,755.4c0,.1-102.3.3-228.4.3s-228.4-.2-228.4-.3,102.2-.3,228.4-.3S533.1,755.2,533.1,755.4Z" fill="#1a2e35"/></svg>