<svg xmlns="http://www.w3.org/2000/svg" viewBox="0 0 600 1000"><title>IllustHappyMain</title><path d="M282.9,329.2a39.1,39.1,0,0,1-21.3,6.1,56.3,56.3,0,0,0-7.1-.1,11.2,11.2,0,0,0-6.6,2.5,6.1,6.1,0,0,0-1.7,6.5c1.4,3.1,5.7,4.3,6.4,7.6s-1.3,4.7-3.3,6-4.3,2.3-6,4.1a8.5,8.5,0,0,0-2,8,8.5,8.5,0,0,0,6.1,5.7c1.7.4,3.8.4,4.7,1.9s.4,2.4.3,3.6a12.9,12.9,0,0,0,.9,7.5,7,7,0,0,0,6.2,3.9c1,0,1.9-.3,2.9-.3a2.4,2.4,0,0,1,2.4,1.5c.3.6,0,1.3-.1,2-.3,3.4,3,6,6.3,7,6.5,1.9,13.7,0,19.2-3.9s9.3-9.9,11.8-16.2,4-12.9,5.4-19.6" fill="#1a2e35"/><path d="M355.4,496.9a15.5,15.5,0,0,0-3.2-4.8c-8.6-9.1-21.6-13.5-34.1-12.8s-24.5,6.2-34.3,14.1c-5.2,4.2-12.1,12.3-14,18.7,7.6,1.8,19-.7,26.2-3.8s14.3-7,22.1-7.8,17.9,2.3,26.8,4.1a16.5,16.5,0,0,0,5.4.5,7.2,7.2,0,0,0,4.7-2.6A6.8,6.8,0,0,0,355.4,496.9Z" fill="#f4f4f4"/><g opacity="0.3"><path d="M355.4,496.9a15.5,15.5,0,0,0-3.2-4.8c-8.6-9.1-21.6-13.5-34.1-12.8s-24.5,6.2-34.3,14.1c-5.2,4.2-12.1,12.3-14,18.7,7.6,1.8,19-.7,26.2-3.8s14.3-7,22.1-7.8,17.9,2.3,26.8,4.1a16.5,16.5,0,0,0,5.4.5,7.2,7.2,0,0,0,4.7-2.6A6.8,6.8,0,0,0,355.4,496.9Z"/></g><path d="M349.2,605.7l21.7-14.1s21.6,17.4,25.9,15.1L371,563.6l-34.8,20.6Z" fill="#f4f4f4"/><path d="M361.1,579.4a2.2,2.2,0,0,1,1.2-2.5,2.1,2.1,0,0,1,2.5,1.3,2.4,2.4,0,0,1-1.4,2.6,2.1,2.1,0,0,1-2.4-1.6" fill="#e1e1e1"/><g opacity="0.6"><path d="M371,563.6l-3.4,2.2,26,40.6s2,1.4,3.2.3Z" fill="#fff"/></g><path d="M371.1,592.4c.2-.1-.3-1.2-.3-2.7s.6-2.5.4-2.6-1.2.9-1.2,2.6S370.9,592.6,371.1,592.4Z" fill="#1a2e35"/><path d="M375.7,595.8c.2,0,0-1.2.5-2.4s1.3-2,1.1-2.2-1.4.3-1.9,1.9S375.5,595.9,375.7,595.8Z" fill="#1a2e35"/><path d="M382.6,595.2c0-.3-1.3.1-2.1,1.3s-.7,2.5-.5,2.5.5-1,1.2-2S382.7,595.4,382.6,595.2Z" fill="#1a2e35"/><path d="M365.8,595.1c.1-.2-.7-1-1.4-2.3s-.8-2.3-1-2.3-.5,1.3.3,2.7S365.7,595.3,365.8,595.1Z" fill="#1a2e35"/><polygon points="352.6 574.5 362.5 597 359.2 599.4 347.8 577.4 352.6 574.5" opacity="0.3"/><path d="M339.7,486c-.9,0-30.2-.7-46,9.8l-12.5,7,.4,12.7s-2.7,4.4-2.1,7.1-.1,14-.1,14-4.7.3-5.3,8.4c0,0-6.5,2.6-9.3,7.4s-32.1,58.4-33.9,67-3,23.9,3.6,28.9,21.1,3.3,21.1,3.3,2.1,6.3,14.9,6.6S303,643.6,303,643.6l59-40.2-14-29.9-20.6,12.6,22.1-25.6s10.1-17.3,7.1-35.5C354.4,511.5,339.7,486,339.7,486Z" fill="#1a2e35"/><path d="M344.7,495.3H342c-1.7,0-4.2-.1-7.3,0s-6.7.1-10.8.5a63.8,63.8,0,0,0-12.8,2.7c-8.9,3-16.1,7.8-21.2,11.2l-6,4.2-1.6,1.1-.6.4.5-.5,1.6-1.2,5.9-4.3c5-3.5,12.2-8.4,21.2-11.4a58,58,0,0,1,13-2.7,83.8,83.8,0,0,1,10.8-.4l7.3.2h2C344.5,495.2,344.7,495.2,344.7,495.3Z" fill="#375a64"/><path d="M284.5,504.5c.1.1-.7.5-.9,1.8a1.9,1.9,0,0,0,.6,1.8,2.4,2.4,0,0,0,2.3.5,2.3,2.3,0,0,0,1.3-1.9,1.9,1.9,0,0,0-.8-1.8,3,3,0,0,0-1.9-.6l.6-.2a2.4,2.4,0,0,1,1.5.5,2.4,2.4,0,0,1,1.2,2.1,2.8,2.8,0,0,1-1.7,2.4,2.7,2.7,0,0,1-2.9-.6,2.4,2.4,0,0,1-.6-2.3,2.1,2.1,0,0,1,.8-1.4Z" fill="#375a64"/><path d="M295,506.1a4.4,4.4,0,0,1-1-.9,5.8,5.8,0,0,1-1.7-2.8,6.9,6.9,0,0,1,.2-3.3q.5-1.2.6-1.2c.1,0,0,.5-.1,1.3a7.6,7.6,0,0,0-.2,3.1,8.7,8.7,0,0,0,1.5,2.7C294.8,505.6,295.1,506,295,506.1Z" fill="#375a64"/><path d="M297.5,504.6c-.1,0-.5-.2-1-.8a6.4,6.4,0,0,1-1.5-2.6,7.7,7.7,0,0,1-.1-4.2c.3,0,.1,1.9.7,4S297.6,504.4,297.5,504.6Z" fill="#375a64"/><path d="M329.1,495.3c-.1,0-.2-.6-.2-1.4a10.9,10.9,0,0,0-.8-3.1,8.4,8.4,0,0,0-1.7-2.7c-.6-.6-1-1-.9-1.1a4.9,4.9,0,0,1,1.2.8,7.6,7.6,0,0,1,2,2.7,9.4,9.4,0,0,1,.6,3.4A4.9,4.9,0,0,1,329.1,495.3Z" fill="#375a64"/><path d="M332.9,495.2c-.1,0-.1-.5-.1-1.4a8.8,8.8,0,0,0-.3-3.1,10.4,10.4,0,0,0-1.4-2.8,4,4,0,0,1-.7-1.3,4.1,4.1,0,0,1,1,1,9.6,9.6,0,0,1,1.7,2.9,7.5,7.5,0,0,1,.1,3.3C333.1,494.7,333,495.2,332.9,495.2Z" fill="#375a64"/><path d="M282.5,624.7c-.1,0,.1-.4.5-1.3l1.8-3.7,7-13.4c6-11.2,14.3-26.7,23.6-43.8l6.8-12.5a51.5,51.5,0,0,0,4.8-12.2,53.2,53.2,0,0,0,1.2-22.1,61.4,61.4,0,0,0-4.2-14.5c-.7-1.6-1.4-2.8-1.8-3.6l-.5-1c-.1-.2-.2-.3-.1-.3l.2.3.5.9a38.9,38.9,0,0,1,1.9,3.7,54.4,54.4,0,0,1,3.3,36.7,52.8,52.8,0,0,1-4.8,12.4c-2.2,4-4.4,8.2-6.8,12.4l-23.7,43.8L285,619.8l-1.9,3.7-.5.9A.8.8,0,0,0,282.5,624.7Z" fill="#375a64"/><path d="M348.3,586.2l-.7.4-1.9,1.2-7,4.3c-5.9,3.7-14,8.7-22.8,14.5s-16.9,11.1-22.7,14.9l-6.8,4.6-1.9,1.2-.6.4c0-.1.2-.2.6-.5a10.6,10.6,0,0,1,1.8-1.3l6.7-4.7c5.7-4,13.6-9.4,22.5-15.1s17.1-10.8,23-14.3l7.1-4.2,2-1.1Z" fill="#375a64"/><path d="M357.5,606.4c-.1,0-.2-.4-.6-1.2s-.8-1.9-1.4-3.2-3-6.5-4.9-10.6-3.7-7.7-5.1-10.5l-1.5-3.3c-.3-.7-.5-1.2-.4-1.2l.6,1.1,1.7,3.2c1.4,2.6,3.2,6.3,5.2,10.5s3.7,7.9,4.8,10.6,1,2.6,1.3,3.4Z" fill="#375a64"/><path d="M282.5,624.7c-.1-.1,9.9-9,22.5-19.9s22.8-19.6,22.9-19.4-10,9-22.5,19.9S282.6,624.9,282.5,624.7Z" fill="#375a64"/><path d="M270,645.6a11.7,11.7,0,0,0,2.4-2.7c1.2-1.8,2.7-4.6,4.4-7.7s3.1-5.8,4.2-7.8a33,33,0,0,1,1.7-3.2,16,16,0,0,1-1.4,3.4,84.3,84.3,0,0,1-4,7.9,74.3,74.3,0,0,1-4.6,7.7,9.3,9.3,0,0,1-1.9,2C270.3,645.5,270,645.7,270,645.6Z" fill="#375a64"/><path d="M280.6,648.9c0-.1.6-1.3,1.3-3.5a43.5,43.5,0,0,0,1.9-8.5,31.5,31.5,0,0,0-.1-8.8,9.6,9.6,0,0,0-.7-2.5c-.4-.5-.6-.8-.5-.9a3,3,0,0,1,.7.8,7.8,7.8,0,0,1,.9,2.5,28.2,28.2,0,0,1,.3,8.9,36.9,36.9,0,0,1-2.1,8.7,14.2,14.2,0,0,1-1.1,2.4Q280.8,648.9,280.6,648.9Z" fill="#375a64"/><path d="M268.3,631.6a7.4,7.4,0,0,1,2.2-.8,36.9,36.9,0,0,0,5.3-1.8c3.9-1.9,6.5-4.4,6.7-4.3a7.5,7.5,0,0,1-1.7,1.7,17.3,17.3,0,0,1-4.8,3.1,27,27,0,0,1-5.4,1.7Z" fill="#375a64"/><path d="M283.4,548.7l-.2.3-.5.6c-.4.6-1.1,1.5-1.8,2.7a49.7,49.7,0,0,0-5.4,10.5,123.7,123.7,0,0,0-5.2,16.7c-1.7,6.4-3.4,13.6-6.3,20.7s-6.6,13.4-8.9,19.6a47.7,47.7,0,0,0-3.6,17,26.7,26.7,0,0,0,.8,6.7,22.4,22.4,0,0,0,1.6,4.8,21.2,21.2,0,0,0,1.5,2.8,5.9,5.9,0,0,0,.4.8.3.3,0,0,1,.1.2s-.1,0-.2-.2l-.5-.7a30.8,30.8,0,0,1-1.5-2.8,28.7,28.7,0,0,1-1.8-4.8,33.4,33.4,0,0,1-.8-6.8,48.5,48.5,0,0,1,3.4-17.2c2.4-6.3,6-12.6,8.9-19.7s4.6-14.1,6.3-20.5a123.7,123.7,0,0,1,5.4-16.8,56.8,56.8,0,0,1,5.6-10.5l1.9-2.5.6-.7Z" fill="#375a64"/><path d="M285.3,512.7l-.6,1.4a13.2,13.2,0,0,0-1.1,3.9,18.3,18.3,0,0,0,.2,6.1c.3,2.2,1.3,4.6,1.9,7.2a10.6,10.6,0,0,1,.4,3.9,33.7,33.7,0,0,1-.6,3.6,42.1,42.1,0,0,1-1.8,5.9l-1.4,3.9c-.4.9-.6,1.4-.7,1.4s.1-.5.4-1.5.8-2.3,1.3-3.9a49,49,0,0,0,1.6-5.9,16.1,16.1,0,0,0,.3-7.3,55.1,55.1,0,0,1-1.9-7.2,18.6,18.6,0,0,1-.1-6.2,12.4,12.4,0,0,1,1.3-4l.6-1Z" fill="#375a64"/><path d="M286.7,547a14,14,0,0,0,2.9-4.8,21.8,21.8,0,0,0,.9-6.1,55.5,55.5,0,0,0-1-7.5,53,53,0,0,1-1.2-7.5,25.9,25.9,0,0,1,.1-6.3,14.3,14.3,0,0,1,1-4.1,4.6,4.6,0,0,1,.5-1,1.1,1.1,0,0,1,.2-.4l-.5,1.5a21,21,0,0,0-.8,4.1,30.9,30.9,0,0,0,0,6.1c.2,2.3.8,4.9,1.3,7.5a43.4,43.4,0,0,1,.9,7.6,18.7,18.7,0,0,1-1,6.2,13.3,13.3,0,0,1-2.2,3.7l-.8.8Z" fill="#375a64"/><path d="M315.6,538c0,.1-.5.2-1.4.3l-3.7.6a71.9,71.9,0,0,0-12.1,3.1,78,78,0,0,0-11.5,5l-3.3,1.9-1.3.6,1.2-.8a35.9,35.9,0,0,1,3.2-2.1,67.3,67.3,0,0,1,11.5-5.2,61.7,61.7,0,0,1,12.2-2.9,21.2,21.2,0,0,1,3.8-.4Z" fill="#375a64"/><path d="M317.5,525.6c0,.1-1.7.1-4.4.5a37.4,37.4,0,0,0-4.6,1.1,33.2,33.2,0,0,0-5.3,2.2,36.2,36.2,0,0,0-4.8,3.1,28.4,28.4,0,0,0-3.5,3.2c-1.9,1.9-2.8,3.3-2.9,3.3a6.7,6.7,0,0,1,.6-1.1,23.8,23.8,0,0,1,2-2.5,21.6,21.6,0,0,1,3.4-3.3,29.6,29.6,0,0,1,4.9-3.2,27.4,27.4,0,0,1,5.5-2.2,23.4,23.4,0,0,1,4.7-1,20.1,20.1,0,0,1,3.2-.2Z" fill="#375a64"/><path d="M320,551.7l-1.3.5-3.5,1.2a98.8,98.8,0,0,0-11.3,4.8,102.9,102.9,0,0,0-10.7,6l-3.1,2.1c-.7.5-1.2.8-1.2.7l1-.9,3.1-2.2a95.7,95.7,0,0,1,10.6-6.3,101,101,0,0,1,11.5-4.6l3.6-1Z" fill="#375a64"/><path d="M356,521.9l-1.1-.4-3.1-1.1a53.3,53.3,0,0,0-11.4-2.5l.3-.3a168.9,168.9,0,0,1-.4,17,121.1,121.1,0,0,1-2.4,18h0a98.3,98.3,0,0,0,3.8,10.1c.6,1.2,1,2.1,1.4,2.7l.5.9-.6-.8a15.3,15.3,0,0,1-1.5-2.7,70.3,70.3,0,0,1-4-10.1h-.1a137.2,137.2,0,0,0,2.3-18c.5-6.2.5-12,.5-16.9v-.3h.3a51.7,51.7,0,0,1,11.4,2.7l3,1.2C355.6,521.7,356,521.8,356,521.9Z" fill="#375a64"/><path d="M356.9,526.8a10.3,10.3,0,0,1-2.4-.7l-5.8-1.5c-4.5-1.1-8.3-1.7-8.2-1.9a9.4,9.4,0,0,1,2.5.2l5.9,1.1C353.4,525.1,357,526.6,356.9,526.8Z" fill="#375a64"/><path d="M351.4,509.3l-3.6-.9A65.2,65.2,0,0,0,339,507a67.7,67.7,0,0,0-8.9-.1,26,26,0,0,1-3.7.1l.9-.2,2.7-.3a52.2,52.2,0,0,1,9-.1,49.7,49.7,0,0,1,8.9,1.6l2.6.8C351.1,509.1,351.4,509.2,351.4,509.3Z" fill="#375a64"/><path d="M328.2,514.4l-1.5.5-4.2.9a61.3,61.3,0,0,1-14.2.7c-2.8-.3-5.5-.6-7.7-1.9a6.3,6.3,0,0,1-2.3-2.6,4.9,4.9,0,0,1-.5-3.1,16.5,16.5,0,0,1,1.3-4.1l.8-1.4c.1.1-.2.6-.6,1.5a18.7,18.7,0,0,0-1,4.1,4,4,0,0,0,.4,2.8,6,6,0,0,0,2.2,2.3c2,1.2,4.7,1.5,7.4,1.8a67.3,67.3,0,0,0,14.1-.6c1.8-.2,3.2-.5,4.2-.7Z" fill="#375a64"/><path d="M325.3,310c-5.5-11.8-18.9-9.5-25.4-6.3a28.6,28.6,0,0,0-14.3,15.1c-1.9,4.5-3.4,9.7-7.2,12.5a55.2,55.2,0,0,1-5.4,2.8,6.9,6.9,0,0,0-3.8,4.8c-.6,3.9,3.4,6.7,6.7,8.3-2,1.3-2.5,4.3-1.8,6.8a18,18,0,0,0,3.9,6.3,97.6,97.6,0,0,0,19.8,16.6c6.2,3.9,10.3,4.4,16.9,1.6,2.8-1.1,5.3-3,8.2-3.3s6.6,1.3,9.9,2,7.5-.2,8.6-3.8a28.4,28.4,0,0,0,.5-4.2c.1-1.4.8-2.9,2.1-3.2s2,.3,3,.7c2.5.8,6.1,18.6,8.4,17.5,0,0,3.3-30.2-3.1-47.9-2.1-5.7-6.5-17.7-10-22.4-4.8-6.5-16.4-5-17-3.9" fill="#1a2e35"/><path d="M318.4,312c-8.6-3-20.2,3.6-22.8,12.3s-6.1,21.6-6.7,29.1c-1.1,15.3,9.8,19.8,9.8,19.8l-4.5,23.9,37.2-12,13-56.3,1.2-4.7Z" fill="#ffbf9d"/><path d="M295.6,336c.1.4,1.9-.1,3.8.7s3,2.3,3.3,2.1.1-.6-.3-1.3a5.6,5.6,0,0,0-2.6-2,5.7,5.7,0,0,0-3.1-.2C295.9,335.5,295.5,335.9,295.6,336Z" fill="#1a2e35"/><path d="M314.8,341.1c.3.3,1.8-.7,3.9-.6s3.5,1.3,3.8,1.1-.1-.6-.8-1.1a5.6,5.6,0,0,0-3-1.2,5.7,5.7,0,0,0-3,.8C315,340.5,314.7,341,314.8,341.1Z" fill="#1a2e35"/><path d="M306.2,349.7c0-.2-1.2-.7-3.2-1.4-.5-.2-.9-.4-.9-.8s.3-.9.7-1.4l2.4-3.6c3.5-5.2,6.1-9.4,5.9-9.6s-3.2,4-6.6,9.1a37.5,37.5,0,0,0-2.4,3.6,3.1,3.1,0,0,0-.8,2,1.3,1.3,0,0,0,.7.9l.9.4A14.5,14.5,0,0,0,306.2,349.7Z" fill="#1a2e35"/><path d="M298.6,373.3a40.5,40.5,0,0,0,21.5-.6s-7.2,9.2-22.1,4.3Z" fill="#ff9a6c"/><path d="M305.1,356.5c-.2-.3.1.3,0,0Z" fill="#ff9a6c"/><path d="M311.7,355.5a3.6,3.6,0,0,0-2.2-2,4.1,4.1,0,0,0-4,.7,2.3,2.3,0,0,0-.4,2.3c.7.9.8,1.7,1.8,2.2s3.6.2,4.4-.5A2.4,2.4,0,0,0,311.7,355.5Z" fill="#ff9a6c"/><path d="M311.9,352.5c-.4-.1-.9,2.1-3.1,3.2s-4.6.3-4.7.6.4.6,1.4.8a5.5,5.5,0,0,0,3.9-.4,5.1,5.1,0,0,0,2.4-2.7C312.1,353.1,312,352.5,311.9,352.5Z" fill="#1a2e35"/><path d="M319,330.4c-.1.5,1.6,1.2,3.3,2.4s2.9,2.6,3.4,2.3.2-.8-.1-1.6a6.7,6.7,0,0,0-2.1-2.5,6.9,6.9,0,0,0-3-1.1C319.6,329.9,319.1,330.1,319,330.4Z" fill="#1a2e35"/><path d="M296.8,328.2c.5.5,2-.2,4-.4s3.6,0,3.9-.5-.2-.7-.9-1.1a5.6,5.6,0,0,0-3.3-.5,6.3,6.3,0,0,0-3.1,1.3C296.8,327.5,296.6,328,296.8,328.2Z" fill="#1a2e35"/><path d="M347.7,324.1a6.4,6.4,0,0,0-2.8-2.6,191.5,191.5,0,0,0-23-10.6l-3.2,1.8a16,16,0,0,0,7.9,16.1c2.2,1.2,5,2.3,5.3,4.9s-2.4,4.4-3.9,6.5a8,8,0,0,0-.3,9.1c1,1.5,2.5,2.7,3.4,4.3a8.2,8.2,0,0,1,.3,7c-.9,2.2-2.5,5.3-4.5,6.5a13.8,13.8,0,0,0,14.9-6.3c1.7-2.9,1.9-6.5,2.1-9.9a127.1,127.1,0,0,1,3.7-22.9A6.5,6.5,0,0,0,347.7,324.1Z" fill="#1a2e35"/><path d="M322.5,311.2c-2.2,2.5-4.4,5.1-7.2,6.9s-6.3,2.5-9.4,1.3l2.3-2.6a46.5,46.5,0,0,1-18.1,7.5c4-4.9,8.2-10,13.8-13.2s12.9-4.2,18.3-.8" fill="#1a2e35"/><path d="M348.5,340.1l-17.4,13.5c2,2.1,1.2,7.7-.7,9.9s-4.6,4.1-5.4,6.9.8,6.3.9,9.6-3,8.5-5.4,12.4-4.1,9.1-1.4,12.8,9.7,3.6,13.8.5,6.4-8,9.4-12.2,7.7-7.3,12.9-6.8A98.9,98.9,0,0,0,348.5,340.1Z" fill="#1a2e35"/><path d="M351.4,377.7c-.1-.2.9-.9,2.7-2.3a38,38,0,0,0,6.5-6.7,22.9,22.9,0,0,0,3-5.6,17.8,17.8,0,0,0,1-7,15.4,15.4,0,0,0-2.4-7.2,21.6,21.6,0,0,0-5.8-6.3c-4.6-3.6-10.2-5.7-15.1-7.8a56.6,56.6,0,0,1-12.8-7,24.4,24.4,0,0,1-6.5-7.5c-1-2.1-1.2-3.4-1-3.5s.7,1.1,2,2.9a28.5,28.5,0,0,0,6.8,6.4,60.7,60.7,0,0,0,12.5,6.1c2.5,1,5.2,2,7.9,3.3a45.3,45.3,0,0,1,8.1,4.8,26.6,26.6,0,0,1,6.4,7,18.7,18.7,0,0,1,2.6,8.7,20.7,20.7,0,0,1-1.4,8,28.9,28.9,0,0,1-3.6,6,29.4,29.4,0,0,1-7.6,6.3C352.7,377.5,351.5,377.9,351.4,377.7Z" fill="#1a2e35"/><path d="M351.7,336.7l-1.5-.5-4-1.6a48.6,48.6,0,0,1-12.4-7,26,26,0,0,1-8.3-11.6,18.1,18.1,0,0,1-.8-4.3v-1.6c.2,0,0,2.3,1.2,5.7a26.1,26.1,0,0,0,8.2,11.3,54.3,54.3,0,0,0,12.3,7.1l3.9,1.8Z" fill="#375a64"/><path d="M352.3,354c-.1,0,.2-.7.4-2a9.3,9.3,0,0,0-.9-5.3,14.8,14.8,0,0,0-5.3-6c-2.5-1.9-5.6-3.3-8.7-5.1a31.5,31.5,0,0,1-7.7-6.6,32.2,32.2,0,0,1-4.6-7,34.8,34.8,0,0,1-1.9-5.2,9.6,9.6,0,0,0-.3-1.5c0-.3-.1-.5,0-.5l.6,1.9a27.8,27.8,0,0,0,2,5.2,33.6,33.6,0,0,0,4.6,6.7,30,30,0,0,0,7.6,6.4c3.1,1.9,6.2,3.3,8.8,5.2a15.7,15.7,0,0,1,5.3,6.4,9.7,9.7,0,0,1,.8,5.5,7.2,7.2,0,0,1-.5,1.4A1.2,1.2,0,0,1,352.3,354Z" fill="#375a64"/><path d="M256.2,342.4v-.2l.4-.5a4.4,4.4,0,0,1,1.9-1.4,12.9,12.9,0,0,1,3.8-.7l5-.2a25.6,25.6,0,0,0,6-.5,14.7,14.7,0,0,0,6-3.2,28.3,28.3,0,0,0,4.9-5.8c1.4-2.2,2.6-4.7,3.9-7.2a57.3,57.3,0,0,1,4.1-7.3,21.4,21.4,0,0,1,17.7-9.6,21.3,21.3,0,0,1,8.7,1.5l1.3.6.9.5.7.4-.8-.3-.9-.5-1.3-.5a21.3,21.3,0,0,0-8.5-1.3,22.5,22.5,0,0,0-12.1,4.1,21.1,21.1,0,0,0-5.2,5.5,60.1,60.1,0,0,0-4.1,7.1,82.5,82.5,0,0,1-3.9,7.3,26.8,26.8,0,0,1-5.1,5.9,15,15,0,0,1-6.2,3.3,26.8,26.8,0,0,1-6.1.5,40,40,0,0,0-5,.1,9.7,9.7,0,0,0-3.7.5,5.7,5.7,0,0,0-2,1.3Z" fill="#375a64"/><path d="M249.2,327.1c-6.9-17.3-15.9-34.2-17.2-47.1l-13.6.5c.2,5,2,46.5,11.7,62.9S272,398.1,272,398.1l11.3-29.2S256.1,344.3,249.2,327.1Z" fill="#ffbf9d"/><path d="M226.5,253.2h-6s.6,3.5,3.3,3.7,2.2-.4,2.2-.4l-.6.5-3.7.7s.1,2.9,2.6,3.4l3.6-3.4Z" fill="#ffbf9d"/><path d="M242.8,252.6c-.5,4.5-.6,4.3-.6,4.3l-5.4,4.5-1.4-6.7a2.1,2.1,0,0,0-1.9-1.6H231s1-3.5-2.1-3.2c0,0-1.7-.4-3.1,5.3s-8,20.9-7.4,25.9l13.8.5c-.2-4.6,3.6-9.4,5.4-11.5a4.8,4.8,0,0,0,1.2-2.2,6.3,6.3,0,0,1,1.6-3c1.7-1.9,5.3-5.3,5.3-5.3V249S243.3,248.3,242.8,252.6Zm-11.1,10.1-2.8,1.3.5-2.9,2.3-.2Z" fill="#ffbf9d"/><path d="M228.7,264.3a11.3,11.3,0,0,0,.2-1.2q.2-1.2.6-3.3c.3-1.5.6-3.1.9-4.9a13.7,13.7,0,0,0,.5-2.8c0-.9-.3-2-1.3-2.1a2.4,2.4,0,0,0-2.2,1.5,5.2,5.2,0,0,0-.6,1.3c-.1.5-.3.9-.4,1.3s-1.1,3.4-1.5,4.8l-1.2,3.1-.5,1.1c-.1,0,.1-.4.3-1.2a32.3,32.3,0,0,0,1-3.2c.4-1.4.8-3,1.3-4.7l.5-1.4a4.2,4.2,0,0,1,.6-1.4,4.1,4.1,0,0,1,1-1.3,2.1,2.1,0,0,1,1.7-.4,1.4,1.4,0,0,1,.9.3,1.1,1.1,0,0,1,.6.7,3.2,3.2,0,0,1,.4,1.6c-.1,1.1-.4,2-.5,2.9s-.8,3.4-1.1,4.9-.6,2.5-.8,3.2S228.8,264.3,228.7,264.3Z" fill="#ff9a6c"/><path d="M231.6,262.7c-.2,0-.1-1.5-.2-3.3s-.1-.9-.1-1.3-.1-.7-.3-.8-.8-.3-.8-.4h.3a1.2,1.2,0,0,1,.8.1,1.2,1.2,0,0,1,.5,1.1,5.9,5.9,0,0,1,.2,1.3A7.1,7.1,0,0,1,231.6,262.7Z" fill="#ff9a6c"/><path d="M238.3,260.2c.1,0-.3.5-1.1,1.1a12.6,12.6,0,0,1-3.2,2.2,12.8,12.8,0,0,1-3.8.9h-1.6l1.5-.3a12.1,12.1,0,0,0,3.6-1.1A16,16,0,0,0,237,261Z" fill="#ff9a6c"/><path d="M346.7,389.7s15.3-.5,24.5-3.2,44.6-11.1,44.6-11.1l56.5-9.5,1.2,14.7s-52.6,15.4-62.9,18.9S353.7,419,344.9,417l-5.5-11.3Z" fill="#ffbf9d"/><path d="M499.5,348.7c-.9-.2-5.5,1.9-5.5,1.9a3,3,0,0,0,.1-3.8l-6.3,3.1s-3.2,3.2-5.2,4.8-7.9,8.3-8.1,8.7l-3.7,3.5,2.3,13.8a11.3,11.3,0,0,0,4.9-.6c2-.9,4.8-4.6,4.8-4.6l5.4-.4a3.6,3.6,0,0,0,1.7-.7,4.8,4.8,0,0,0,1.4-3.7c3.3-1.9,1.4-4.4,1.4-4.4a4,4,0,0,0,2.7-1.5c.7-1,.5-1.8-.1-3s-5.6-.8-5.6-.8l-.3-1.4,9.2-7.3C500.3,351,500.4,348.9,499.5,348.7Z" fill="#ffbf9d"/><path d="M494.1,350.5a7.2,7.2,0,0,1-2.3,2.7,34.3,34.3,0,0,0-2.7,2.7,11.1,11.1,0,0,0-2.1,4.2,19.9,19.9,0,0,1-1.6,4.5,17.7,17.7,0,0,1-2.3,3.2,12,12,0,0,1-2,1.7c-.5.4-.8.6-.8.5s1-.8,2.5-2.5a17.7,17.7,0,0,0,2.1-3.2,37.2,37.2,0,0,0,1.6-4.4,11.5,11.5,0,0,1,2.1-4.3,22.6,22.6,0,0,1,2.9-2.7A26.5,26.5,0,0,0,494.1,350.5Z" fill="#ff9a6c"/><path d="M491.4,370.7a12.8,12.8,0,0,1-2.6,1.2,18.4,18.4,0,0,1-2.9.6H484a4.9,4.9,0,0,1-1.9-.7,2,2,0,0,1-.9-1.9,2.6,2.6,0,0,1,1-1.6,2.9,2.9,0,0,1,1.5-.9l1.3-.3a9.7,9.7,0,0,1,2.8-.3l-2.7.7-1.3.4a2.6,2.6,0,0,0-1.3.8,2.9,2.9,0,0,0-.8,1.3,1.6,1.6,0,0,0,.8,1.3,4.8,4.8,0,0,0,3.3.6,11.9,11.9,0,0,0,2.9-.4A14.5,14.5,0,0,1,491.4,370.7Z" fill="#ff9a6c"/><path d="M492.8,366.3a4.1,4.1,0,0,1-1.9.6l-2.2.2A3.9,3.9,0,0,1,486,366a2.6,2.6,0,0,1-.1-2.8,4.6,4.6,0,0,1,1.7-1.5,5,5,0,0,1,2-.6l-1.8.9a4.1,4.1,0,0,0-1.4,1.5,2.2,2.2,0,0,0,.1,2.2,2.9,2.9,0,0,0,2.2.8,14.6,14.6,0,0,0,2.1,0A13.5,13.5,0,0,1,492.8,366.3Z" fill="#ff9a6c"/><path d="M489.1,374.9a7,7,0,0,1-1.6.5,13.7,13.7,0,0,1-3.9.4,1.7,1.7,0,0,1-1.3-.5,1.7,1.7,0,0,1-.3-1.2,2.2,2.2,0,0,1,.9-1.6c1-.7,1.8-.3,1.7-.2a2.6,2.6,0,0,0-1.4.5,1.7,1.7,0,0,0-.7,1.4,1.6,1.6,0,0,0,.3.8c.2.2.4.2.8.2a15.1,15.1,0,0,0,3.9-.3Z" fill="#ff9a6c"/><path d="M320.6,438.3c.1,0-.3.3-1,.6a15.6,15.6,0,0,1-3.2,1.2,24.1,24.1,0,0,1-11,.6,22.7,22.7,0,0,1-10-4.6,14.9,14.9,0,0,1-2.5-2.3c-.5-.6-.8-1-.7-1a38.8,38.8,0,0,0,3.4,2.9,24,24,0,0,0,9.9,4.4,25.1,25.1,0,0,0,10.8-.4C319,439,320.6,438.2,320.6,438.3Z" fill="#ff735d"/><path d="M294.8,396.1l37.4-11.9c1.3-.3,33.1,2.5,33.1,2.5s-1.3,21.1,6.7,27.9h0l-23.4,8.5-7.4,20.3s-4.1,8.3-.8,16c6.2,14.7,16.9,37.9,15.3,40.6-.1.2-1-8.1-16.4-12.4-4.6-1.3-13-1.3-20.6.2-32.7,6.6-45.4,21.7-49.1,24.3,0,0,6.7-52.9,3.6-61.1s-6.6-13.7-4-21,6.6-19.1,6.6-19.1l-12.9-14.6,18-30L297.4,380Z" fill="#f4f4f4"/><path d="M306.7,445.1h-1.2a16.9,16.9,0,0,1-3.4-.4,21.9,21.9,0,0,1-9.8-5.2,19.1,19.1,0,0,1-5.5-9.6,12.6,12.6,0,0,1-.5-3.4c0-.8,0-1.2.1-1.2a25.5,25.5,0,0,0,.8,4.5,20.5,20.5,0,0,0,5.5,9.3,21.2,21.2,0,0,0,9.5,5.1C305,445,306.8,445,306.7,445.1Z" fill="#1a2e35"/><path d="M272.9,400.4a13.1,13.1,0,0,1,2.5,6.2,12.1,12.1,0,0,1-.6,6.7c-.2,0,.6-3,0-6.6S272.7,400.5,272.9,400.4Z" fill="#1a2e35"/><path d="M349.4,406.7c.1.1-.7.6-1.8,1.6a17.4,17.4,0,0,0-3.4,4.8,15.8,15.8,0,0,0-1.2,5.8c-.1,1.5.1,2.4,0,2.4a6.8,6.8,0,0,1-.5-2.4,13,13,0,0,1,1.2-6,14.1,14.1,0,0,1,3.6-4.9C348.5,407,349.4,406.6,349.4,406.7Z" fill="#1a2e35"/><g opacity="0.3"><path d="M301.4,444.3c-4-.8-6.2-2.3-9-5.1a18.5,18.5,0,0,1-4-5.4c-.8,3.6,4.2,9.9,9.1,12.3a17.8,17.8,0,0,0,15.6-.4A57.6,57.6,0,0,1,301.4,444.3Z"/></g><path d="M345.6,470.5c-.1.1-1-.6-2.8-1.4a19.9,19.9,0,0,0-8.5-1.8,32.3,32.3,0,0,0-12.5,2.5,88.8,88.8,0,0,0-13.7,7.9,145.2,145.2,0,0,1-25.2,14c-3.4,1.4-6.2,2.5-8.1,3.1l-2.3.8-.8.2.8-.3,2.2-.9c1.9-.7,4.7-1.8,8.1-3.3a161.6,161.6,0,0,0,25-14.1,89.5,89.5,0,0,1,13.8-7.9,32.9,32.9,0,0,1,12.7-2.4,21.5,21.5,0,0,1,8.6,1.9A23.1,23.1,0,0,1,345.6,470.5Z" fill="#fff"/><path d="M339,451.6a15.1,15.1,0,0,0-2.1-1.6,15.5,15.5,0,0,0-7.1-2.3,25.8,25.8,0,0,0-10.7,2c-3.9,1.6-8,3.8-12.3,6.1a125.4,125.4,0,0,1-12.3,6,48.7,48.7,0,0,1-10.8,2.9,32.6,32.6,0,0,1-7.6.1l-2-.3-.7-.2a17.3,17.3,0,0,1,2.7.3,35,35,0,0,0,7.5-.4,48,48,0,0,0,10.7-2.9c3.9-1.6,8-3.7,12.3-6a116.8,116.8,0,0,1,12.3-6.1,25.3,25.3,0,0,1,11-1.9,13.9,13.9,0,0,1,7.1,2.5A7.1,7.1,0,0,1,339,451.6Z" fill="#fff"/><path d="M290.9,437.3l-.7.6-1,.6-1.3.6a13.6,13.6,0,0,1-3.6,1.3,21.4,21.4,0,0,1-4.6.6,22.4,22.4,0,0,1-4.6-.5,23.6,23.6,0,0,1-3.7-1.1l-1.3-.7-.9-.5-.8-.6c.1-.1,1.2.6,3.2,1.4a22.8,22.8,0,0,0,3.6,1,22.7,22.7,0,0,0,9-.1,22.2,22.2,0,0,0,3.6-1.1A27.2,27.2,0,0,1,290.9,437.3Z" fill="#fff"/><path d="M344.5,434.4l-.5.4a6.8,6.8,0,0,1-1.4.9,14.9,14.9,0,0,1-6,1.7,27.7,27.7,0,0,1-9.2-.8c-3.3-.8-6.9-2.2-10.7-3.3a51.9,51.9,0,0,0-20.2-1.3,48.5,48.5,0,0,0-6,1.3l-2.2.6.5-.3,1.6-.5a45.1,45.1,0,0,1,6.1-1.5,48.6,48.6,0,0,1,20.3,1.2c3.9,1.1,7.4,2.4,10.8,3.2a27,27,0,0,0,9,1,17.2,17.2,0,0,0,5.9-1.5A13.5,13.5,0,0,0,344.5,434.4Z" fill="#fff"/><path d="M343.5,417.3h-.7l-2.1.2a47.8,47.8,0,0,1-7.7-.5,111.5,111.5,0,0,1-11.2-2.7,89.6,89.6,0,0,0-13.7-2.8,23.2,23.2,0,0,0-3.7-.1h-1.8l-1.7.2a32.6,32.6,0,0,0-6.5,1.7c-4.1,1.4-7.6,3.1-10.7,4.1a29.6,29.6,0,0,1-7.6,1.7,14.3,14.3,0,0,1-2.1,0h2.1a33.4,33.4,0,0,0,7.4-1.9c3.1-1.1,6.6-2.8,10.7-4.2a26.6,26.6,0,0,1,6.6-1.7l1.8-.3h1.8c1.2-.1,2.5.1,3.7.1a88.2,88.2,0,0,1,13.8,2.9,97.6,97.6,0,0,0,11.1,2.7,43.4,43.4,0,0,0,7.7.8h2.8Z" fill="#fff"/><path d="M354.9,386.7a39.4,39.4,0,0,0-2.1,4.7,25.1,25.1,0,0,0-1.2,12.4,25.4,25.4,0,0,0,5.2,11.2c2,2.5,3.7,3.7,3.6,3.8a4.9,4.9,0,0,1-1.2-.8l-2.7-2.7a23.8,23.8,0,0,1-5.4-11.4,22.6,22.6,0,0,1,1.3-12.6,23,23,0,0,1,1.7-3.5Z" fill="#fff"/><path d="M294.7,390.3l-1,.2a15.8,15.8,0,0,1-2.8.3,12.6,12.6,0,0,1-4.2-.3,9.9,9.9,0,0,1-4.5-2.6c-1.3-1.3-2.3-2.7-3.3-3.9a17.1,17.1,0,0,0-3.1-2.6,8.2,8.2,0,0,0-3.6-1.1h1a6,6,0,0,1,2.8.8,13.1,13.1,0,0,1,3.3,2.7,37.3,37.3,0,0,0,3.3,3.8,9.2,9.2,0,0,0,4.2,2.5,21,21,0,0,0,4.1.4C293.3,390.4,294.7,390.2,294.7,390.3Z" fill="#fff"/></svg>